<?xml version="1.0" encoding="utf-8"?>
<!-- Generator: Adobe Illustrator 24.0.1, SVG Export Plug-In . SVG Version: 6.00 Build 0)  -->
<svg version="1.1" id="Layer_1" xmlns="http://www.w3.org/2000/svg" xmlns:xlink="http://www.w3.org/1999/xlink" x="0px" y="0px"
	 viewBox="0 0 70 70" style="enable-background:new 0 0 70 70;" xml:space="preserve">
<style type="text/css">
	.st0{fill:url(#SVGID_1_);}
	.st1{fill-rule:evenodd;clip-rule:evenodd;fill:#FFFFFF;}
</style>
<g>
	<linearGradient id="SVGID_1_" gradientUnits="userSpaceOnUse" x1="4.6809" y1="4.6809" x2="65.3191" y2="65.3191">
		<stop  offset="0" style="stop-color:#3224AC"/>
		<stop  offset="1" style="stop-color:#C26BD4"/>
	</linearGradient>
	<path class="st0" d="M55.3,69.5H14.7c-7.9,0-14.2-6.4-14.2-14.2V14.7c0-7.9,6.4-14.2,14.2-14.2h40.5c7.9,0,14.2,6.4,14.2,14.2v40.5
		C69.5,63.1,63.1,69.5,55.3,69.5z"/>
	<path id="Shape_1_" class="st1" d="M36.9,10.5c-0.5-0.4-1.2-0.6-1.8-0.6c-0.7,0-1.3,0.2-1.8,0.6L14.8,21.2
		c-0.1,0.1-0.3,0.1-0.4,0.2c-0.9,0.6-1.4,1.6-1.4,2.7l-0.1,21.8c0,1.3,0.7,2.3,1.7,2.9l18.6,10.7c0.5,0.4,1.2,0.6,1.8,0.6
		c0.7,0,1.3-0.2,1.8-0.6l18.5-10.7c0.1-0.1,0.2-0.1,0.3-0.2c0.9-0.6,1.4-1.6,1.4-2.7l0.1-21.8c0-1.2-0.7-2.3-1.7-2.9L36.9,10.5z
		 M32.4,44c0,0.8-0.6,1.4-1.4,1.4h-4.7c-0.8,0-1.4-0.6-1.4-1.4V26.5c0-0.8,0.6-1.4,1.4-1.4H31c0.8,0,1.4,0.6,1.4,1.4V44L32.4,44z
		 M44.9,45.5h-5c-0.5,0-0.9-0.2-1.2-0.6l-5-8.8c-0.2-0.2-0.3-0.5-0.3-0.8c0-0.3,0.1-0.6,0.3-0.9l4.9-8.7c0.3-0.4,0.7-0.6,1.2-0.6h5
		c0.8,0,1.4,0.6,1.4,1.4c0,0.3-0.1,0.6-0.2,0.8l-4.1,7c-0.2,0.2-0.3,0.6-0.3,0.9c0,0.3,0.1,0.6,0.2,0.8l4.1,7.2
		c0.2,0.2,0.3,0.5,0.3,0.9C46.3,44.8,45.7,45.5,44.9,45.5L44.9,45.5z"/>
</g>
</svg>
