<?xml version="1.0" encoding="utf-8"?>
<!-- Generator: Adobe Illustrator 24.0.1, SVG Export Plug-In . SVG Version: 6.00 Build 0)  -->
<svg version="1.1" id="Layer_1" xmlns="http://www.w3.org/2000/svg" xmlns:xlink="http://www.w3.org/1999/xlink" x="0px" y="0px"
	 viewBox="0 0 120 120" style="enable-background:new 0 0 120 120;" xml:space="preserve">
<style type="text/css">
	.st0{fill:#7D7D7D;}
</style>
<title>instagram</title>
<path class="st0" d="M113.4,31.8c-1.3-4.9-5.1-8.7-9.9-10c-8.8-2.4-44-2.4-44-2.4s-35.2,0-44,2.4c-4.8,1.3-8.7,5.1-9.9,10
	c-2.4,8.8-2.4,27.3-2.4,27.3s0,18.4,2.4,27.3c1.3,4.9,5.1,8.5,9.9,9.9c8.8,2.4,44,2.4,44,2.4s35.2,0,44-2.4c4.8-1.3,8.7-5,9.9-9.9
	c2.4-8.8,2.4-27.3,2.4-27.3S115.8,40.7,113.4,31.8z M48,75.8V42.4l29.4,16.7L48,75.8L48,75.8z"/>
</svg>
