<?xml version="1.0" encoding="utf-8"?>
<!-- Generator: Adobe Illustrator 24.0.1, SVG Export Plug-In . SVG Version: 6.00 Build 0)  -->
<svg version="1.1" id="Layer_1" xmlns="http://www.w3.org/2000/svg" xmlns:xlink="http://www.w3.org/1999/xlink" x="0px" y="0px"
	 viewBox="0 0 120 120" style="enable-background:new 0 0 120 120;" xml:space="preserve">
<style type="text/css">
	.st0{fill:#7D7D7D;}
</style>
<title>instagram</title>
<g id="Layer_1_1_">
	<path class="st0" d="M60,36.2c-13.2,0-23.8,10.7-23.8,23.8c0,13.2,10.7,23.8,23.8,23.8c13.2,0,23.8-10.7,23.8-23.8
		C83.9,46.9,73.2,36.2,60,36.2C60.1,36.2,60,36.2,60,36.2z M60,75.5c-8.6,0-15.5-6.9-15.5-15.5S51.5,44.5,60,44.5
		c8.6,0,15.5,6.9,15.5,15.5C75.5,68.6,68.6,75.5,60,75.5z M90.4,35.2c0,3.1-2.5,5.6-5.5,5.6c-3.1,0-5.6-2.5-5.6-5.5
		c0-3.1,2.5-5.6,5.5-5.6c0,0,0,0,0,0C87.9,29.6,90.4,32.1,90.4,35.2C90.4,35.2,90.4,35.2,90.4,35.2z M106.1,40.8
		c-0.3-7.4-2-14-7.5-19.5s-12-7.1-19.5-7.5c-7.7-0.4-30.7-0.4-38.3,0c-7.4,0.4-14,2.1-19.5,7.5s-7.1,12-7.5,19.5
		c-0.4,7.7-0.4,30.7,0,38.3c0.4,7.4,2.1,14,7.5,19.5s12,7.1,19.5,7.5c7.7,0.4,30.7,0.4,38.3,0c7.4-0.3,14-2,19.5-7.5
		s7.1-12,7.5-19.5C106.6,71.5,106.6,48.5,106.1,40.8z M96.2,87.4c-1.6,4-4.8,7.2-8.8,8.8c-6.1,2.4-20.6,1.9-27.4,1.9
		s-21.3,0.5-27.4-1.9c-4-1.6-7.2-4.8-8.8-8.8c-2.4-6.1-1.9-20.6-1.9-27.4s-0.5-21.3,1.9-27.4c1.6-4,4.8-7.2,8.8-8.8
		c6.1-2.4,20.6-1.9,27.4-1.9s21.3-0.5,27.4,1.9c4,1.6,7.2,4.8,8.8,8.8c2.4,6.1,1.9,20.6,1.9,27.4S98.7,81.3,96.2,87.4z"/>
</g>
</svg>
