<?xml version="1.0" encoding="utf-8"?>
<!-- Generator: Adobe Illustrator 24.0.1, SVG Export Plug-In . SVG Version: 6.00 Build 0)  -->
<svg version="1.1" id="Layer_1" xmlns="http://www.w3.org/2000/svg" xmlns:xlink="http://www.w3.org/1999/xlink" x="0px" y="0px"
	 viewBox="0 0 120 120" style="enable-background:new 0 0 120 120;" xml:space="preserve">
<style type="text/css">
	.st0{fill:#7D7D7D;}
</style>
<title>twitter</title>
<g id="Layer_1_1_">
	<path class="st0" d="M102.2,38.4c0.1,0.9,0.1,1.9,0.1,2.8c0,28.8-21.9,61.9-61.9,61.9c-11.8,0-23.4-3.4-33.4-9.8
		c1.7,0.2,3.5,0.3,5.3,0.3c9.8,0,19.3-3.2,27-9.3c-9.3-0.2-17.5-6.2-20.3-15.1c1.4,0.2,2.7,0.3,4.1,0.3c1.9,0,3.9-0.2,5.7-0.7
		c-10.2-2-17.5-11-17.5-21.4v-0.3c3,1.7,6.4,2.7,9.8,2.8c-9.6-6.4-12.5-19.1-6.7-29.1c11.1,13.6,27.4,21.9,44.9,22.7
		c-0.4-1.6-0.5-3.3-0.5-5c0-12,9.8-21.8,21.8-21.7c6,0,11.7,2.5,15.8,6.9c4.9-0.9,9.5-2.7,13.8-5.2c-1.6,5-5,9.3-9.6,12
		c4.3-0.5,8.5-1.6,12.5-3.4C110.1,31.5,106.4,35.3,102.2,38.4L102.2,38.4z"/>
</g>
</svg>
