<?xml version="1.0" encoding="utf-8"?>
<!-- Generator: Adobe Illustrator 24.0.1, SVG Export Plug-In . SVG Version: 6.00 Build 0)  -->
<svg version="1.1" id="Layer_1" xmlns="http://www.w3.org/2000/svg" xmlns:xlink="http://www.w3.org/1999/xlink" x="0px" y="0px"
	 viewBox="0 0 1210.8 306.8" style="enable-background:new 0 0 1210.8 306.8;" xml:space="preserve">
<style type="text/css">
	.st0{opacity:8.000000e-02;fill:#FFFFFF;}
	.st1{opacity:8.000000e-02;}
	.st2{fill:#FFFFFF;}
</style>
<path class="st0" d="M422.2,110l-17.9-10.4c-1.7-1-3.9-1-5.7,0L380.7,110c-1.7,1-2.8,2.9-2.8,4.9v20.9c0,2,1.1,3.9,2.8,4.9
	l17.9,10.4c0.9,0.5,1.9,0.8,2.8,0.8c1,0,2-0.3,2.8-0.8l17.9-10.4l0,0c1.7-1,2.8-2.9,2.8-4.9v-20.9C425,112.8,423.9,111,422.2,110z
	 M401.3,146.4L383.4,136c-0.1-0.1-0.2-0.2-0.2-0.3v-20.9c0-0.1,0.1-0.2,0.2-0.3l17.9-10.4c0.1-0.1,0.2-0.1,0.3,0l17.9,10.4
	c0.1,0.1,0.2,0.2,0.2,0.3v20.9c0,0.1-0.1,0.2-0.2,0.3l-17.9,10.4C401.5,146.5,401.4,146.5,401.3,146.4z"/>
<path class="st0" d="M683.7,203.1l-17.9-10.4c-1.7-1-3.9-1-5.7,0l-17.9,10.4c-1.7,1-2.8,2.9-2.8,4.9v20.9c0,2,1.1,3.9,2.8,4.9
	l17.9,10.4c0.9,0.5,1.9,0.8,2.8,0.8c1,0,2-0.3,2.8-0.8l17.9-10.4l0,0c1.7-1,2.8-2.9,2.8-4.9V208C686.5,206,685.4,204.2,683.7,203.1z
	 M662.8,239.6l-17.9-10.4c-0.1-0.1-0.2-0.2-0.2-0.3V208c0-0.1,0.1-0.2,0.2-0.3l17.9-10.4c0.1-0.1,0.2-0.1,0.3,0l17.9,10.4
	c0.1,0.1,0.2,0.2,0.2,0.3v20.9c0,0.1-0.1,0.2-0.2,0.3l-17.9,10.4C663,239.7,662.9,239.7,662.8,239.6z"/>
<path class="st0" d="M602.6,76.6l-17.9-10.4c-1.7-1-3.9-1-5.7,0l-17.9,10.4c-1.7,1-2.8,2.9-2.8,4.9v20.9c0,2,1.1,3.9,2.8,4.9
	l17.9,10.4c0.9,0.5,1.9,0.8,2.8,0.8c1,0,2-0.3,2.8-0.8l17.9-10.4l0,0c1.7-1,2.8-2.9,2.8-4.9V81.5C605.4,79.5,604.3,77.6,602.6,76.6z
	 M581.7,113.1l-17.9-10.4c-0.1-0.1-0.2-0.2-0.2-0.3V81.5c0-0.1,0.1-0.2,0.2-0.3l17.9-10.4c0.1-0.1,0.2-0.1,0.3,0L600,81.2
	c0.1,0.1,0.2,0.2,0.2,0.3v20.9c0,0.1-0.1,0.2-0.2,0.3l-17.9,10.4C582,113.1,581.8,113.1,581.7,113.1z"/>
<path class="st0" d="M937,146.1l-17.9-10.4c-1.7-1-3.9-1-5.7,0l-17.9,10.4c-1.7,1-2.8,2.9-2.8,4.9v20.9c0,2,1.1,3.9,2.8,4.9
	l17.9,10.4c0.9,0.5,1.9,0.8,2.8,0.8c1,0,2-0.3,2.8-0.8l17.9-10.4l0,0c1.7-1,2.8-2.9,2.8-4.9v-20.9
	C939.8,148.9,938.7,147.1,937,146.1z M916.1,182.5l-17.9-10.4c-0.1-0.1-0.2-0.2-0.2-0.3v-20.9c0-0.1,0.1-0.2,0.2-0.3l17.9-10.4
	c0.1-0.1,0.2-0.1,0.3,0l17.9,10.4c0.1,0.1,0.2,0.2,0.2,0.3v20.9c0,0.1-0.1,0.2-0.2,0.3l-17.9,10.4
	C916.3,182.6,916.2,182.6,916.1,182.5z"/>
<path class="st0" d="M849.1,55.4L831.2,45c-1.7-1-3.9-1-5.7,0l-17.9,10.4c-1.7,1-2.8,2.9-2.8,4.9v20.9c0,2,1.1,3.9,2.8,4.9
	l17.9,10.4c0.9,0.5,1.9,0.8,2.8,0.8c1,0,2-0.3,2.8-0.8L849.1,86l0,0c1.7-1,2.8-2.9,2.8-4.9V60.3C851.9,58.3,850.8,56.4,849.1,55.4z
	 M828.2,91.9l-17.9-10.4c-0.1-0.1-0.2-0.2-0.2-0.3V60.3c0-0.1,0.1-0.2,0.2-0.3l17.9-10.4c0.1-0.1,0.2-0.1,0.3,0L846.4,60
	c0.1,0.1,0.2,0.2,0.2,0.3v20.9c0,0.1-0.1,0.2-0.2,0.3l-17.9,10.4C828.4,91.9,828.3,91.9,828.2,91.9z"/>
<path class="st0" d="M1188.1,238l-17.9-10.4c-1.7-1-3.9-1-5.7,0l-17.9,10.4c-1.7,1-2.8,2.9-2.8,4.9v20.9c0,2,1.1,3.9,2.8,4.9
	l17.9,10.4c0.9,0.5,1.9,0.8,2.8,0.8c1,0,2-0.3,2.8-0.8l17.9-10.4l0,0c1.7-1,2.8-2.9,2.8-4.9v-20.9
	C1190.9,240.9,1189.8,239,1188.1,238z M1167.2,274.4l-17.9-10.4c-0.1-0.1-0.2-0.2-0.2-0.3v-20.9c0-0.1,0.1-0.2,0.2-0.3l17.9-10.4
	c0.1-0.1,0.2-0.1,0.3,0l17.9,10.4c0.1,0.1,0.2,0.2,0.2,0.3v20.9c0,0.1-0.1,0.2-0.2,0.3l-17.9,10.4
	C1167.4,274.5,1167.3,274.5,1167.2,274.4z"/>
<path class="st0" d="M246,28.9l-17.9-10.4c-1.7-1-3.9-1-5.7,0l-17.9,10.4c-1.7,1-2.8,2.9-2.8,4.9v20.9c0,2,1.1,3.9,2.8,4.9
	l17.9,10.4c0.9,0.5,1.9,0.8,2.8,0.8c1,0,2-0.3,2.8-0.8L246,59.5l0,0c1.7-1,2.8-2.9,2.8-4.9V33.8C248.8,31.8,247.7,29.9,246,28.9z
	 M225.1,65.4l-17.9-10.4c-0.1-0.1-0.2-0.2-0.2-0.3V33.8c0-0.1,0.1-0.2,0.2-0.3L225.1,23c0.1-0.1,0.2-0.1,0.3,0l17.9,10.4
	c0.1,0.1,0.2,0.2,0.2,0.3v20.9c0,0.1-0.1,0.2-0.2,0.3l-17.9,10.4C225.3,65.4,225.2,65.4,225.1,65.4z"/>
<path class="st0" d="M219.1,190.3l-17.9-10.4c-1.7-1-3.9-1-5.7,0l-17.9,10.4c-1.7,1-2.8,2.9-2.8,4.9V216c0,2,1.1,3.9,2.8,4.9
	l17.9,10.4c0.9,0.5,1.9,0.8,2.8,0.8c1,0,2-0.3,2.8-0.8l17.9-10.4l0,0c1.7-1,2.8-2.9,2.8-4.9v-20.9
	C221.9,193.1,220.8,191.3,219.1,190.3z M198.2,226.7l-17.9-10.4c-0.1-0.1-0.2-0.2-0.2-0.3v-20.9c0-0.1,0.1-0.2,0.2-0.3l17.9-10.4
	c0.1-0.1,0.2-0.1,0.3,0l17.9,10.4c0.1,0.1,0.2,0.2,0.2,0.3V216c0,0.1-0.1,0.2-0.2,0.3l-17.9,10.4
	C198.4,226.8,198.3,226.8,198.2,226.7z"/>
<path class="st0" d="M56.4,167.3l-17.9-10.4c-1.7-1-3.9-1-5.7,0l-17.9,10.4c-1.7,1-2.8,2.9-2.8,4.9V193c0,2,1.1,3.9,2.8,4.9
	l17.9,10.4c0.9,0.5,1.9,0.8,2.8,0.8c1,0,2-0.3,2.8-0.8l17.9-10.4l0,0c1.7-1,2.8-2.9,2.8-4.9v-20.9C59.1,170.2,58.1,168.3,56.4,167.3
	z M35.4,203.7l-17.9-10.4c-0.1-0.1-0.2-0.2-0.2-0.3v-20.9c0-0.1,0.1-0.2,0.2-0.3l17.9-10.4c0.1-0.1,0.2-0.1,0.3,0l17.9,10.4
	c0.1,0.1,0.2,0.2,0.2,0.3V193c0,0.1-0.1,0.2-0.2,0.3l-17.9,10.4C35.7,203.8,35.6,203.8,35.4,203.7z"/>
<path class="st0" d="M381.8,241.5l-17.9-10.4c-1.7-1-3.9-1-5.7,0l-17.9,10.4c-1.7,1-2.8,2.9-2.8,4.9v20.9c0,2,1.1,3.9,2.8,4.9
	l17.9,10.4c0.9,0.5,1.9,0.8,2.8,0.8c1,0,2-0.3,2.8-0.8l17.9-10.4l0,0c1.7-1,2.8-2.9,2.8-4.9v-20.9
	C384.6,244.4,383.5,242.5,381.8,241.5z M360.9,278L343,267.5c-0.1-0.1-0.2-0.2-0.2-0.3v-20.9c0-0.1,0.1-0.2,0.2-0.3l17.9-10.4
	c0.1-0.1,0.2-0.1,0.3,0l17.9,10.4c0.1,0.1,0.2,0.2,0.2,0.3v20.9c0,0.1-0.1,0.2-0.2,0.3L361.2,278C361.1,278,361,278,360.9,278z"/>
<g class="st1">
	<path class="st2" d="M681.2,10.4c0,0.1-0.1,0.2-0.2,0.3l-17.9,10.4c-0.1,0.1-0.2,0.1-0.4,0l-17.9-10.4c-0.1-0.1-0.2-0.2-0.2-0.3V0
		h-5.3v10.4c0,2,1.1,3.9,2.8,4.9l17.9,10.4c0.9,0.5,1.9,0.8,2.8,0.8c1,0,2-0.3,2.8-0.8l17.9-10.4l0,0c1.7-1,2.8-2.9,2.8-4.9V0h-5.3
		V10.4z"/>
	<path class="st2" d="M1132.7,7c0.1,0.1,0.2,0.2,0.2,0.3v20.9c0,0.1-0.1,0.2-0.2,0.3l-17.9,10.4c-0.1,0.1-0.2,0.1-0.4,0l-17.9-10.4
		c-0.1-0.1-0.2-0.2-0.2-0.3V7.3c0-0.1,0.1-0.2,0.2-0.3l12-7h-10.5l-4.1,2.4c-1.7,1-2.8,2.9-2.8,4.9v20.9c0,2,1.1,3.9,2.8,4.9
		l17.9,10.4c0.9,0.5,1.9,0.8,2.8,0.8c1,0,2-0.3,2.8-0.8l17.9-10.4l0,0c1.7-1,2.8-2.9,2.8-4.9V7.3c0-2-1.1-3.9-2.8-4.9l-4.1-2.4
		h-10.5L1132.7,7z"/>
</g>
</svg>
