<?xml version="1.0" encoding="utf-8"?>
<!-- Generator: Adobe Illustrator 24.0.1, SVG Export Plug-In . SVG Version: 6.00 Build 0)  -->
<svg version="1.1" id="Layer_1" xmlns="http://www.w3.org/2000/svg" xmlns:xlink="http://www.w3.org/1999/xlink" x="0px" y="0px"
	 viewBox="0 0 364.4 411.8" style="enable-background:new 0 0 364.4 411.8;" xml:space="preserve">
<style type="text/css">
	.st0{fill-rule:evenodd;clip-rule:evenodd;fill:#FFFFFF;}
</style>
<path id="Shape_17_" class="st0" d="M197.5,4.6C193.2,1.7,188,0,182.4,0s-10.8,1.7-15.1,4.6L15.8,92.1c-1.2,0.6-2.3,1.2-3.4,1.9
	c-7.2,4.8-11.9,13.1-11.9,22.4l-1.1,179.2c0,10.3,5.8,19.2,14.3,23.8l152.5,87.8c4.3,2.9,9.5,4.6,15.1,4.6s10.8-1.7,15.1-4.6
	l152.3-87.8c0.9-0.5,1.9-1,2.7-1.6c7.2-4.8,11.9-13.1,11.9-22.4l1.1-179.2c0-10.1-5.6-18.9-13.8-23.5L197.5,4.6z M160.6,280.2
	c0,6.6-5.3,11.9-11.8,11.9h-39c-6.5,0-11.8-5.3-11.8-11.9v-144c0-6.6,5.3-11.9,11.8-11.9h39c6.5,0,11.8,5.3,11.8,11.9V280.2
	L160.6,280.2z M263.2,292.1h-40.9c-4,0-7.5-2-9.6-5.1l-41.1-72.4c-1.3-1.9-2.1-4.2-2.1-6.6c0-2.7,0.9-5.1,2.4-7.1l40.4-71.4
	c2.1-3.2,5.6-5.3,9.7-5.3h40.9c6.4,0,11.6,5.2,11.6,11.6c0,2.4-0.7,4.6-2,6.5l-33.4,57.9c-1.8,2.1-2.8,4.7-2.8,7.6
	c0,2.4,0.7,4.6,2,6.5l34.1,58.9c1.5,2,2.4,4.4,2.4,7.1C274.8,286.9,269.6,292.1,263.2,292.1L263.2,292.1z"/>
</svg>
