<?xml version="1.0" encoding="utf-8"?>
<!-- Generator: Adobe Illustrator 24.0.1, SVG Export Plug-In . SVG Version: 6.00 Build 0)  -->
<svg version="1.1" id="Layer_1" xmlns="http://www.w3.org/2000/svg" xmlns:xlink="http://www.w3.org/1999/xlink" x="0px" y="0px"
	 viewBox="0 0 1236.2 411.8" style="enable-background:new 0 0 1236.2 411.8;" xml:space="preserve">
<style type="text/css">
	.st0{fill-rule:evenodd;clip-rule:evenodd;fill:url(#Shape_1_);}
	.st1{fill-rule:evenodd;clip-rule:evenodd;fill:#3023AE;}
</style>
<linearGradient id="Shape_1_" gradientUnits="userSpaceOnUse" x1="50.2374" y1="59.669" x2="313.5746" y2="352.1345">
	<stop  offset="0" style="stop-color:#3023AE"/>
	<stop  offset="0.2" style="stop-color:#5830B6"/>
	<stop  offset="0.4" style="stop-color:#773EBF"/>
	<stop  offset="0.6" style="stop-color:#934DC7"/>
	<stop  offset="0.8" style="stop-color:#AE5DCF"/>
	<stop  offset="1" style="stop-color:#C86DD7"/>
</linearGradient>
<path id="Shape_17_" class="st0" d="M197.5,4.6c-4.3-2.9-9.5-4.6-15.1-4.6c-5.6,0-10.8,1.7-15.1,4.6L15.8,92.1
	c-1.2,0.6-2.3,1.2-3.4,1.9c-7.2,4.8-11.9,13.1-11.9,22.4l-1.1,179.2c0,10.3,5.8,19.2,14.3,23.8l152.5,87.8c4.3,2.9,9.5,4.6,15.1,4.6
	c5.6,0,10.8-1.7,15.1-4.6l152.3-87.8c0.9-0.5,1.9-1,2.7-1.6c7.2-4.8,11.9-13.1,11.9-22.4l1.1-179.2c0-10.1-5.6-18.9-13.8-23.5
	L197.5,4.6z M160.6,280.2c0,6.6-5.3,11.9-11.8,11.9h-39c-6.5,0-11.8-5.3-11.8-11.9v-144c0-6.6,5.3-11.9,11.8-11.9h39
	c6.5,0,11.8,5.3,11.8,11.9V280.2L160.6,280.2z M263.2,292.1h-40.9c-4,0-7.5-2-9.6-5.1l-41.1-72.4c-1.3-1.9-2.1-4.2-2.1-6.6
	c0-2.7,0.9-5.1,2.4-7.1l40.4-71.4c2.1-3.2,5.6-5.3,9.7-5.3h40.9c6.4,0,11.6,5.2,11.6,11.6c0,2.4-0.7,4.6-2,6.5l-33.4,57.9
	c-1.8,2.1-2.8,4.7-2.8,7.6c0,2.4,0.7,4.6,2,6.5l34.1,58.9c1.5,2,2.4,4.4,2.4,7.1C274.8,286.9,269.6,292.1,263.2,292.1L263.2,292.1z"
	/>
<g id="Kohort-K3-Wordmark_1_" transform="translate(0.000000, 93.447853)">
	<path class="st1" d="M547.7,134.6l-19.8,21.4v52.9h-38.1V23.7h38.1v83.9l16.8-23l47.2-60.9h46.9L573,106l67.6,102.8h-45.4
		L547.7,134.6z M634.6,138.8c0-10,1.4-19.3,4.3-27.8s7.1-16,12.6-22.2s12.3-11.1,20.4-14.7s17.3-5.3,27.7-5.3
		c10.4,0,19.7,1.8,27.8,5.3s15,8.5,20.5,14.7s9.8,13.6,12.6,22.2s4.3,17.8,4.3,27.8v2.7c0,10.1-1.4,19.4-4.3,27.9
		c-2.9,8.5-7.1,15.9-12.6,22.1c-5.6,6.2-12.4,11.1-20.4,14.6c-8.1,3.5-17.3,5.3-27.7,5.3s-19.7-1.8-27.8-5.3
		c-8.1-3.5-14.9-8.4-20.5-14.6c-5.6-6.2-9.8-13.6-12.6-22.1c-2.9-8.5-4.3-17.8-4.3-27.9V138.8z M671.4,141.4
		c0,5.6,0.5,10.8,1.5,15.8c1,4.9,2.6,9.2,4.9,12.8c2.2,3.6,5.2,6.5,8.8,8.6c3.6,2.1,8,3.2,13.3,3.2c5.1,0,9.4-1.1,13-3.2
		s6.5-5,8.8-8.6c2.3-3.6,3.9-7.9,5-12.8c1-4.9,1.5-10.2,1.5-15.8v-2.7c0-5.4-0.5-10.6-1.5-15.4s-2.7-9.2-5-12.8
		c-2.3-3.7-5.3-6.6-8.9-8.8c-3.6-2.2-8.1-3.2-13.2-3.2c-5.1,0-9.4,1.1-13,3.2c-3.6,2.2-6.5,5.1-8.8,8.8c-2.2,3.7-3.9,8-4.9,12.8
		c-1,4.9-1.5,10-1.5,15.4V141.4z M823.4,86.3c4.6-5.5,9.9-9.8,16.1-12.9c6.1-3.1,13-4.6,20.7-4.6c6.8,0,13,1,18.6,2.9
		s10.4,5,14.4,9.3c4,4.3,7.1,9.8,9.2,16.6c2.2,6.8,3.2,15,3.2,24.7v86.7h-36.7v-87c0-4.4-0.5-8.1-1.5-11.1c-1-3-2.4-5.4-4.3-7.2
		c-1.9-1.8-4.2-3.1-6.9-3.9c-2.8-0.8-5.9-1.1-9.3-1.1c-5.8,0-10.6,1.1-14.4,3.4c-3.8,2.2-6.8,5.3-9,9.1v97.8h-36.7V13.5h36.7V86.3z
		 M927.5,138.8c0-10,1.4-19.3,4.3-27.8s7.1-16,12.6-22.2c5.5-6.2,12.3-11.1,20.4-14.7s17.3-5.3,27.7-5.3c10.4,0,19.7,1.8,27.8,5.3
		s15,8.5,20.5,14.7c5.6,6.2,9.8,13.6,12.6,22.2s4.3,17.8,4.3,27.8v2.7c0,10.1-1.4,19.4-4.3,27.9c-2.9,8.5-7.1,15.9-12.6,22.1
		c-5.6,6.2-12.4,11.1-20.4,14.6c-8.1,3.5-17.3,5.3-27.7,5.3s-19.7-1.8-27.8-5.3c-8.1-3.5-14.9-8.4-20.5-14.6
		c-5.6-6.2-9.8-13.6-12.6-22.1c-2.9-8.5-4.3-17.8-4.3-27.9V138.8z M964.3,141.4c0,5.6,0.5,10.8,1.5,15.8c1,4.9,2.6,9.2,4.9,12.8
		c2.2,3.6,5.2,6.5,8.8,8.6c3.6,2.1,8,3.2,13.3,3.2c5.1,0,9.4-1.1,13-3.2c3.6-2.1,6.5-5,8.8-8.6c2.3-3.6,3.9-7.9,5-12.8
		c1-4.9,1.5-10.2,1.5-15.8v-2.7c0-5.4-0.5-10.6-1.5-15.4s-2.7-9.2-5-12.8c-2.3-3.7-5.3-6.6-8.9-8.8c-3.6-2.2-8.1-3.2-13.2-3.2
		c-5.1,0-9.4,1.1-13,3.2c-3.6,2.2-6.5,5.1-8.8,8.8c-2.2,3.7-3.9,8-4.9,12.8c-1,4.9-1.5,10-1.5,15.4V141.4z M1157.8,105.7
		c-1.9-0.3-4-0.5-6.5-0.7c-2.5-0.2-4.7-0.3-6.7-0.3c-7.2,0-13,1.2-17.5,3.6s-7.7,5.9-9.9,10.5v90h-36.7V71.3h34.7l1,16.4
		c3.5-5.9,7.8-10.6,12.8-13.9c5.1-3.3,11-5,17.8-5c1.9,0,4,0.2,6.2,0.5c2.2,0.3,3.9,0.7,5.3,1.1L1157.8,105.7z M1211.3,37.4v33.8
		h23.5v27h-23.5v68.6c0,2.9,0.3,5.3,0.9,7.1c0.6,1.9,1.5,3.3,2.7,4.4c1.2,1.1,2.6,1.8,4.4,2.2c1.7,0.4,3.8,0.6,6.2,0.6
		c2.2,0,4.2-0.1,6-0.3c1.8-0.2,3.4-0.4,4.8-0.6v27.8c-3.1,0.9-6.4,1.7-10,2.4c-3.6,0.6-7.7,1-12.3,1c-6,0-11.4-0.7-16.3-2.2
		c-4.8-1.5-9-3.8-12.4-7.1s-6.1-7.4-7.9-12.6c-1.9-5.2-2.8-11.4-2.8-18.7V98.2V99V71.3V37.4H1211.3z"/>
</g>
</svg>
