<?xml version="1.0" encoding="utf-8"?>
<!-- Generator: Adobe Illustrator 24.0.1, SVG Export Plug-In . SVG Version: 6.00 Build 0)  -->
<svg version="1.1" id="Layer_1" xmlns="http://www.w3.org/2000/svg" xmlns:xlink="http://www.w3.org/1999/xlink" x="0px" y="0px"
	 viewBox="0 0 331 659" style="enable-background:new 0 0 331 659;" xml:space="preserve">
<style type="text/css">
	.st0{fill:#4D4D4D;}
</style>
<g>
	<g>
		<path class="st0" d="M282,0H49C21.9,0,0,21.9,0,49v561c0,27.1,21.9,49,49,49h233c27.1,0,49-21.9,49-49V49C331,21.9,309.1,0,282,0z
			 M309,610c0,17.7-14.3,32-32,32H52c-17.7,0-32-14.3-32-32V50c0-17.7,14.3-32,32-32h32v11c0,7.7,6.3,14,14,14h133
			c7.7,0,14-6.3,14-14V18h32c17.7,0,32,14.3,32,32V610z"/>
	</g>
</g>
</svg>
