<?xml version="1.0" encoding="utf-8"?>
<!-- Generator: Adobe Illustrator 24.0.3, SVG Export Plug-In . SVG Version: 6.00 Build 0)  -->
<svg version="1.1" id="Layer_1" xmlns="http://www.w3.org/2000/svg" xmlns:xlink="http://www.w3.org/1999/xlink" x="0px" y="0px"
	 viewBox="0 0 347.3 481.4" style="enable-background:new 0 0 347.3 481.4;" xml:space="preserve">
<style type="text/css">
	.st0{fill:#7D30CC;}
	.st1{fill:#39364F;}
	.st2{fill:#FFFFFF;stroke:#FFFFFF;stroke-width:0.5;stroke-miterlimit:10;}
</style>
<g>
	<path class="st0" d="M188.6,290.7v188.6h142.2V290.7c0-29.5-22.8-37-22.8-37.1l-58.4-27.3c-7.9-3.7-12.7-8.7-15.6-13.8l-45.4-2
		V290.7z"/>
	<path class="st0" d="M289.2,193.7c0,11.5,9.3,20.8,20.8,20.8s20.8-9.3,20.8-20.8V191c0-39.3-31.8-71.1-71.1-71.1
		c-31.5,0-58.1,20.4-67.5,48.7l54.3-1.5c4-2,8.4-3.1,13.1-3.1C276,164.1,289.2,177.3,289.2,193.7z"/>
</g>
<path class="st1" d="M249.8,90.6c-17,0-30.9-13.8-30.9-30.9s13.8-30.9,30.9-30.9c17,0,30.9,13.8,30.9,30.9S266.8,90.6,249.8,90.6z
	 M249.8,34.9c-13.7,0-24.9,11.1-24.9,24.9s11.1,24.9,24.9,24.9c13.8,0,24.9-11.1,24.9-24.9S263.5,34.9,249.8,34.9z"/>
<path class="st1" d="M317.4,3.7H182.1c-15.3,0-27.7,12.4-27.7,27.7v135l-137.8,4.1c-7.6,0-13.8,6.2-13.8,13.8v11.4
	c0,7.6,6.2,13.8,13.7,13.8l137.9,4.1V289c0,12.8,9,24,21.2,27v155.2c0,1.7,1.3,3,3,3H321c1.7,0,3-1.3,3-3V316.1
	c12.3-3,21.2-14.1,21.2-27V31.5C345.1,16.2,332.6,3.7,317.4,3.7z M175.9,309.8c-8.9-2.8-15.2-11.2-15.2-20.7v-75.3l15.2,0.5V309.8z
	 M175.9,208.3l-15.2-0.5l-6.2-0.2l-137.8-4.1c-4.3,0-7.8-3.5-7.8-7.8v-11.4c0-4.3,3.5-7.8,7.9-7.8l137.7-4.1l6.2-0.2l16.1-0.5
	l5.9-0.2l38.2-1.1l7.4-0.2l42.2-1.3l3.8-0.1c1.4,0,2.7,0.4,3.9,1.1c2.3,1.4,3.9,3.9,3.8,6.8v4.6v19.5v2.5c0,4.3-3.5,7.8-7.7,7.8
	l-43-1.3l-8.1-0.2l-41.5-1.2L175.9,208.3z M274.1,162.8L274.1,162.8h-1.3c-5.9-6-14.1-9.7-23.2-9.7c-9.8,0-18.6,4.3-24.5,11.2
	l-41.2,1.2c7.8-29.1,34.3-50.6,65.8-50.6c37.6,0,68.1,30.6,68.1,68.1v2.7c0,9.8-8,17.8-17.8,17.8c-4.7,0-8.9-1.8-12.1-4.8v-22.1
	C288,169,281.8,162.8,274.1,162.8z M263.9,163.1l-29.4,0.9c4.3-3.1,9.6-4.9,15.4-4.9C255,159.1,259.8,160.6,263.9,163.1z
	 M317.8,313.2c0,0.3,0,0.5,0,0.8v154.2H181.6V214.4l47.1,1.4c2.6,2.3,5.8,4.4,9.6,6.2l58.4,27.3c0.1,0.1,0.2,0.1,0.3,0.1
	c0.2,0.1,20.7,7.1,20.7,34.2L317.8,313.2L317.8,313.2z M339.2,289.1h-0.1c0,9.6-6.3,17.9-15.2,20.7v-26.1
	c0-29.7-22.2-38.9-24.6-39.8L241,216.6c-0.3-0.1-0.6-0.3-0.8-0.4l33.9,1c6.8,0,12.4-4.8,13.6-11.3c3.6,2.3,7.9,3.6,12.5,3.6
	c13.1,0,23.8-10.7,23.8-23.8V183c0-40.9-33.3-74.1-74.1-74.1c-34.9,0-64.2,24.3-72,56.8l-17.3,0.5V31.5c0-12,9.8-21.7,21.7-21.7
	h135.2c12,0,21.7,9.8,21.7,21.7V289.1z"/>
<path class="st1" d="M257.3,53.3c0-4.1-3.4-7.5-7.5-7.5s-7.5,3.4-7.5,7.5c0,2.8,1.6,5.3,3.9,6.6l-2,14h11.3l-2-14
	C255.7,58.6,257.3,56.1,257.3,53.3z"/>
<g>
	<path class="st2" d="M231.5,351.2c0,0.7-0.1,1.5-0.2,2.2c-0.1,0.7-0.3,1.5-0.4,2.2c-0.2,0.7-0.3,1.4-0.5,2.1s-0.4,1.4-0.8,2
		c-0.6,1.1-1.2,2.1-2,3.2c-0.7,1.1-1.6,1.9-2.7,2.6c-0.9,0.6-2,1-3.1,1.2c-1.1,0.1-2.2,0.1-3.3-0.1c-1.3-0.2-2.5-0.7-3.5-1.4
		c-1-0.7-2-1.5-2.9-2.3c-0.3,0.5-0.7,1-1.1,1.5c-0.4,0.5-0.9,0.9-1.4,1.3s-1,0.7-1.6,0.9c-0.6,0.2-1.2,0.3-1.9,0.3
		c-0.6,0-1.2-0.1-1.8-0.3s-1.2-0.4-1.7-0.7c-0.5-0.3-0.9-0.7-1.3-1.2c-0.3-0.5-0.5-1.1-0.6-1.7s0-1.2,0.2-1.7s0.5-1,0.8-1.4
		s0.8-0.8,1.3-1.1c0.5-0.3,1.1-0.5,1.6-0.7c0.6-0.2,1.3-0.2,1.9-0.1c0.6,0.1,1.2,0.2,1.8,0.4c0.6,0.2,1.2,0.5,1.7,0.9
		s1.1,0.8,1.5,1.2c0.7-1.7,1.3-3.5,1.7-5.3s0.9-3.6,1.4-5.5c0.2-0.8,0.4-1.7,0.6-2.5c0.2-0.9,0.4-1.7,0.7-2.6c0.3-0.8,0.6-1.6,1-2.4
		s0.9-1.5,1.5-2.1c-1.3,0-2.7,0.2-4,0.5s-2.6,0.9-3.7,1.6c-1.1,0.7-1.9,1.6-2.5,2.6c-0.6,1.1-1.1,2.2-1.5,3.4
		c-0.1,0.5-0.2,1.1-0.2,1.8c0,0.7,0.1,1.3,0.2,1.8c0.2,0.6,0.5,1.1,0.9,1.2c0.4,0.2,0.8,0.3,1.4,0.5c0.3,0.1,0.5,0.2,0.6,0.4
		c0.1,0.2,0.2,0.3,0.2,0.5s-0.1,0.4-0.3,0.5s-0.4,0.3-0.7,0.3c-0.5,0.1-1,0-1.4-0.3c-0.5-0.3-0.9-0.6-1.2-0.9
		c-0.9-0.9-1.4-2-1.5-3.2s0-2.5,0.4-3.7s1-2.4,1.7-3.5s1.5-2,2.4-2.6c1.8-1.4,3.9-2.2,6.2-2.5s4.5-0.1,6.7,0.5
		c0.6,0.2,1.3,0.5,2,0.7s1.4,0.6,2,1s1.1,0.8,1.6,1.3s0.9,1,1.3,1.6c0.8,1.1,1.4,2.3,1.7,3.6C231.4,348.5,231.5,349.9,231.5,351.2z
		 M205,359.8c-0.5,0.1-0.9,0.3-1.3,0.6c-0.4,0.3-0.7,0.7-0.9,1.1s-0.3,0.8-0.3,1.3s0.2,0.9,0.6,1.3c0.5,0.6,1.2,0.9,2.1,0.9
		c0.9,0,1.6-0.1,2.3-0.4c0.8-0.3,1.4-0.7,1.9-1.3c0.5-0.6,0.9-1.1,1.4-1.7c-0.8-0.8-1.7-1.4-2.7-1.7C207,359.6,206,359.5,205,359.8z
		 M229.8,351.2c0-1.1-0.1-2.3-0.4-3.3c-0.3-1.1-0.8-2.1-1.4-3c-0.6-0.8-1.2-1.5-1.9-2.1s-1.5-1.1-2.3-1.6c-0.6-0.4-1.2-0.6-1.8-0.7
		s-1.1-0.1-1.3,0.1c-0.5,0.4-1,1-1.4,1.7s-0.7,1.5-1,2.3s-0.5,1.6-0.7,2.4s-0.4,1.5-0.5,2c-0.3,1.2-0.7,2.4-1,3.8
		c-0.4,1.4-0.7,2.6-0.9,3.8c-0.2,0.9-0.5,1.8-0.8,2.6c-0.3,0.8-0.6,1.6-0.9,2.3c0.5,0.8,1.2,1.4,2,1.9s1.6,0.9,2.4,1.2
		c1.1,0.3,2.1,0.5,3.1,0.5s2-0.3,3-0.9s1.8-1.3,2.6-2.2c0.7-0.9,1.3-1.9,1.8-3c0.3-0.6,0.5-1.2,0.7-1.8c0.2-0.6,0.5-1.3,0.7-1.9
		s0.3-1.3,0.3-2C229.8,352.5,229.8,351.8,229.8,351.2z"/>
	<path class="st2" d="M233.3,359.6c0.1-0.5,0.2-1.2,0.4-1.9c0.1-0.7,0.3-1.5,0.5-2.3s0.5-1.6,0.9-2.3c0.4-0.8,0.9-1.4,1.5-2
		c0.5-0.4,1-0.8,1.7-1s1.3-0.4,2-0.4s1.3,0.2,1.9,0.5c0.6,0.3,1.1,0.8,1.5,1.4c0.4,0.7,0.7,1.5,0.7,2.3s0,1.6-0.2,2.5
		s-0.4,1.7-0.6,2.5c-0.2,0.8-0.4,1.6-0.6,2.3c-0.2,0.7-0.4,1.4-0.8,2.1c-0.3,0.7-0.7,1.3-1.2,1.9s-1.1,1-1.7,1.4
		c-0.6,0.4-1.4,0.5-2.1,0.5c-0.7,0-1.4-0.2-2-0.5s-1.1-0.8-1.5-1.3c-0.6-1-0.9-1.9-0.9-2.8C232.9,361.5,233.1,360.6,233.3,359.6z
		 M236.1,354.9c-0.2,0.8-0.4,1.7-0.6,2.5s-0.4,1.7-0.6,2.6c-0.1,0.3-0.2,0.7-0.3,1.1s-0.2,0.8-0.2,1.1c0,0.4,0,0.7,0,1.1
		c0.1,0.4,0.2,0.7,0.4,1c0.4,0.6,0.9,1,1.6,1.1c0.6,0.1,1.3,0,1.9-0.3c0.7-0.3,1.3-0.8,1.7-1.4s0.8-1.2,1-1.9
		c0.3-0.8,0.5-1.6,0.7-2.3c0.2-0.8,0.3-1.6,0.5-2.4c0.1-0.8,0.3-1.5,0.4-2.3c0.1-0.7-0.1-1.5-0.6-2.2c-0.3-0.5-0.8-0.8-1.3-0.9
		c-0.6-0.1-1.1-0.1-1.6,0c-0.4,0.1-0.8,0.4-1.2,0.7c-0.4,0.3-0.7,0.6-0.9,1c-0.3,0.3-0.5,0.7-0.7,1
		C236.3,354.5,236.2,354.7,236.1,354.9z"/>
	<path class="st2" d="M226,406.6c0.1-0.4,0.2-0.7,0.3-1s0.2-0.7,0.3-1c0.2-0.8,0.3-1.6,0.5-2.3c0.1-0.8,0.3-1.5,0.5-2.3
		c0.4-1.5,0.7-3,1.1-4.5s0.7-3,1-4.6c0.1-0.7,0.2-1.4,0.3-2.1s0-1.4-0.1-2.1c-0.1-0.8-0.3-1.4-0.7-1.8c-0.4-0.5-0.8-0.9-1.5-1.3
		c-0.5-0.3-1.1-0.5-1.7-0.5c-0.6,0-1.2,0-1.8,0c-0.8,0.1-1.4,0.3-2.1,0.6s-1.2,0.7-1.8,1.2c-1.1,1-1.9,2.1-2.3,3.5
		c-0.5,1.4-0.9,2.7-1.2,4.1c-0.4,1.6-0.8,3.2-1.2,4.7c-0.4,1.6-0.8,3.1-1.1,4.8c-0.1,0.6-0.3,1.3-0.4,2c-0.1,0.7-0.3,1.3-0.4,2
		c-0.1,0.3-0.2,0.6-0.3,0.9s-0.3,0.6-0.3,0.9c-0.1,0.3-0.1,0.6-0.1,0.9s-0.2,0.6-0.5,0.8c-0.5,0.3-0.9,0.3-1.2-0.2
		c-0.1-0.3-0.2-0.5-0.1-0.8c0.1-0.3,0.2-0.6,0.2-0.8c0.2-0.7,0.4-1.5,0.5-2.2s0.3-1.5,0.5-2.2c0.4-1.5,0.7-3.1,1.1-4.6
		c0.3-1.5,0.7-3,1.1-4.6c0.1-0.6,0.3-1.2,0.4-1.8c0.1-0.6,0.3-1.2,0.5-1.8c0.2-0.8,0.4-1.7,0.5-2.5c0.1-0.9,0.1-1.7,0-2.5
		c-0.1-0.7-0.4-1.3-0.7-1.8c-0.4-0.5-0.8-0.9-1.3-1.3s-1.1-0.6-1.7-0.8s-1.3-0.3-1.9-0.3c-1.4,0-2.8,0.2-4,0.8
		c-1.2,0.6-2.2,1.5-3,2.7c-0.6,0.9-0.9,2-0.9,3.2s0.2,2.3,0.7,3.2c0.3,0.5,0.7,0.9,1.1,1.3s1,0.7,1.5,0.8c0.5,0.2,1.1,0.3,1.6,0.2
		c0.6,0,1.1-0.3,1.6-0.7c0.5-0.4,0.8-0.8,0.9-1.2c0.1-0.4,0.2-0.9,0.3-1.4c0.1-0.4,0.2-0.7,0.4-0.8c0.2-0.1,0.4-0.1,0.6,0
		s0.4,0.3,0.5,0.5c0.2,0.3,0.2,0.6,0.2,0.9c-0.1,0.6-0.3,1.2-0.6,1.7s-0.8,1-1.3,1.4s-1.1,0.7-1.7,0.9c-0.6,0.2-1.2,0.3-1.8,0.3
		c-0.7-0.1-1.4-0.3-2.1-0.6s-1.3-0.8-1.8-1.3s-0.9-1.1-1.3-1.8c-0.3-0.7-0.5-1.4-0.6-2.1c-0.1-1.5,0.1-3,0.6-4.5s1.5-2.6,2.8-3.5
		c0.6-0.4,1.3-0.8,2.1-1.2c0.7-0.4,1.5-0.6,2.2-0.7c1.3-0.1,2.5,0,3.8,0.3s2.5,0.9,3.5,1.8c1,1,1.5,2.1,1.7,3.5
		c0.5-0.8,1.2-1.4,1.9-2s1.5-1,2.4-1.4s1.7-0.5,2.6-0.6c0.9-0.1,1.8,0.1,2.8,0.3c0.8,0.3,1.5,0.6,2.2,1.1c0.6,0.5,1.2,1.1,1.6,1.9
		c0.4,0.9,0.6,1.9,0.6,2.9c0,0.7-0.1,1.4-0.2,2.1c-0.1,0.7-0.2,1.3-0.4,2c-0.2,0.6-0.3,1.3-0.5,1.9s-0.3,1.3-0.4,1.9
		c0,0.3-0.1,0.6-0.1,1c-0.1,0.4-0.1,0.7-0.2,1.1s-0.2,0.7-0.3,1.1s-0.2,0.7-0.2,0.9c-0.2,0.7-0.4,1.5-0.6,2.2
		c-0.2,0.7-0.4,1.5-0.5,2.2s-0.3,1.4-0.5,2.1s-0.4,1.4-0.5,2.1c-0.1,0.2-0.1,0.5-0.2,0.8c-0.1,0.3-0.1,0.6-0.1,1c0,0.3,0,0.6,0,0.9
		s0.2,0.5,0.4,0.7c0.1,0.1,0.3,0.2,0.5,0.3c0.2,0.1,0.4,0.2,0.6,0.4s0.3,0.3,0.3,0.5s-0.1,0.4-0.4,0.6c-0.2,0.2-0.5,0.3-0.7,0.3
		s-0.5,0-0.7-0.1s-0.4-0.3-0.6-0.4c-0.2-0.2-0.3-0.4-0.5-0.5c-0.3-0.4-0.5-0.8-0.5-1.3s-0.1-1,0-1.6c0-0.5,0.1-1.1,0.2-1.6
		C225.8,407.4,225.9,407,226,406.6z"/>
	<path class="st2" d="M232.3,402.6c0.1-0.5,0.2-1.2,0.4-1.9c0.1-0.7,0.3-1.5,0.5-2.3s0.5-1.6,0.9-2.3c0.4-0.8,0.9-1.4,1.5-2
		c0.5-0.4,1-0.8,1.7-1s1.3-0.4,2-0.4s1.3,0.2,1.9,0.5c0.6,0.3,1.1,0.8,1.5,1.4c0.4,0.7,0.7,1.5,0.7,2.3s0,1.6-0.2,2.5
		s-0.4,1.7-0.6,2.5c-0.2,0.8-0.4,1.6-0.6,2.3c-0.2,0.7-0.4,1.4-0.8,2.1c-0.3,0.7-0.7,1.3-1.2,1.9s-1.1,1-1.7,1.4
		c-0.6,0.4-1.4,0.5-2.1,0.5c-0.7,0-1.4-0.2-2-0.5s-1.1-0.8-1.5-1.3c-0.6-1-0.9-1.9-0.9-2.8C232,404.5,232.1,403.6,232.3,402.6z
		 M235.2,397.9c-0.2,0.8-0.4,1.7-0.6,2.5s-0.4,1.7-0.6,2.6c-0.1,0.3-0.2,0.7-0.3,1.1s-0.2,0.8-0.2,1.1c0,0.4,0,0.7,0,1.1
		c0.1,0.4,0.2,0.7,0.4,1c0.4,0.6,0.9,1,1.6,1.1c0.6,0.1,1.3,0,1.9-0.3c0.7-0.3,1.3-0.8,1.7-1.4s0.8-1.2,1-1.9
		c0.3-0.8,0.5-1.6,0.7-2.3c0.2-0.8,0.3-1.6,0.5-2.4c0.1-0.8,0.3-1.5,0.4-2.3c0.1-0.7-0.1-1.5-0.6-2.2c-0.3-0.5-0.8-0.8-1.3-0.9
		c-0.6-0.1-1.1-0.1-1.6,0c-0.4,0.1-0.8,0.4-1.2,0.7c-0.4,0.3-0.7,0.6-0.9,1c-0.3,0.3-0.5,0.7-0.7,1
		C235.3,397.5,235.2,397.7,235.2,397.9z"/>
	<path class="st2" d="M246.6,394.8c-0.3,0-0.6-0.2-0.8-0.5s-0.1-0.6,0.2-0.8c0.2-0.1,0.4-0.2,0.7-0.2s0.5,0,0.7,0s0.4,0,0.6,0
		c0.2,0,0.5,0,0.7,0c0.1-0.3,0.1-0.6,0.2-0.9c0.1-0.3,0.1-0.6,0.2-0.8c0.1-0.1,0.1-0.3,0.1-0.5s0.1-0.4,0.2-0.7
		c0.1-0.2,0.2-0.4,0.3-0.6s0.3-0.3,0.5-0.4s0.4,0,0.6,0.1c0.2,0.2,0.3,0.3,0.4,0.5c0.1,0.3,0,0.6-0.2,0.9s-0.3,0.6-0.4,0.9
		c-0.1,0.2-0.1,0.4-0.1,0.6s-0.1,0.4-0.1,0.7c0.4,0,0.9,0.1,1.2,0.1c0.4,0,0.7,0,0.9,0c0.1,0,0.4,0,0.7-0.1c0.3,0,0.6,0,0.9,0.1
		c0.3,0.1,0.5,0.2,0.6,0.4c0.1,0.2,0,0.5-0.2,0.9c-0.1,0.2-0.4,0.3-0.7,0.4c-0.3,0-0.7,0-1.1,0c-0.4,0-0.8-0.1-1.2-0.1
		s-0.8-0.1-1.1-0.1c-0.1,0.2-0.2,0.4-0.3,0.7c-0.1,0.3-0.2,0.6-0.3,0.9s-0.2,0.6-0.2,0.9c-0.1,0.3-0.1,0.5-0.1,0.7
		c-0.2,0.8-0.4,1.6-0.6,2.4s-0.4,1.6-0.5,2.4c-0.1,0.3-0.1,0.7-0.1,1.1s-0.1,0.8,0,1.3c0,0.4,0.1,0.8,0.2,1.2c0.1,0.4,0.3,0.7,0.5,1
		c0.3,0.3,0.6,0.5,0.9,0.5c0.3,0.1,0.7,0.1,1.1,0s0.7-0.2,1.1-0.3c0.3-0.2,0.7-0.4,0.9-0.5c0.5-0.4,0.9-0.8,1.2-1.3s0.5-1,0.7-1.6
		c0.1-0.2,0.2-0.4,0.3-0.7c0.1-0.3,0.2-0.5,0.3-0.7s0.3-0.3,0.4-0.4c0.2-0.1,0.4-0.1,0.5,0s0.2,0.2,0.3,0.4c0,0.2,0,0.4,0,0.6
		s-0.1,0.4-0.1,0.6c-0.1,0.2-0.1,0.4-0.2,0.5c-0.3,0.6-0.5,1.2-0.8,1.8s-0.6,1.2-1,1.6c-0.6,0.6-1.1,1-1.8,1.2
		c-0.6,0.2-1.3,0.4-2.1,0.5c-0.7,0.1-1.3,0-1.8-0.2s-0.9-0.4-1.2-0.8c-0.3-0.3-0.6-0.8-0.8-1.3s-0.3-1.1-0.4-1.6
		c-0.1-0.8,0-1.7,0.1-2.8c0.2-1,0.4-1.9,0.6-2.7c0.3-0.9,0.6-1.8,0.7-2.8c0.2-1,0.4-1.9,0.6-2.8c-0.3-0.1-0.5-0.1-0.8-0.1
		C247.2,394.8,246.9,394.8,246.6,394.8z"/>
	<path class="st2" d="M231.5,437.2c0,0.7-0.1,1.5-0.2,2.2c-0.1,0.7-0.3,1.5-0.4,2.2c-0.2,0.7-0.3,1.4-0.5,2.1s-0.4,1.4-0.8,2
		c-0.6,1.1-1.2,2.1-2,3.2c-0.7,1.1-1.6,1.9-2.7,2.6c-0.9,0.6-2,1-3.1,1.2c-1.1,0.1-2.2,0.1-3.3-0.1c-1.3-0.2-2.5-0.7-3.5-1.4
		c-1-0.7-2-1.5-2.9-2.3c-0.3,0.5-0.7,1-1.1,1.5c-0.4,0.5-0.9,0.9-1.4,1.3s-1,0.7-1.6,0.9c-0.6,0.2-1.2,0.3-1.9,0.3
		c-0.6,0-1.2-0.1-1.8-0.3s-1.2-0.4-1.7-0.7c-0.5-0.3-0.9-0.7-1.3-1.2c-0.3-0.5-0.5-1.1-0.6-1.7s0-1.2,0.2-1.7s0.5-1,0.8-1.4
		s0.8-0.8,1.3-1.1c0.5-0.3,1.1-0.5,1.6-0.7c0.6-0.2,1.3-0.2,1.9-0.1c0.6,0.1,1.2,0.2,1.8,0.4c0.6,0.2,1.2,0.5,1.7,0.9
		s1.1,0.8,1.5,1.2c0.7-1.7,1.3-3.5,1.7-5.3s0.9-3.6,1.4-5.5c0.2-0.8,0.4-1.7,0.6-2.5c0.2-0.9,0.4-1.7,0.7-2.6c0.3-0.8,0.6-1.6,1-2.4
		s0.9-1.5,1.5-2.1c-1.3,0-2.7,0.2-4,0.5s-2.6,0.9-3.7,1.6c-1.1,0.7-1.9,1.6-2.5,2.6c-0.6,1.1-1.1,2.2-1.5,3.4
		c-0.1,0.5-0.2,1.1-0.2,1.8c0,0.7,0.1,1.3,0.2,1.8c0.2,0.6,0.5,1.1,0.9,1.2c0.4,0.2,0.8,0.3,1.4,0.5c0.3,0.1,0.5,0.2,0.6,0.4
		c0.1,0.2,0.2,0.3,0.2,0.5s-0.1,0.4-0.3,0.5s-0.4,0.3-0.7,0.3c-0.5,0.1-1,0-1.4-0.3c-0.5-0.3-0.9-0.6-1.2-0.9
		c-0.9-0.9-1.4-2-1.5-3.2s0-2.5,0.4-3.7s1-2.4,1.7-3.5s1.5-2,2.4-2.6c1.8-1.4,3.9-2.2,6.2-2.5s4.5-0.1,6.7,0.5
		c0.6,0.2,1.3,0.5,2,0.7s1.4,0.6,2,1s1.1,0.8,1.6,1.3s0.9,1,1.3,1.6c0.8,1.1,1.4,2.3,1.7,3.6C231.4,434.5,231.5,435.9,231.5,437.2z
		 M205,445.8c-0.5,0.1-0.9,0.3-1.3,0.6c-0.4,0.3-0.7,0.7-0.9,1.1s-0.3,0.8-0.3,1.3s0.2,0.9,0.6,1.3c0.5,0.6,1.2,0.9,2.1,0.9
		c0.9,0,1.6-0.1,2.3-0.4c0.8-0.3,1.4-0.7,1.9-1.3c0.5-0.6,0.9-1.1,1.4-1.7c-0.8-0.8-1.7-1.4-2.7-1.7C207,445.6,206,445.5,205,445.8z
		 M229.8,437.2c0-1.1-0.1-2.3-0.4-3.3c-0.3-1.1-0.8-2.1-1.4-3c-0.6-0.8-1.2-1.5-1.9-2.1s-1.5-1.1-2.3-1.6c-0.6-0.4-1.2-0.6-1.8-0.7
		s-1.1-0.1-1.3,0.1c-0.5,0.4-1,1-1.4,1.7s-0.7,1.5-1,2.3s-0.5,1.6-0.7,2.4s-0.4,1.5-0.5,2c-0.3,1.2-0.7,2.4-1,3.8
		c-0.4,1.4-0.7,2.6-0.9,3.8c-0.2,0.9-0.5,1.8-0.8,2.6c-0.3,0.8-0.6,1.6-0.9,2.3c0.5,0.8,1.2,1.4,2,1.9s1.6,0.9,2.4,1.2
		c1.1,0.3,2.1,0.5,3.1,0.5s2-0.3,3-0.9s1.8-1.3,2.6-2.2c0.7-0.9,1.3-1.9,1.8-3c0.3-0.6,0.5-1.2,0.7-1.8c0.2-0.6,0.5-1.3,0.7-1.9
		s0.3-1.3,0.3-2C229.8,438.5,229.8,437.8,229.8,437.2z"/>
	<path class="st2" d="M235,438.1c0.1-0.3,0.2-0.7,0.3-1c0.1-0.4,0.3-0.7,0.6-0.9c0.2-0.1,0.4-0.2,0.5-0.1s0.3,0.1,0.4,0.3
		c0.1,0.1,0.2,0.3,0.2,0.5s0,0.4,0,0.5c-0.2,1-0.4,1.9-0.7,2.8s-0.5,1.9-0.6,2.9c-0.1,0.5-0.2,1-0.3,1.5s-0.2,0.9-0.3,1.4
		s-0.2,0.9-0.2,1.4s0,1,0.2,1.5c0.2,0.9,0.6,1.5,1.3,1.9s1.4,0.4,2.2-0.1c0.4-0.2,0.8-0.5,1.1-0.8c0.4-0.3,0.7-0.6,0.9-1
		c0.3-0.5,0.5-0.9,0.7-1.3s0.3-0.9,0.4-1.4c0-0.2,0.1-0.3,0.2-0.5c0.1-0.2,0.2-0.3,0.3-0.5s0.2-0.2,0.4-0.3c0.1,0,0.3,0,0.4,0.1
		c0.2,0.2,0.3,0.5,0.2,0.9s-0.1,0.7-0.1,1c-0.1,0.9-0.4,1.8-0.9,2.6c-0.5,0.8-1.1,1.5-1.9,2c-0.4,0.3-0.9,0.5-1.4,0.7
		s-1,0.3-1.6,0.3s-1,0-1.6-0.2c-0.5-0.2-1-0.4-1.4-0.9c-0.4-0.4-0.7-1-0.9-1.5c-0.2-0.6-0.3-1.2-0.3-1.7s0-1.2,0-1.7
		c0.1-0.6,0.1-1.1,0.2-1.5c0-0.1,0.1-0.4,0.2-0.9c0.1-0.5,0.3-1.2,0.5-1.9c0.2-0.7,0.3-1.4,0.5-2.2
		C234.7,439.3,234.9,438.6,235,438.1z M238.4,433.7c-0.1,0.6-0.4,0.9-0.7,1.1c-0.4,0.2-0.7,0.2-1.1,0.1s-0.7-0.4-0.9-0.7
		c-0.2-0.4-0.3-0.8-0.1-1.4c0.1-0.3,0.3-0.5,0.7-0.7c0.3-0.1,0.7-0.2,1-0.1s0.6,0.2,0.9,0.5C238.4,432.8,238.5,433.2,238.4,433.7z"
		/>
	<path class="st2" d="M239.9,447.5c0.1-0.1,0.1-0.2,0.2-0.3s0.2-0.1,0.3-0.2c0.1,0,0.2,0,0.3,0.1s0.2,0.2,0.3,0.5
		c0.1-0.4,0.1-0.7,0.3-1c0.1-0.3,0.2-0.6,0.3-1c0.3-0.8,0.4-1.6,0.6-2.5s0.3-1.7,0.6-2.5s0.5-1.6,0.6-2.5s0.5-1.6,0.9-2.3
		c0.1-0.2,0.3-0.4,0.6-0.7c0.2-0.2,0.5-0.2,0.7,0s0.3,0.6,0.2,1s-0.1,0.8-0.2,1.1c0,0.4,0.1,0.8,0.2,1.1c0.2,0.4,0.3,0.7,0.6,1
		c0.2,0.3,0.5,0.6,0.7,0.9c0.3,0.3,0.5,0.6,0.7,0.9c0.5,0.6,1,1.2,1.4,1.7s0.7,1.1,1,1.9c0.2,0.6,0.3,1.3,0.4,2c0,0.7,0,1.4-0.2,2
		s-0.4,1.2-0.8,1.8s-0.9,1-1.5,1.4c-0.8,0.4-1.6,0.7-2.4,0.8c-0.9,0.1-1.7,0-2.5-0.4c-0.4-0.2-0.9-0.5-1.2-0.8
		c-0.4-0.3-0.7-0.7-1-1.1s-0.5-0.8-0.7-1.2c-0.2-0.4-0.3-0.7-0.5-1c-0.1-0.1-0.1-0.3-0.1-0.4C239.8,447.7,239.8,447.6,239.9,447.5z
		 M249.2,446.9c0-0.8-0.2-1.5-0.5-2.1s-0.7-1.2-1.2-1.8c-0.5-0.6-1-1.1-1.4-1.7c-0.5-0.6-0.9-1.2-1.2-1.8c-0.4,0.9-0.7,1.9-0.9,2.9
		c-0.2,1.1-0.4,2.1-0.6,3c0,0.1-0.1,0.3-0.2,0.8c-0.1,0.4-0.2,0.9-0.3,1.3c-0.1,0.5-0.2,0.9-0.3,1.3s-0.1,0.6-0.1,0.7
		c0.3,0.5,0.7,0.9,1.1,1.1c0.4,0.2,0.8,0.4,1.3,0.4c0.4,0.1,0.8,0,1.2,0c0.4-0.1,0.7-0.2,1-0.4c0.6-0.4,1.2-0.9,1.5-1.6
		C249,448.3,249.2,447.6,249.2,446.9z"/>
	<path class="st2" d="M255,437.8c-0.3,0-0.6-0.2-0.8-0.5s-0.1-0.6,0.2-0.8c0.2-0.1,0.4-0.2,0.7-0.2s0.5,0,0.7,0s0.4,0,0.6,0
		s0.5,0,0.7,0c0.1-0.3,0.1-0.6,0.2-0.9s0.1-0.6,0.2-0.8c0.1-0.1,0.1-0.3,0.1-0.5s0.1-0.4,0.2-0.7c0.1-0.2,0.2-0.4,0.3-0.6
		c0.1-0.2,0.3-0.3,0.5-0.4s0.4,0,0.6,0.1c0.2,0.2,0.3,0.3,0.4,0.5c0.1,0.3,0,0.6-0.2,0.9s-0.3,0.6-0.4,0.9c-0.1,0.2-0.1,0.4-0.1,0.6
		s-0.1,0.4-0.1,0.7c0.4,0,0.9,0.1,1.2,0.1c0.4,0,0.7,0,0.9,0c0.1,0,0.4,0,0.7-0.1c0.3,0,0.6,0,0.9,0.1s0.5,0.2,0.6,0.4
		c0.1,0.2,0,0.5-0.2,0.9c-0.1,0.2-0.4,0.3-0.7,0.4c-0.3,0-0.7,0-1.1,0s-0.8-0.1-1.2-0.1s-0.8-0.1-1.1-0.1c-0.1,0.2-0.2,0.4-0.3,0.7
		c-0.1,0.3-0.2,0.6-0.3,0.9c-0.1,0.3-0.2,0.6-0.2,0.9c-0.1,0.3-0.1,0.5-0.1,0.7c-0.2,0.8-0.4,1.6-0.6,2.4s-0.4,1.6-0.5,2.4
		c-0.1,0.3-0.1,0.7-0.1,1.1s-0.1,0.8,0,1.3c0,0.4,0.1,0.8,0.2,1.2c0.1,0.4,0.3,0.7,0.5,1c0.3,0.3,0.6,0.5,0.9,0.5
		c0.3,0.1,0.7,0.1,1.1,0s0.7-0.2,1.1-0.3c0.3-0.2,0.7-0.4,0.9-0.5c0.5-0.4,0.9-0.8,1.2-1.3c0.3-0.5,0.5-1,0.7-1.6
		c0.1-0.2,0.2-0.4,0.3-0.7c0.1-0.3,0.2-0.5,0.3-0.7c0.1-0.2,0.3-0.3,0.4-0.4c0.2-0.1,0.4-0.1,0.5,0s0.2,0.2,0.3,0.4
		c0,0.2,0,0.4,0,0.6s-0.1,0.4-0.1,0.6c-0.1,0.2-0.1,0.4-0.2,0.5c-0.3,0.6-0.5,1.2-0.8,1.8s-0.6,1.2-1,1.6c-0.6,0.6-1.1,1-1.8,1.2
		c-0.6,0.2-1.3,0.4-2.1,0.5c-0.7,0.1-1.3,0-1.8-0.2s-0.9-0.4-1.2-0.8c-0.3-0.3-0.6-0.8-0.8-1.3s-0.3-1.1-0.4-1.6
		c-0.1-0.8,0-1.7,0.1-2.8c0.2-1,0.4-1.9,0.6-2.7c0.3-0.9,0.6-1.8,0.7-2.8c0.2-1,0.4-1.9,0.6-2.8c-0.3-0.1-0.5-0.1-0.8-0.1
		C255.5,437.8,255.3,437.8,255,437.8z"/>
	<path class="st2" d="M271,450.3c-0.6,0.7-1.1,1.4-1.7,1.9s-1.3,0.8-2.3,0.9c-0.8,0.1-1.6-0.1-2.2-0.6c-0.7-0.4-1.1-1.1-1.4-1.8
		c-0.3-0.9-0.5-1.9-0.4-2.8s0.2-1.9,0.5-2.8s0.5-1.9,0.8-2.8s0.5-1.8,0.7-2.8c0.1-0.4,0.1-0.9,0.2-1.4s0.2-0.9,0.4-1.3
		c0.2-0.4,0.5-0.6,0.9-0.6c0.3,0,0.6,0.2,0.7,0.7c0.1,0.4,0.1,0.8,0,1.3c-0.1,0.4-0.2,0.9-0.4,1.3l-0.9,3.3
		c-0.1,0.5-0.2,0.9-0.4,1.4c-0.1,0.4-0.3,0.9-0.4,1.4c-0.3,0.9-0.4,1.9-0.5,2.9c0,0.4,0,0.8,0.1,1.2c0.1,0.4,0.3,0.7,0.5,1
		s0.5,0.5,0.9,0.7c0.3,0.2,0.7,0.2,1.2,0.1c0.8-0.1,1.5-0.5,1.9-1.2c0.4-0.6,0.8-1.3,1-2.1c0.3-0.9,0.6-1.7,0.8-2.6s0.5-1.8,0.7-2.7
		c0.3-0.8,0.5-1.7,0.6-2.6s0.3-1.8,0.5-2.7c0-0.1,0.1-0.3,0.1-0.5c0.1-0.2,0.1-0.3,0.2-0.5c0.1-0.1,0.2-0.3,0.3-0.3
		c0.1-0.1,0.3-0.1,0.5-0.1c0.3,0.1,0.4,0.1,0.5,0.3c0.1,0.1,0.1,0.3,0.1,0.5s0,0.4-0.1,0.6s-0.1,0.4-0.2,0.5
		c-0.1,0.4-0.2,0.9-0.3,1.3c-0.1,0.4-0.2,0.9-0.3,1.3c-0.1,0.3-0.2,0.6-0.3,1c-0.1,0.4-0.2,0.8-0.3,1.2c-0.1,0.4-0.2,0.8-0.3,1.2
		c-0.1,0.4-0.1,0.7-0.2,1c-0.2,1-0.3,1.8-0.5,2.4s-0.1,1.2,0.2,1.8c0.2,0.4,0.5,0.8,0.8,1.1s0.7,0.5,1.1,0.6s0.8,0.1,1.2,0
		c0.4-0.1,0.8-0.3,1.1-0.6c0.3-0.3,0.6-0.6,0.8-0.8c0.2-0.3,0.4-0.6,0.5-0.9c0.2-0.3,0.3-0.7,0.4-1.2c0.1-0.4,0.3-1,0.4-1.6
		c0.1-0.2,0.2-0.4,0.5-0.7c0.3-0.2,0.5-0.2,0.7,0c0.3,0.1,0.4,0.3,0.4,0.6c-0.1,0.2-0.1,0.5-0.1,0.7c-0.1,0.6-0.2,1.1-0.4,1.6
		c-0.2,0.5-0.4,1-0.6,1.6c-0.4,0.8-0.9,1.5-1.7,2.1c-0.7,0.6-1.5,0.9-2.5,0.9c-1.1,0-1.9-0.2-2.6-0.6
		C272,451.7,271.4,451.1,271,450.3z"/>
	<path class="st2" d="M294.1,445.6c0.1,0.3,0.1,0.7-0.1,1.3c-0.2,0.5-0.4,1-0.5,1.4c-0.3,0.9-0.8,1.7-1.5,2.5
		c-0.6,0.8-1.4,1.3-2.3,1.7c-1,0.4-2,0.6-3,0.5s-1.9-0.4-2.7-0.9s-1.6-1.1-2.2-1.9c-0.7-0.8-1.2-1.6-1.6-2.5
		c-0.3,0.6-0.4,1.1-0.5,1.7c-0.1,0.5-0.1,1.1-0.2,1.7c-0.1,0.3-0.1,0.6-0.3,0.9c-0.1,0.4-0.3,0.6-0.6,0.7c-0.3,0.1-0.5,0.1-0.7,0
		c-0.1-0.1-0.2-0.3-0.3-0.4c0-0.2,0-0.4,0-0.6s0.1-0.4,0.1-0.6c0.1-0.7,0.3-1.3,0.4-2c0.2-0.7,0.3-1.3,0.4-2
		c0.1-0.6,0.2-1.3,0.3-1.9s0.3-1.3,0.4-1.9c0.2-0.6,0.3-1.3,0.4-2s0.3-1.3,0.5-1.9c0.1-0.2,0.2-0.5,0.2-0.9c0.1-0.4,0.2-0.8,0.3-1.2
		s0.3-0.7,0.5-0.9c0.2-0.3,0.5-0.3,0.8-0.3c0.2,0.1,0.3,0.2,0.5,0.4c0.2,0.2,0.2,0.6,0,1.1c0.3-0.4,0.7-0.7,1.2-1s1-0.5,1.5-0.6
		s1-0.1,1.5-0.1c0.5,0.1,1,0.3,1.4,0.6c0.7,0.5,1.1,1.2,1.3,2.1c0.2,0.9,0.2,1.7,0.2,2.5c-0.1,0.9-0.4,1.8-1,2.6
		c-0.6,0.8-1.2,1.6-1.8,2.1c-0.6,0.6-1.4,1.1-2.3,1.4c-0.9,0.4-1.8,0.5-2.6,0.5c0.3,0.6,0.6,1.1,1.1,1.6c0.4,0.5,0.9,0.9,1.4,1.3
		s1,0.6,1.6,0.8s1.2,0.2,1.8,0.1c0.6-0.1,1.1-0.3,1.7-0.8s1-0.9,1.4-1.3c0.3-0.4,0.6-0.9,0.9-1.5s0.5-1.2,0.6-1.7
		c0-0.1,0.1-0.3,0.2-0.4c0.1-0.2,0.2-0.3,0.4-0.4c0.1-0.1,0.3-0.1,0.5-0.1C293.9,445.3,294,445.4,294.1,445.6z M280.5,445.8
		c1.2,0.4,2.4,0.4,3.4,0s2-1.1,2.8-2.1c0.3-0.4,0.6-0.9,0.9-1.4s0.4-1.1,0.5-1.6s0.1-1.1-0.1-1.6c-0.1-0.5-0.4-1-0.9-1.4
		c-0.4-0.3-0.9-0.5-1.3-0.4s-0.9,0.2-1.3,0.5s-0.8,0.6-1.1,1c-0.3,0.4-0.6,0.8-0.8,1.1c-0.3,0.5-0.6,1-0.8,1.6
		c-0.2,0.6-0.4,1.2-0.6,1.8s-0.3,1.1-0.4,1.5C280.6,445.3,280.6,445.6,280.5,445.8z"/>
	<path class="st2" d="M292.9,444.3c0.2-0.8,0.4-1.7,0.6-2.7s0.5-1.9,0.8-2.7c0.2-0.6,0.3-1.1,0.5-1.7c0.1-0.5,0.3-1.1,0.4-1.7
		c0.2-0.6,0.3-1.1,0.4-1.7s0.2-1.1,0.4-1.7c0-0.2,0.1-0.5,0.1-0.8c0.1-0.3,0.1-0.6,0.2-0.9s0.2-0.6,0.3-0.9c0.1-0.3,0.3-0.5,0.5-0.7
		c0.3-0.3,0.5-0.4,0.7-0.4s0.3,0.1,0.5,0.2c0.1,0.2,0.2,0.3,0.2,0.6c0,0.2,0,0.4,0,0.5c-0.1,0.4-0.3,0.9-0.5,1.5s-0.4,1.2-0.5,1.8
		c-0.2,0.6-0.3,1.2-0.5,1.8c-0.1,0.6-0.2,1.1-0.3,1.5c0.6-0.4,1.2-0.6,2-0.6c0.7-0.1,1.4,0,2,0.3c0.6,0.2,1.2,0.6,1.7,1.1
		s0.8,1.1,0.9,1.8c0.2,1.5,0.1,3.1-0.1,4.7c-0.3,1.6-0.7,3.1-1.3,4.4c-0.3,0.6-0.6,1.2-0.9,1.9c-0.4,0.6-0.8,1.2-1.3,1.7
		s-1.1,0.9-1.7,1.1c-0.6,0.3-1.3,0.3-2.1,0.1c-0.7-0.1-1.3-0.4-1.8-0.8s-0.9-0.9-1.1-1.5c-0.4-1.1-0.6-2.1-0.5-3.1
		c0.1-0.6,0.2-1.1,0.3-1.6S292.8,444.9,292.9,444.3z M294.9,450.8c0.6,0.4,1.2,0.6,1.8,0.5c0.7-0.1,1.3-0.3,1.8-0.8
		c0.4-0.4,0.8-0.9,1.1-1.6s0.6-1.4,0.8-1.9c0.2-0.6,0.4-1.3,0.6-2.1c0.3-0.8,0.4-1.6,0.6-2.5c0.1-0.8,0.2-1.6,0.1-2.4
		s-0.3-1.4-0.8-1.9s-1-0.8-1.7-0.7c-0.6,0.1-1.2,0.3-1.7,0.6c-0.7,0.4-1.2,1-1.6,1.6s-0.7,1.4-0.9,2.1c-0.2,0.8-0.4,1.6-0.5,2.4
		c-0.1,0.9-0.3,1.7-0.4,2.5c-0.1,0.3-0.1,0.7-0.1,1c0,0.4,0,0.8,0,1.1c0.1,0.4,0.1,0.7,0.3,1C294.5,450.4,294.6,450.6,294.9,450.8z"
		/>
</g>
</svg>
