<?xml version="1.0" encoding="utf-8"?>
<!-- Generator: Adobe Illustrator 24.0.3, SVG Export Plug-In . SVG Version: 6.00 Build 0)  -->
<svg version="1.1" id="Layer_1" xmlns="http://www.w3.org/2000/svg" xmlns:xlink="http://www.w3.org/1999/xlink" x="0px" y="0px"
	 viewBox="0 0 377.3 484.3" style="enable-background:new 0 0 377.3 484.3;" xml:space="preserve">
<style type="text/css">
	.st0{fill:#D165DB;}
	.st1{opacity:0.1;fill:#7D30CC;}
	.st2{fill:#FFFFFF;stroke:#1C4D52;stroke-width:6;stroke-linecap:round;stroke-linejoin:round;stroke-miterlimit:10;}
	.st3{fill:none;stroke:#1C4D52;stroke-width:6;stroke-linecap:round;stroke-linejoin:round;stroke-miterlimit:10;}
	.st4{fill:#1C4D52;}
	.st5{fill:#7D30CC;}
	.st6{fill:#FFFFFF;}
</style>
<path class="st0" d="M314.3,111.8h-87c-10,0-18.1-8.1-18.1-18.1v0c0-10,8.1-18.1,18.1-18.1h87c10,0,18.1,8.1,18.1,18.1v0
	C332.4,103.7,324.3,111.8,314.3,111.8z"/>
<rect x="13.2" y="284.2" class="st1" width="93.7" height="157.3"/>
<g>
	
		<rect x="105.5" y="25.6" transform="matrix(0.9692 0.2464 -0.2464 0.9692 28.6838 -41.8021)" class="st2" width="151.8" height="136.2"/>
	
		<rect x="126.5" y="45.6" transform="matrix(0.9692 0.2464 -0.2464 0.9692 28.8772 -41.7654)" class="st0" width="109.7" height="97.8"/>
</g>
<path class="st3" d="M87,129.2c0,0-46.4,34.4-46.4,83.3"/>
<path class="st3" d="M100.6,479.1H19.2c-7.6,0-13.8-6.2-13.8-13.8v-201c0-7.6,6.2-13.8,13.8-13.8h81.3c7.6,0,13.8,6.2,13.8,13.8v201
	C114.4,473,108.2,479.1,100.6,479.1z"/>
<circle class="st3" cx="59.8" cy="458.8" r="10.2"/>
<path class="st4" d="M116.8,315h-2.3c-1.5,0-2.7-1.2-2.7-2.7v-15c0-1.5,1.2-2.7,2.7-2.7h2.3c1.5,0,2.7,1.2,2.7,2.7v15
	C119.6,313.8,118.3,315,116.8,315z"/>
<path class="st4" d="M5,315H2.7c-1.5,0-2.7-1.2-2.7-2.7v-15c0-1.5,1.2-2.7,2.7-2.7H5c1.5,0,2.7,1.2,2.7,2.7v15
	C7.7,313.8,6.5,315,5,315z"/>
<line class="st3" x1="49.4" y1="263.1" x2="70.7" y2="263.1"/>
<circle class="st4" cx="40.1" cy="263.1" r="2.1"/>
<rect x="102.3" y="22.4" class="st2" width="151.8" height="136.2"/>
<rect x="123.4" y="41.9" class="st5" width="109.7" height="97.8"/>
<path class="st3" d="M293.1,129.2c0,0,46.4,34.4,46.4,83.3"/>
<path class="st3" d="M358.3,479.1H277c-7.6,0-13.8-6.2-13.8-13.8v-201c0-7.6,6.2-13.8,13.8-13.8h81.3c7.6,0,13.8,6.2,13.8,13.8v201
	C372.2,473,366,479.1,358.3,479.1z"/>
<path class="st4" d="M374.6,296.9h-2.3c-1.5,0-2.7-1.2-2.7-2.7v-15c0-1.5,1.2-2.7,2.7-2.7h2.3c1.5,0,2.7,1.2,2.7,2.7v15
	C377.3,295.7,376.1,296.9,374.6,296.9z"/>
<path class="st4" d="M374.6,320.1h-2.3c-1.5,0-2.7-1.2-2.7-2.7v-15c0-1.5,1.2-2.7,2.7-2.7h2.3c1.5,0,2.7,1.2,2.7,2.7v15
	C377.3,318.9,376.1,320.1,374.6,320.1z"/>
<path class="st4" d="M262.1,326.4h-1c-1.9,0-3.4-1.5-3.4-3.4v-25c0-1.9,1.5-3.4,3.4-3.4h1c1.9,0,3.4,1.5,3.4,3.4v25
	C265.5,324.8,264,326.4,262.1,326.4z"/>
<path class="st4" d="M348,254.5L348,254.5c0,3-2.4,5.5-5.5,5.5h-49.8c-3,0-5.5-2.4-5.5-5.5v0v-3.2H348V254.5z"/>
<rect x="270.8" y="251.3" class="st1" width="93.7" height="227.8"/>
<path class="st6" d="M196.6,87.7h-2.1v-6.2c0-7.3-5.9-13.2-13.2-13.2s-13.2,5.9-13.2,13.2v6.2h-2.1c-2.3,0-4.2,1.9-4.2,4.2v16.7
	c0,2.3,1.9,4.2,4.2,4.2h30.5c2.3,0,4.2-1.9,4.2-4.2V91.9C200.8,89.6,198.9,87.7,196.6,87.7z M184.8,102.3c0,1.9-1.6,3.5-3.5,3.5
	c-1.9,0-3.5-1.6-3.5-3.5v-4.2c0-1.9,1.6-3.5,3.5-3.5c1.9,0,3.5,1.6,3.5,3.5V102.3z M187.6,87.7h-12.5v-6.2c0-3.4,2.8-6.2,6.2-6.2
	s6.2,2.8,6.2,6.2V87.7z"/>
</svg>
