<?xml version="1.0" encoding="utf-8"?>
<!-- Generator: Adobe Illustrator 24.0.3, SVG Export Plug-In . SVG Version: 6.00 Build 0)  -->
<svg version="1.1" id="Layer_1" xmlns="http://www.w3.org/2000/svg" xmlns:xlink="http://www.w3.org/1999/xlink" x="0px" y="0px"
	 viewBox="0 0 495.6 407.6" style="enable-background:new 0 0 495.6 407.6;" xml:space="preserve">
<style type="text/css">
	.st0{fill:#7D30CC;}
	.st1{fill:#39364F;}
	.st2{fill:none;stroke:#0073DE;stroke-width:4;stroke-linecap:round;stroke-linejoin:round;stroke-miterlimit:10;}
	.st3{fill:none;stroke:#FFD539;stroke-width:4;stroke-linecap:round;stroke-linejoin:round;stroke-miterlimit:10;}
	.st4{fill:none;stroke:#7AD9D9;stroke-width:4;stroke-linecap:round;stroke-linejoin:round;stroke-miterlimit:10;}
	.st5{fill:none;stroke:#FF7381;stroke-width:4;stroke-linecap:round;stroke-linejoin:round;stroke-miterlimit:10;}
	.st6{fill:#FFFFFF;}
	.st7{fill:none;stroke:#9ADBE8;stroke-width:4;stroke-linecap:round;stroke-linejoin:round;stroke-miterlimit:10;}
	.st8{fill:none;stroke:#39364F;stroke-width:6;stroke-linecap:round;stroke-linejoin:round;stroke-miterlimit:10;}
	.st9{fill:none;}
</style>
<g>
	<path class="st0" d="M337.3,221.3H136.6c-22.1,0-40-17.9-40-40l0,0c0-22.1,17.9-40,40-40h200.6c22.1,0,40,17.9,40,40l0,0
		C377.3,203.4,359.4,221.3,337.3,221.3z"/>
	<path class="st1" d="M178.3,351.4c-1.1,0-2.2-0.7-2.7-1.8l-49-110.5c-0.7-1.5,0-3.3,1.5-4s3.3,0,4,1.5l49,110.5
		c0.7,1.5,0,3.3-1.5,4C179.1,351.3,178.7,351.4,178.3,351.4z"/>
	<path class="st1" d="M206.3,109.5c-0.4,0-0.8-0.1-1.2-0.3l-24-10.9c-1.5-0.7-2.2-2.5-1.5-4s2.5-2.2,4-1.5l18.4,8.4l-4.6-19.8
		c-0.3-1.1,0.2-2.3,1.1-3.1c0.9-0.7,2.2-0.8,3.2-0.3l18,9.7l-4.9-20.2c-0.3-1.1,0.1-2.3,1.1-3.1c0.9-0.7,2.2-0.9,3.2-0.3l17.1,8.7
		L232,53.9c-0.3-1.1,0.2-2.3,1.1-3c0.9-0.7,2.2-0.8,3.2-0.3l17.1,8.7L249.2,40c-0.2-1.1,0.2-2.3,1.1-3c0.9-0.7,2.2-0.8,3.2-0.3
		l16.2,8.1c-0.7-5.1,0.2-11.4,5.5-16.7c1.2-1.2,3.1-1.2,4.2,0c1.2,1.2,1.2,3.1,0,4.2c-7.3,7.3-2.4,16.4-2.2,16.8
		c0.6,1.2,0.4,2.6-0.5,3.5s-2.3,1.2-3.5,0.6l-16.8-8.4l4.3,19.3c0.2,1.1-0.2,2.3-1.1,3s-2.2,0.8-3.2,0.3l-17.1-8.7l4.2,18.9
		c0.3,1.1-0.2,2.3-1.1,3c-0.9,0.7-2.2,0.8-3.2,0.3l-17-8.6l4.9,20.4c0.3,1.2-0.1,2.4-1.1,3.1c-0.9,0.7-2.2,0.8-3.3,0.3l-18.1-9.7
		l4.4,19.3c0.3,1.1-0.1,2.3-1,3C207.6,109.2,206.9,109.5,206.3,109.5z"/>
	<polygon class="st2" points="188.5,48.6 175.2,42.2 162.4,49.5 164.4,34.9 153.5,24.9 168,22.3 174.1,8.9 181.1,21.9 195.7,23.5 
		185.5,34.2 	"/>
	<polygon class="st3" points="436.1,123.5 425.9,116.8 414.3,120.7 417.8,109.7 410,100.6 422.4,100.5 429.1,90.8 433.3,101.8 
		445.3,105 435.5,111.9 	"/>
	<path class="st4" d="M100,47.8L100,47.8c-3.3-3.1-7.8-5-12.7-5c-10.3,0-18.6,8.3-18.6,18.6c0,5.4,2.3,10.3,6,13.7l0,0
		c2.1,2.3,5.2,3.7,8.1,4.7c6.4,2.2,13,3.7,19.2,6.3c6.2,2.6,12.2,6.5,15.8,12.2l0.1-1.7C116,57,100,47.8,100,47.8z"/>
	<path class="st5" d="M374.7,5.5L374.7,5.5c3.3-1.7,7.2-2.1,11.1-1c8,2.4,12.4,11,9.9,19.1c-1.3,4.3-4.3,7.6-8,9.4l0,0
		c-2.2,1.4-4.9,1.7-7.5,1.8c-5.5,0.2-11-0.1-16.4,0.5s-11,2.2-15.2,5.9l0.3-1.4C360,9,374.7,5.5,374.7,5.5z"/>
	<g id="Layer_1_5_">
		<path class="st6" d="M326.9,160.8c-0.9-0.6-2-0.6-2.8,0l-14.3,8.3c-0.1,0.1-0.2,0.1-0.3,0.2c-0.7,0.5-1.1,1.3-1.1,2.1l-0.1,16.9
			c0,0.9,0.5,1.8,1.3,2.2l14.4,8.3c0.9,0.6,2,0.6,2.8,0l14.4-8.3c0.1,0,0.2-0.1,0.3-0.2c0.7-0.5,1.1-1.3,1.1-2.1l0.1-16.9
			c0-0.9-0.5-1.8-1.3-2.2L326.9,160.8z"/>
		<path class="st0" d="M323.4,186.8c0,0.6-0.5,1.1-1.1,1.1h-3.7c-0.6,0-1.1-0.5-1.1-1.1v-13.6c0-0.6,0.5-1.1,1.1-1.1h3.7
			c0.6,0,1.1,0.5,1.1,1.1V186.8z"/>
		<path class="st0" d="M333.1,188h-3.9c-0.4,0-0.7-0.2-0.9-0.5l-3.9-6.8c-0.3-0.4-0.3-0.9,0-1.3l3.8-6.7c0.2-0.3,0.5-0.5,0.9-0.5
			h3.9c0.6,0,1.1,0.5,1.1,1.1c0,0.2-0.1,0.4-0.2,0.6l-3.2,5.5c-0.2,0.2-0.3,0.5-0.3,0.7s0.1,0.4,0.2,0.6l3.2,5.5
			c0.4,0.5,0.3,1.2-0.2,1.5C333.6,187.9,333.3,188,333.1,188z"/>
	</g>
	<circle class="st7" cx="475.9" cy="64.7" r="6.3"/>
	<path class="st8" d="M291.5,291.9"/>
	<path class="st9" d="M350.9,372.4c5.3-4.6,14.4-15.4,10.6-32.8l-10.3-46.4l-13.5,19.6L350.9,372.4z"/>
	<circle class="st1" cx="341" cy="287.3" r="3.2"/>
	<path class="st1" d="M490.7,169c-0.2-0.5-0.5-1-1-1.4l-27.9-23.4c-0.5-0.5-1.2-0.7-1.9-0.7h-8c-1.7,0-3,1.3-3,3v15.4
		c0,3.1-4.6,4.6-5.8,5h-33c0,0-2.2,0-3.8-1.6c-1.3-1.3-2-3.4-2-6.2c0-7.6,5.4-8.9,6.5-9.1h9.7c4.1,0,6.7,2.8,6.8,2.9
		c0.8,0.9,2.1,1.2,3.3,0.8c1.1-0.4,1.9-1.6,1.9-2.8c0-11.3-9.6-15.7-14.7-16.4c-0.1,0-0.3,0-0.4,0h-64.1c-6.1-3.4-13.2-5.3-20.6-5.3
		h-37.3c24.1-14.5,25.8-32.5,25.9-33.4s-0.3-1.9-1-2.5s-1.7-0.9-2.6-0.7l-125.8,27l-6.7-24.8c-0.3-1-1-1.8-2-2.1s-2-0.1-2.8,0.5
		l-44.3,36h-4c-9.2,0-17.7,2.9-24.7,7.8c-3.6-12.1-18.4-15.9-26.7-16c-1.2-0.1-2.3,0.7-2.8,1.8c-0.5,1.1-0.2,2.4,0.7,3.3
		c0.6,0.7,0.9,4.5,0.6,7.7c-0.1,0.9-1.9,10.8-13.2,10.8c-12.6,0-21.1-11-21.2-11.1c-0.6-0.8-1.5-1.2-2.4-1.2H13c-1.7,0-3,1.3-3,3
		v28.6c0,1.7,1.3,3,3,3h76.4c-0.2,1.7-0.3,3.5-0.3,5.3c0,5.1,0.9,10,2.5,14.5c0,0.4,0.1,0.9,0.3,1.3l71.8,161.6
		c0.6,1.4,15.6,34.5,52.9,52.5c0.4,0.2,0.9,0.3,1.3,0.3c0.7,0,1.4-0.2,1.9-0.7c2.1-1.8,11.4-13.3-13-66.7l-55.9-119.8h68.3v88.3
		c0,0.6,0.1,1.1,0.4,1.6l25.1,41.4c0.6,0.9,1.6,1.4,2.6,1.4c0.3,0,0.5,0,1,0.3c1.3-0.4,2.2-1.6,2.2-2.9V317c0-0.8-0.4-1.6-1-2.2
		l-3.6-3.4l3.7-3.5c0.6-0.6,0.9-1.4,0.9-2.2c0-0.8-0.4-1.6-1-2.2l-3.7-3.4l3.7-3.6c0.6-0.6,0.9-1.3,0.9-2.2s-0.4-1.6-1-2.2l-3.6-3.2
		l3.6-3.5c0.6-0.6,0.9-1.4,0.9-2.2c0-0.8-0.4-1.6-1-2.2l-3.6-3.4l3.7-3.5c0.6-0.6,0.9-1.4,0.9-2.2c0-0.8-0.4-1.6-1-2.2l-3.6-3.4
		l3.7-3.5c0.6-0.6,0.9-1.4,0.9-2.2c0-0.8-0.4-1.6-1-2.2l-3.6-3.4l3.7-3.5c0.6-0.6,0.9-1.4,0.9-2.2s-0.4-1.6-1-2.2l-3.6-3.4l3.7-3.5
		c0.6-0.6,1-1.4,0.9-2.2s-0.4-1.6-1-2.2l-3.7-3.4l3.7-3.4c0.7-0.6,1-1.4,1-2.2s-0.4-1.6-1-2.2l-4.1-3.8l3.7-5.6h61l15.3,69
		l-27.8,40.5c-16,23.4-0.2,44.9,0,45.1c0.6,0.8,1.5,1.2,2.4,1.2c1.1-0.1,2-0.5,2.4-1.4l31.7-46.2l12.2,54.8c0.2,0.9,0.8,1.7,1.7,2.1
		c0.4,0.1,0.8,0.2,1.2,0.2c0.5,0,1.1-0.1,1.6-0.4c0.2-0.2,23-14.1,16.8-41.9l-10.7-48l39.4-57.4c2.1-2.7,4.7-8.7-0.3-13.7
		c-2.1-2.1-4.3-2.3-5.8-2.2c-4.6,0.4-8,5.2-8.4,5.8L350,268.8c-1.6,2.4-3.5,3.8-5.5,4.1c-0.2,0-0.4,0.1-0.6,0.1
		c-0.3-0.1-0.5-0.2-0.8-0.4c-1.8-1-3-3-3.6-5.8l-8-36.2c10.2,1.8,18,10.8,18,21.5c0,1.7,1.3,3,3,3c1.6,0,3-1.3,3-3
		c0-14.5-11.2-26.5-25.4-27.7l-2-9.2h4.6c17.3,0,32.1-10.2,39-24.8H467c10.1,0,17.2-2.6,21.3-7.7C492.9,176.5,490.8,169.3,490.7,169
		z M314.4,99.5c-2.3,6.6-9.5,19.8-32,29.7h-57.6l51.4-11c1.6-0.4,2.7-2,2.3-3.6c-0.4-1.6-2-2.6-3.6-2.3L196,129.2h-20.1L314.4,99.5z
		 M180.6,100.8l5.4,20l-39,8.4h-1.4L180.6,100.8z M16,161v-22.6h24.8c2.9,3.3,12,12.3,25,12.3c13.4,0,18.4-10.5,19.2-16v-0.1
		c0.2-1.3,0.4-4.2,0-7.1c2,0.4,4.5,0.9,6.9,1.9c6.4,2.5,9.8,6.5,10.2,12c-5.5,5.3-9.5,12-11.6,19.6H16z M201.3,337.5
		c17.6,38.5,16.6,53.2,15.3,57.9c-33.4-17.3-47.3-47.9-47.4-48.2L107,207.1c7.1,5.1,15.8,8.1,25.1,8.1h12.1L201.3,337.5z
		 M244.3,334.2l-19.1-31.5h-0.1v-87.5h16.2l-2.6,4c-0.8,1.3-0.6,2.9,0.5,3.9l3.6,3.4l-3.6,3.4c-0.7,0.6-1,1.4-1,2.2s0.4,1.6,1,2.2
		l3.7,3.4l-3.7,3.5c-0.6,0.6-0.9,1.4-0.9,2.2s0.4,1.6,1,2.2l3.6,3.4l-3.7,3.5c-0.6,0.6-0.9,1.4-0.9,2.2s0.4,1.6,1,2.2l3.6,3.4
		l-3.7,3.5c-0.6,0.6-0.9,1.4-0.9,2.2c0,0.8,0.4,1.6,1,2.2l3.6,3.4l-3.7,3.5c-0.6,0.6-0.9,1.4-0.9,2.2c0,0.8,0.4,1.6,1,2.2l3.6,3.4
		l-3.7,3.5c-0.6,0.6-0.9,1.4-0.9,2.2s0.4,1.6,1,2.2l3.6,3.2l-3.7,3.6c-0.6,0.6-0.9,1.4-0.9,2.2c0,0.9,0.4,1.6,1,2.2l3.6,3.4
		l-3.7,3.5c-0.6,0.6-0.9,1.4-0.9,2.2c0,0.8,0.4,1.6,1,2.2l5,4.6L244.3,334.2L244.3,334.2z M361.5,339.6c3.8,17.4-5.3,28.2-10.6,32.8
		l-12.3-55.8L352,297L361.5,339.6z M345.4,278.8c3.8-0.6,7-2.8,9.6-6.6l31.8-46c0.9-1.3,2.8-3.1,4-3.2c0.1,0,0.4-0.1,1,0.5
		c2.3,2.3,0.2,5.1-0.2,5.7c-0.1,0.1-0.2,0.1-0.2,0.2l-91.3,133c-3.2-6.4-7.6-19.9,2.4-34.4l34.7-50.5
		C339.2,278.4,342.2,279.3,345.4,278.8z M333.6,268.1c0.2,1.1,0.5,2.1,0.9,3c-0.3,0.2-0.6,0.5-0.8,0.8l-3.8,5.6l-13.8-62.3h5.8
		L333.6,268.1z M332.7,135.2c20.4,0,37,16.6,37,37c0,4.6-0.9,9.1-2.4,13.2c-0.4,0.5-0.7,1.1-0.7,1.8c-5.8,13-18.8,22-33.8,22H132.1
		c-20.4,0-37-16.6-37-37c0-10.6,4.5-20.2,11.7-26.9c0.3-0.2,0.6-0.5,0.8-0.8c6.5-5.8,15.1-9.3,24.5-9.3H332.7z M483.2,179.2
		c-2.6,3.4-8.2,5.2-16.2,5.2h-93.1c0.3-1,0.6-2.1,0.8-3.1h22.7c1.6,0,3-1.3,3-3s-1.3-3-3-3h-21.8c0.1-1,0.1-2.1,0.1-3.1
		c0-12.5-5.4-23.8-14-31.7h55.4c0.9,0.2,4.7,1.1,7.2,4.1c-1.2-0.3-2.6-0.5-4-0.5h-9.9c-0.1,0-0.2,0-0.3,0c-4.2,0.5-12,4.3-12,15.1
		c0,4.5,1.3,8,3.8,10.5c3.3,3.3,7.6,3.3,8,3.3h33.3c0.3,0,0.5,0,0.7-0.1c4-0.9,10.8-4.2,10.8-10.9v-12.4h3.9l26.3,22
		C485.1,173.1,485.3,176.4,483.2,179.2z"/>
</g>
</svg>
