<?xml version="1.0" encoding="utf-8"?>
<!-- Generator: Adobe Illustrator 24.0.1, SVG Export Plug-In . SVG Version: 6.00 Build 0)  -->
<svg version="1.1" id="Layer_1" xmlns="http://www.w3.org/2000/svg" xmlns:xlink="http://www.w3.org/1999/xlink" x="0px" y="0px"
	 viewBox="0 0 495.6 407.6" style="enable-background:new 0 0 495.6 407.6;" xml:space="preserve">
<style type="text/css">
	.st0{fill:#7D30CC;}
	.st1{fill:#39364F;}
	.st2{fill:#30CBF4;}
	.st3{fill:#D165DB;}
	.st4{fill:#FFFFFF;}
	.st5{fill:none;stroke:#39364F;stroke-width:6;stroke-linecap:round;stroke-linejoin:round;stroke-miterlimit:10;}
	.st6{fill:#1C4D52;}
</style>
<g>
	<path class="st0" d="M337.3,221.3H136.6c-22.1,0-40-17.9-40-40v0c0-22.1,17.9-40,40-40h200.6c22.1,0,40,17.9,40,40v0
		C377.3,203.4,359.4,221.3,337.3,221.3z"/>
	<path class="st1" d="M332.7,215.2H132.1c-23.7,0-43-19.3-43-43c0-23.7,19.3-43,43-43h200.6c23.7,0,43,19.3,43,43
		C375.7,195.9,356.5,215.2,332.7,215.2z M132.1,135.2c-20.4,0-37,16.6-37,37c0,20.4,16.6,37,37,37h200.6c20.4,0,37-16.6,37-37
		c0-20.4-16.6-37-37-37H132.1z"/>
	<path class="st1" d="M217.9,402.4c-0.4,0-0.9-0.1-1.3-0.3c-37.3-18-52.3-51.1-52.9-52.5L91.9,188c-0.7-1.5,0-3.3,1.5-4
		c1.5-0.7,3.3,0,4,1.5l71.8,161.7c0.1,0.3,14,30.9,47.4,48.2c1.3-4.7,2.3-19.4-15.3-57.9l-57.9-124.1c-0.7-1.5-0.1-3.3,1.5-4
		c1.5-0.7,3.3-0.1,4,1.5L206.8,335c24.4,53.4,15.1,64.9,13,66.7C219.3,402.2,218.6,402.4,217.9,402.4z"/>
	<path class="st1" d="M178.3,351.4c-1.1,0-2.2-0.7-2.7-1.8l-49-110.5c-0.7-1.5,0-3.3,1.5-4c1.5-0.7,3.3,0,4,1.5l49,110.5
		c0.7,1.5,0,3.3-1.5,4C179.1,351.3,178.7,351.4,178.3,351.4z"/>
	<path class="st1" d="M247.3,347.9c-1,0-2-0.5-2.6-1.4l-25.1-41.4c-0.3-0.5-0.4-1-0.4-1.6v-91.4c0-1.7,1.3-3,3-3h25.1
		c1.1,0,2.1,0.6,2.6,1.6s0.5,2.2-0.1,3.1l-4.6,7l4.1,3.8c0.6,0.6,1,1.4,1,2.2s-0.3,1.6-1,2.2l-3.7,3.4l3.7,3.4
		c0.6,0.6,0.9,1.4,1,2.2s-0.3,1.6-0.9,2.2l-3.7,3.5l3.6,3.4c0.6,0.6,1,1.4,1,2.2s-0.3,1.6-0.9,2.2l-3.7,3.5l3.6,3.4
		c0.6,0.6,1,1.4,1,2.2s-0.3,1.6-0.9,2.2l-3.7,3.5l3.6,3.4c0.6,0.6,1,1.4,1,2.2s-0.3,1.6-0.9,2.2l-3.7,3.5l3.6,3.4
		c0.6,0.6,1,1.4,1,2.2c0,0.8-0.3,1.6-0.9,2.2l-3.6,3.5l3.6,3.2c0.6,0.6,1,1.3,1,2.2s-0.3,1.6-0.9,2.2l-3.7,3.6l3.7,3.4
		c0.6,0.6,1,1.4,1,2.2s-0.3,1.6-0.9,2.2l-3.7,3.5l3.6,3.4c0.6,0.6,1,1.4,1,2.2v28.3c0,1.3-0.9,2.5-2.2,2.9
		C247.8,347.9,247.6,347.9,247.3,347.9z M225.2,302.7l19.1,31.5v-16.3l-5-4.6c-0.6-0.6-1-1.4-1-2.2s0.3-1.6,0.9-2.2l3.7-3.5
		l-3.6-3.4c-0.6-0.6-1-1.3-1-2.2c0-0.8,0.3-1.6,0.9-2.2l3.7-3.6l-3.6-3.2c-0.6-0.6-1-1.4-1-2.2c0-0.8,0.3-1.6,0.9-2.2l3.7-3.5
		l-3.6-3.4c-0.6-0.6-1-1.4-1-2.2s0.3-1.6,0.9-2.2l3.7-3.5l-3.6-3.4c-0.6-0.6-1-1.4-1-2.2s0.3-1.6,0.9-2.2l3.7-3.5l-3.6-3.4
		c-0.6-0.6-1-1.4-1-2.2s0.3-1.6,0.9-2.2l3.7-3.5l-3.6-3.4c-0.6-0.6-1-1.4-1-2.2s0.3-1.6,0.9-2.2l3.7-3.5l-3.7-3.4
		c-0.6-0.6-1-1.4-1-2.2s0.3-1.6,1-2.2l3.6-3.4l-3.6-3.4c-1.1-1-1.3-2.6-0.5-3.9l2.9-4.5h-16.5V302.7z"/>
	<path class="st1" d="M92.1,166.9H13c-1.7,0-3-1.3-3-3v-28.6c0-1.7,1.3-3,3-3h29.4c0.9,0,1.8,0.4,2.4,1.2
		c0.1,0.1,8.6,11.1,21.2,11.1c11.3,0,13.1-9.9,13.2-10.8c0.3-3.2,0-7-0.6-7.7c-0.9-0.9-1.2-2.2-0.7-3.3c0.5-1.1,1.6-1.9,2.8-1.8
		c9.5,0.2,27.5,5,27.5,21.7c0,1.7-1.3,3-3,3s-3-1.3-3-3c0-6.2-3.4-10.6-10.3-13.3c-2.4-1-4.9-1.5-6.9-1.9c0.4,2.9,0.2,5.8,0,7.1
		c0,0,0,0.1,0,0.1c-0.8,5.5-5.8,16-19.2,16c-13,0-22.1-9-25-12.3H16v22.6h76.1c1.7,0,3,1.3,3,3S93.8,166.9,92.1,166.9z"/>
	<path class="st1" d="M467,190.4h-97.5c-1.7,0-3-1.3-3-3s1.3-3,3-3H467c8,0,13.6-1.8,16.2-5.2c2.1-2.8,1.9-6.1,1.7-7.6l-26.3-22
		h-3.9v12.4c0,6.7-6.8,10-10.8,10.9c-0.2,0.1-0.4,0.1-0.7,0.1h-33.3c-0.4,0-4.7,0-8-3.3c-2.5-2.5-3.8-6-3.8-10.5
		c0-10.8,7.8-14.6,12-15.1c0.1,0,0.2,0,0.3,0h9.9c1.4,0,2.8,0.2,4,0.5c-2.5-3-6.3-3.9-7.2-4.1h-64.5c-1.7,0-3-1.3-3-3s1.3-3,3-3
		h64.8c0.1,0,0.3,0,0.4,0c5.1,0.7,14.7,5.1,14.7,16.4c0,1.2-0.8,2.4-1.9,2.8c-1.2,0.4-2.5,0.1-3.3-0.8c-0.1-0.1-2.7-2.9-6.8-2.9
		h-9.7c-1.1,0.2-6.5,1.5-6.5,9.1c0,2.8,0.7,4.9,2,6.2c1.6,1.6,3.8,1.6,3.8,1.6l33,0c1.2-0.4,5.8-1.9,5.8-5v-15.4c0-1.7,1.3-3,3-3h8
		c0.7,0,1.4,0.2,1.9,0.7l27.9,23.4c0.5,0.4,0.8,0.9,1,1.4c0.1,0.3,2.2,7.5-2.4,13.7C484.2,187.8,477.1,190.4,467,190.4z"/>
	<path class="st1" d="M397.4,181.3h-25.1c-1.7,0-3-1.3-3-3s1.3-3,3-3h25.1c1.7,0,3,1.3,3,3S399,181.3,397.4,181.3z"/>
	<path class="st1" d="M137.1,135.2c-0.9,0-1.7-0.4-2.3-1.1c-1-1.3-0.8-3.2,0.4-4.2l45.2-36.7c0.8-0.6,1.8-0.8,2.8-0.5
		c1,0.3,1.7,1.1,2,2.1l7.4,27.5c0.4,1.6-0.5,3.2-2.1,3.7c-1.6,0.4-3.2-0.5-3.7-2.1l-6.2-23.1l-41.7,33.8
		C138.4,135,137.7,135.2,137.1,135.2z"/>
	<path class="st1" d="M206.3,109.5c-0.4,0-0.8-0.1-1.2-0.3l-24-10.9c-1.5-0.7-2.2-2.5-1.5-4c0.7-1.5,2.5-2.2,4-1.5l18.4,8.4
		l-4.6-19.8c-0.3-1.1,0.2-2.3,1.1-3.1c0.9-0.7,2.2-0.8,3.2-0.3l18,9.7l-4.9-20.2c-0.3-1.1,0.1-2.3,1.1-3.1c0.9-0.7,2.2-0.9,3.2-0.3
		l17.1,8.7L232,53.9c-0.3-1.1,0.2-2.3,1.1-3c0.9-0.7,2.2-0.8,3.2-0.3l17.1,8.7L249.2,40c-0.2-1.1,0.2-2.3,1.1-3
		c0.9-0.7,2.2-0.8,3.2-0.3l16.2,8.1c-0.7-5.1,0.2-11.4,5.5-16.7c1.2-1.2,3.1-1.2,4.2,0c1.2,1.2,1.2,3.1,0,4.2
		c-7.3,7.3-2.4,16.4-2.2,16.8c0.6,1.2,0.4,2.6-0.5,3.5c-0.9,0.9-2.3,1.2-3.5,0.6l-16.8-8.4l4.3,19.3c0.2,1.1-0.2,2.3-1.1,3
		c-0.9,0.7-2.2,0.8-3.2,0.3l-17.1-8.7l4.2,18.9c0.3,1.1-0.2,2.3-1.1,3c-0.9,0.7-2.2,0.8-3.2,0.3l-17-8.6l4.9,20.4
		c0.3,1.2-0.1,2.4-1.1,3.1c-0.9,0.7-2.2,0.8-3.3,0.3l-18.1-9.7l4.4,19.3c0.3,1.1-0.1,2.3-1,3C207.6,109.2,206.9,109.5,206.3,109.5z"
		/>
	<path class="st1" d="M282.9,135.2c-1.2,0-2.3-0.7-2.8-1.8c-0.7-1.5,0-3.3,1.6-3.9c23.1-9.9,30.4-23.3,32.7-30l-166.6,35.7
		c-1.6,0.3-3.2-0.7-3.6-2.3c-0.3-1.6,0.7-3.2,2.3-3.6l171.2-36.7c0.9-0.2,1.9,0.1,2.6,0.7c0.7,0.6,1.1,1.6,1,2.5
		c-0.1,1-2.3,24.2-37.3,39.2C283.6,135.1,283.2,135.2,282.9,135.2z"/>
	<path class="st1" d="M196.5,135.2c-1.4,0-2.6-1-2.9-2.4c-0.3-1.6,0.7-3.2,2.3-3.6l78.9-16.9c1.6-0.3,3.2,0.7,3.6,2.3
		s-0.7,3.2-2.3,3.6l-78.9,16.9C196.9,135.2,196.7,135.2,196.5,135.2z"/>
	<polygon class="st2" points="188.5,48.6 175.2,42.2 162.4,49.5 164.4,34.9 153.5,24.9 168,22.3 174.1,8.9 181.1,21.9 195.7,23.5 
		185.5,34.2 	"/>
	<polygon class="st2" points="436.1,123.5 425.9,116.8 414.3,120.7 417.8,109.7 410,100.6 422.4,100.5 429.1,90.8 433.3,101.8 
		445.3,105 435.5,111.9 	"/>
	<path class="st0" d="M100,47.8L100,47.8c-3.3-3.1-7.8-5-12.7-5c-10.3,0-18.6,8.3-18.6,18.6c0,5.4,2.3,10.3,6,13.7l0,0
		c2.1,2.3,5.2,3.7,8.1,4.7c6.4,2.2,13,3.7,19.2,6.3c6.2,2.6,12.2,6.5,15.8,12.2l0.1-1.7C116,57,100,47.8,100,47.8z"/>
	<path class="st3" d="M374.7,5.5L374.7,5.5c3.3-1.7,7.2-2.1,11.1-1c8,2.4,12.4,11,9.9,19.1c-1.3,4.3-4.3,7.6-8,9.4l0,0
		c-2.2,1.4-4.9,1.7-7.5,1.8c-5.5,0.2-11-0.1-16.4,0.5c-5.4,0.6-11,2.2-15.2,5.9l0.3-1.4C360,9,374.7,5.5,374.7,5.5z"/>
	<g id="Layer_1_5_">
		<path class="st4" d="M326.9,160.8c-0.9-0.6-2-0.6-2.8,0l-14.3,8.3c-0.1,0.1-0.2,0.1-0.3,0.2c-0.7,0.5-1.1,1.3-1.1,2.1l-0.1,16.9
			c0,0.9,0.5,1.8,1.3,2.2l14.4,8.3c0.9,0.6,2,0.6,2.8,0l14.4-8.3c0.1,0,0.2-0.1,0.3-0.2c0.7-0.5,1.1-1.3,1.1-2.1l0.1-16.9
			c0-0.9-0.5-1.8-1.3-2.2L326.9,160.8z"/>
		<path class="st0" d="M323.4,186.8c0,0.6-0.5,1.1-1.1,1.1h-3.7c-0.6,0-1.1-0.5-1.1-1.1v-13.6c0-0.6,0.5-1.1,1.1-1.1h3.7
			c0.6,0,1.1,0.5,1.1,1.1V186.8z"/>
		<path class="st0" d="M333.1,188h-3.9c-0.4,0-0.7-0.2-0.9-0.5l-3.9-6.8c-0.3-0.4-0.3-0.9,0-1.3l3.8-6.7c0.2-0.3,0.5-0.5,0.9-0.5
			h3.9c0.6,0,1.1,0.5,1.1,1.1c0,0.2-0.1,0.4-0.2,0.6l-3.2,5.5c-0.2,0.2-0.3,0.5-0.3,0.7c0,0.2,0.1,0.4,0.2,0.6l3.2,5.5
			c0.4,0.5,0.3,1.2-0.2,1.5C333.6,187.9,333.3,188,333.1,188z"/>
	</g>
	<circle class="st0" cx="475.9" cy="64.7" r="6.3"/>
	<path class="st1" d="M349,380.5c-0.4,0-0.8-0.1-1.2-0.2c-0.9-0.4-1.5-1.2-1.7-2.1l-36.7-165.3c-0.4-1.6,0.7-3.2,2.3-3.6
		c1.6-0.4,3.2,0.7,3.6,2.3l35.6,160.8c5.3-4.6,14.4-15.4,10.6-32.8l-13.3-59.9c-2.2,0.1-5.3-0.2-8.2-1.9c-3.3-1.9-5.4-5.2-6.4-9.7
		l-12.1-54.6c-0.4-1.6,0.7-3.2,2.3-3.6c1.6-0.4,3.2,0.7,3.6,2.3l12.1,54.6c0.6,2.8,1.8,4.8,3.6,5.8c2.9,1.7,6.6,0.8,6.6,0.8
		c0.8-0.2,1.6-0.1,2.4,0.3c0.7,0.4,1.2,1.1,1.4,1.9l13.9,62.6c6.2,27.8-16.6,41.7-16.8,41.9C350.1,380.4,349.5,380.5,349,380.5z"/>
	<path class="st5" d="M291.5,291.9"/>
	<g>
		<path class="st4" d="M393.8,231.1l-94,136.9c0,0-14.9-19.7,0.1-41.6l36.3-52.9c0,0,9.3,7.2,16.3-3l31.6-46.1c0,0,5.2-7.6,9.7-3.1
			C398.3,225.7,393.8,231.1,393.8,231.1z"/>
		<path class="st6" d="M299.8,371c-0.9,0-1.8-0.4-2.4-1.2c-0.2-0.2-16-21.7,0-45.1l36.3-52.8c0.5-0.7,1.2-1.1,2-1.3
			c0.8-0.1,1.6,0.1,2.3,0.6c0,0,3.1,2.3,6.5,1.7c2-0.3,3.9-1.7,5.5-4.1l31.6-46.1c0.4-0.6,3.8-5.4,8.4-5.8c1.5-0.1,3.7,0.1,5.8,2.2
			c5,5,2.4,11,0.3,13.7l-93.9,136.8C301.8,370.5,300.9,370.9,299.8,371C299.9,371,299.9,371,299.8,371z M337.2,277.5L302.5,328
			c-10,14.5-5.6,28-2.4,34.4l91.3-133c0-0.1,0.1-0.1,0.2-0.2c0.4-0.6,2.5-3.4,0.2-5.7c-0.6-0.6-0.9-0.5-1-0.5
			c-1.2,0.1-3.1,1.9-4,3.2L355,272.2c-2.6,3.8-5.8,6-9.6,6.6C342.2,279.3,339.2,278.4,337.2,277.5z"/>
	</g>
	<circle class="st6" cx="341" cy="287.3" r="3.2"/>
	<g>
		<path class="st4" d="M327.6,227.3c13.7,0,24.8,11.1,24.8,24.8"/>
		<path class="st6" d="M352.5,255.1c-1.7,0-3-1.3-3-3c0-12-9.8-21.8-21.8-21.8c-1.7,0-3-1.3-3-3s1.3-3,3-3
			c15.3,0,27.8,12.5,27.8,27.8C355.5,253.8,354.1,255.1,352.5,255.1z"/>
	</g>
</g>
</svg>
