<?xml version="1.0" encoding="utf-8"?>
<!-- Generator: Adobe Illustrator 24.0.1, SVG Export Plug-In . SVG Version: 6.00 Build 0)  -->
<svg version="1.1" id="Layer_1" xmlns="http://www.w3.org/2000/svg" xmlns:xlink="http://www.w3.org/1999/xlink" x="0px" y="0px"
	 viewBox="0 0 36 40.9" style="enable-background:new 0 0 36 40.9;" xml:space="preserve">
<style type="text/css">
	.st0{fill:url(#SVGID_1_);}
	.st1{fill:url(#SVGID_2_);}
	.st2{fill:url(#SVGID_3_);}
	.st3{fill:url(#SVGID_4_);}
</style>
<g>
	<linearGradient id="SVGID_1_" gradientUnits="userSpaceOnUse" x1="0.6563" y1="10.0648" x2="28.5161" y2="37.9246">
		<stop  offset="0" style="stop-color:#3224AC"/>
		<stop  offset="1" style="stop-color:#C26BD4"/>
	</linearGradient>
	<path class="st0" d="M12.2,26.4c-0.6,0-1.2,0.5-1.2,1.2c0,0.6,0.5,1.2,1.2,1.2h12.4c-0.1-0.7-0.1-1.6,0-2.3H12.2z"/>
	<linearGradient id="SVGID_2_" gradientUnits="userSpaceOnUse" x1="4.888" y1="5.8331" x2="32.7478" y2="33.6929">
		<stop  offset="0" style="stop-color:#3224AC"/>
		<stop  offset="1" style="stop-color:#C26BD4"/>
	</linearGradient>
	<path class="st1" d="M19.2,21.1c0,0.2-0.1,0.4-0.3,0.5c-0.1,0-0.2,0.1-0.3,0.1c-0.1,0-0.3,0-0.4-0.1l-2-1.5l-1.9,1.5
		c-0.2,0.1-0.4,0.2-0.6,0.1c-0.2-0.1-0.3-0.3-0.3-0.5v-8.7h-0.6c-1,0-1.8,0.8-1.8,1.8v11.4c0.3-0.2,0.7-0.3,1.2-0.3H25V12.4h-5.8
		V21.1z"/>
	<linearGradient id="SVGID_3_" gradientUnits="userSpaceOnUse" x1="5.4115" y1="5.3095" x2="33.2714" y2="33.1694">
		<stop  offset="0" style="stop-color:#3224AC"/>
		<stop  offset="1" style="stop-color:#C26BD4"/>
	</linearGradient>
	<polygon class="st2" points="18,20 18,12.4 14.5,12.4 14.5,20 16.3,18.7 	"/>
	<linearGradient id="SVGID_4_" gradientUnits="userSpaceOnUse" x1="4.0934" y1="6.6276" x2="31.9533" y2="34.4875">
		<stop  offset="0" style="stop-color:#3224AC"/>
		<stop  offset="1" style="stop-color:#C26BD4"/>
	</linearGradient>
	<path class="st3" d="M34.7,9.4L19.6,0.7c-0.4-0.3-0.9-0.5-1.5-0.5c-0.6,0-1.1,0.2-1.5,0.5l-15,8.6C1.5,9.4,1.4,9.4,1.3,9.5
		c-0.7,0.5-1.2,1.3-1.2,2.2L0,29.4c0,1,0.6,1.9,1.4,2.3l15.1,8.7c0.4,0.3,0.9,0.5,1.5,0.5c0.6,0,1.1-0.2,1.5-0.5l15-8.7
		c0.1,0,0.2-0.1,0.3-0.2c0.7-0.5,1.2-1.3,1.2-2.2L36,11.7C36,10.7,35.5,9.8,34.7,9.4z M26.2,25.5c0,0.4-0.2,0.7-0.5,0.8
		c-0.1,0.6-0.2,1.7,0,2.4h0.1c0.2,0,0.4,0.2,0.4,0.4v0.3c0,0.2-0.2,0.4-0.4,0.4H12.2c-1.3,0-2.3-1-2.3-2.3V14.1
		c0-1.6,1.3-2.9,2.9-2.9h12.5c0.5,0,0.9,0.4,0.9,0.9V25.5z"/>
</g>
</svg>
