<svg xmlns="http://www.w3.org/2000/svg" viewBox="0 0 120 120"><defs><style>.cls-1{fill:#7d30cc;}</style></defs><title>admin</title><g id="Layer_1" data-name="Layer 1"><path class="cls-1" d="M78.48,73.2c-5.92,0-8.79,3.3-18.48,3.3s-12.54-3.3-18.48-3.3a27.71,27.71,0,0,0-27.71,27.71v2a9.9,9.9,0,0,0,9.9,9.9H96.29a9.9,9.9,0,0,0,9.9-9.9v-2A27.71,27.71,0,0,0,78.48,73.2Zm21.11,29.69a3.3,3.3,0,0,1-3.3,3.3H23.71a3.3,3.3,0,0,1-3.3-3.3v-2A21.13,21.13,0,0,1,41.52,79.8c4,0,8.11,3.29,18.48,3.29,10.19,0,14.57-3.29,18.48-3.29a21.13,21.13,0,0,1,21.11,21.11ZM60,66.6A26.39,26.39,0,0,0,86.39,40.2v-33L73.2,13.81,60,7.21l-13.2,6.6L33.61,7.21v33A26.39,26.39,0,0,0,60,66.6ZM40.2,17.89l6.6,3.3L60,14.59l13.2,6.6,6.6-3.3V30.31H40.2Zm0,19H79.8V40.2a19.8,19.8,0,0,1-39.6,0Z"/></g></svg>