<?xml version="1.0" encoding="utf-8"?>
<!-- Generator: Adobe Illustrator 24.0.1, SVG Export Plug-In . SVG Version: 6.00 Build 0)  -->
<svg version="1.1" id="Layer_1" xmlns="http://www.w3.org/2000/svg" xmlns:xlink="http://www.w3.org/1999/xlink" x="0px" y="0px"
	 viewBox="0 0 120 120" style="enable-background:new 0 0 120 120;" xml:space="preserve">
<style type="text/css">
	.st0{fill:#7D30CC;}
</style>
<title>album</title>
<g id="Layer_1_1_">
	<path class="st0" d="M83.4,13.6H93c-1.4-4-5.2-6.7-9.5-6.7h-47c-4.3,0-8.1,2.7-9.5,6.7H83.4L83.4,13.6z"/>
	<path class="st0" d="M96.8,26.9h9.5c-1.4-4-5.2-6.7-9.5-6.7H23.2c-4.3,0-8.1,2.7-9.5,6.7H96.8z"/>
	<path class="st0" d="M103,33.4H17c-5.6,0-10.1,4.6-10.1,10.1V103c0,5.6,4.5,10.1,10.1,10.1h86c5.6,0,10.1-4.5,10.1-10.1V43.6
		C113.1,38,108.6,33.5,103,33.4z M13.7,43.6c0-1.8,1.5-3.4,3.3-3.4h86c1.9,0,3.4,1.5,3.4,3.4v37.6L88.5,63.3c-1.3-1.3-3.4-1.3-4.8,0
		L61,86.1L50.1,75.2c-0.6-0.6-1.5-1-2.4-1l0,0c-0.9,0-1.8,0.4-2.4,1l-29.9,30.1c-1-0.9-1.6-2-1.8-3.3V43.6z M106.3,100.8v2.2
		c0,1.9-1.5,3.4-3.4,3.4H23.9l23.8-24l10.9,10.8c1.3,1.3,3.5,1.3,4.8,0l22.8-22.7l20.2,20.2V100.8z"/>
	<path class="st0" d="M33.5,72.3c6.8,0,12.4-5.5,12.4-12.4c0-6.8-5.5-12.4-12.4-12.4c-6.8,0-12.4,5.5-12.4,12.4c0,0,0,0,0,0
		C21.1,66.8,26.6,72.3,33.5,72.3z M33.5,54.3c3.1,0,5.6,2.5,5.6,5.6s-2.5,5.6-5.6,5.6c-3.1,0-5.6-2.5-5.6-5.6
		C27.8,56.9,30.3,54.4,33.5,54.3C33.4,54.4,33.4,54.4,33.5,54.3L33.5,54.3z"/>
</g>
</svg>
