<svg xmlns="http://www.w3.org/2000/svg" viewBox="0 0 120 120"><defs><style>.cls-1{fill:#7d30cc;}</style></defs><title>album</title><g id="Layer_1" data-name="Layer 1"><path class="cls-1" d="M83.43,13.61H93a10.08,10.08,0,0,0-9.52-6.74h-47a10.1,10.1,0,0,0-9.52,6.74h56.5Z"/><path class="cls-1" d="M96.82,26.88h9.52a10.1,10.1,0,0,0-9.52-6.74H23.18a10.1,10.1,0,0,0-9.52,6.74H96.82Z"/><path class="cls-1" d="M103,33.43H17A10.13,10.13,0,0,0,6.91,43.56V103A10.13,10.13,0,0,0,17,113.12H103A10.13,10.13,0,0,0,113.09,103V43.56A10.13,10.13,0,0,0,103,33.43ZM13.66,43.56A3.39,3.39,0,0,1,17,40.18H103a3.39,3.39,0,0,1,3.38,3.38v37.6L88.53,63.34a3.39,3.39,0,0,0-4.77,0L61,86.05,50.11,75.16a3.34,3.34,0,0,0-2.39-1h0a3.35,3.35,0,0,0-2.39,1L15.46,105.29a5.47,5.47,0,0,1-1.8-3.33Zm92.68,57.24V103a3.39,3.39,0,0,1-3.38,3.38H23.9l23.84-24L58.61,93.2a3.38,3.38,0,0,0,4.77,0L86.14,70.5l20.2,20.21V100.8Z"/><path class="cls-1" d="M33.45,72.34A12.37,12.37,0,1,0,21.09,60,12.38,12.38,0,0,0,33.45,72.34Zm0-18A5.62,5.62,0,1,1,27.84,60,5.62,5.62,0,0,1,33.45,54.36Z"/></g></svg>