<svg xmlns="http://www.w3.org/2000/svg" viewBox="0 0 120 120"><title>anniversary</title><g id="Layer_1" data-name="Layer 1"><path d="M114,94.2l-6.62,2.46L98.65,73.33c10.77-6.08,15-19.56,8.84-30.26L91.07,14.63a6.05,6.05,0,0,0-5.24-3,6.19,6.19,0,0,0-2.3.45l-22.8,9.46a3.1,3.1,0,0,1-1.42,0L36.52,12.05a5.87,5.87,0,0,0-2.31-.45,6,6,0,0,0-5.23,3L12.53,43.07c-6.18,10.7-1.92,24.18,8.85,30.26L12.69,96.66,6.07,94.2a5.05,5.05,0,0,0-6.48,3,1,1,0,0,0,.58,1.3l26.45,9.87a1,1,0,0,0,1.3-.59,5,5,0,0,0-3-6.48l-6.61-2.46L27,75.68A22,22,0,0,0,54.29,60.42L60,39.16,65.7,60.37A22,22,0,0,0,93,75.62l8.62,23.13L95,101.21a5.06,5.06,0,0,0-3,6.49,1,1,0,0,0,1.3.58l26.45-9.87a1,1,0,0,0,.58-1.3A5,5,0,0,0,114,94.2ZM48.48,58.82c-3,11.11-14.72,13.42-22.24,10.3-9.19-3.8-13.35-14.56-8.45-23l4.82-8.36L51,49.5l-2.52,9.32ZM52.57,43.6,25.65,32.45l8.54-14.8L57,27.1ZM63,27.1l22.79-9.45,8.55,14.8L67.46,43.6Zm8.5,31.72L69.05,49.5,97.44,37.74l4.82,8.36c4.89,8.48.74,19.22-8.45,23C86.1,72.31,74.45,69.63,71.54,58.82Z"/></g></svg>