<svg xmlns="http://www.w3.org/2000/svg" viewBox="0 0 120 120"><title>attachment</title><g id="Layer_1" data-name="Layer 1"><path d="M38,112.79A26.63,26.63,0,0,1,19.12,67.33l54-54a20.8,20.8,0,1,1,29.42,29.42L56.67,88.62A15,15,0,0,1,35.51,67.45L70.62,32.33a2.49,2.49,0,0,1,3.5,0l1.17,1.17a2.47,2.47,0,0,1,0,3.5L40.17,72.12A8.37,8.37,0,0,0,52,84L97.91,38A14.2,14.2,0,1,0,77.83,18l-54,54a20,20,0,0,0,28.33,28.33L97,55.43a2.49,2.49,0,0,1,3.5,0l1.17,1.17a2.47,2.47,0,0,1,0,3.5L56.79,105A26.55,26.55,0,0,1,38,112.79Z"/></g></svg>