<?xml version="1.0" encoding="utf-8"?>
<!-- Generator: Adobe Illustrator 24.0.3, SVG Export Plug-In . SVG Version: 6.00 Build 0)  -->
<svg version="1.1" id="Layer_1" xmlns="http://www.w3.org/2000/svg" xmlns:xlink="http://www.w3.org/1999/xlink" x="0px" y="0px"
	 viewBox="0 0 120 120" style="enable-background:new 0 0 120 120;" xml:space="preserve">
<style type="text/css">
	.st0{fill:#8043C0;}
</style>
<title>rsvp</title>
<path class="st0" d="M42.9,59.8C55.7,59.8,66,49.4,66,36.7S55.7,13.5,42.9,13.5S19.8,23.9,19.8,36.7S30.1,59.8,42.9,59.8z
	 M42.9,19.3c9.6,0,17.3,7.8,17.3,17.3S52.5,54,42.9,54s-17.3-7.8-17.3-17.3S33.3,19.3,42.9,19.3z M116.4,56.2l-6.3-6.3
	c-1.1-1.1-2.6-1.7-4.1-1.7c-1.5,0-3,0.6-4.1,1.7L61.7,90.2l-1.4,12.3c-0.2,1.9,1.3,3.6,3.2,3.6c0.1,0,0.2,0,0.4,0l12.3-1.4
	l40.2-40.2C118.6,62.2,118.6,58.5,116.4,56.2L116.4,56.2z M73.5,99.1l-7.1,0.8l0.8-7.1l28.4-28.4l6.3,6.3L73.5,99.1L73.5,99.1z
	 M105.9,66.7l-6.3-6.3L106,54h0l0,0l6.3,6.3L105.9,66.7z M26.7,71.4c3.5,0,7.1,2.9,16.2,2.9c9.1,0,12.6-2.9,16.2-2.9
	c3.7,0,7.2,1.1,10.1,3.1l4.1-4.1c-4-2.9-8.9-4.7-14.2-4.7c-5.2,0-7.7,2.9-16.2,2.9s-11-2.9-16.2-2.9c-13.4,0-24.3,10.9-24.3,24.3
	v7.5c0,4.8,3.9,8.7,8.7,8.7h44c-0.5-1.3-0.7-2.8-0.6-4.2l0.2-1.6H11.1c-1.6,0-2.9-1.3-2.9-2.9v-7.5C8.2,79.7,16.5,71.4,26.7,71.4z"
	/>
</svg>
