<svg xmlns="http://www.w3.org/2000/svg" viewBox="0 0 120 120"><defs><style>.cls-1{fill:#7d30cc;}</style></defs><title>badminton</title><g id="Layer_1" data-name="Layer 1"><path class="cls-1" d="M106.14,46.82H93.45l2.14-15a6.59,6.59,0,0,0-7.46-7.46L73.18,26.55V13.86a6.59,6.59,0,0,0-6.59-6.6H57.71A6.63,6.63,0,0,0,51.78,11L27.47,61.63l-13.8,13.8a21.85,21.85,0,1,0,30.9,30.9l13.8-13.8L109,68.22a6.61,6.61,0,0,0,3.73-5.93V53.41A6.58,6.58,0,0,0,106.14,46.82ZM89.06,30.93,86.71,47.45,67.82,52.17l4.72-18.89,16.52-2.35ZM57.71,13.86h8.88V28.34l-21.1,11Zm7.21,22.78L60.32,55,42.24,73.1,33.5,64.37l7.25-15.14L64.92,36.64ZM13.85,90.9a15,15,0,0,1,4-10.22l21.46,21.47A15.21,15.21,0,0,1,13.85,90.9ZM44,97.53,22.46,76l6.63-6.64L50.66,90.9Zm11.6-11-8.74-8.73L65,59.69,83.36,55.1,70.77,79.26,55.63,86.51Zm50.51-24.24L80.68,74.5l11-21.09h14.48Z"/></g></svg>