<svg xmlns="http://www.w3.org/2000/svg" viewBox="0 0 120 120"><defs><style>.cls-1{fill:#7d30cc;}</style></defs><title>barcode_square</title><g id="Layer_1" data-name="Layer 1"><path class="cls-1" d="M39.39,7.26H9.73A1.66,1.66,0,0,0,8.08,8.91V40.22a1.65,1.65,0,0,0,1.65,1.65H13a1.65,1.65,0,0,0,1.65-1.65V13.86H39.39A1.66,1.66,0,0,0,41,12.21V8.91A1.66,1.66,0,0,0,39.39,7.26Zm0,98.88H14.67V79.78A1.65,1.65,0,0,0,13,78.13H9.73a1.65,1.65,0,0,0-1.65,1.65v31.31a1.66,1.66,0,0,0,1.65,1.65H39.39A1.66,1.66,0,0,0,41,111.09v-3.3A1.66,1.66,0,0,0,39.39,106.14ZM110.27,7.26H80.61A1.66,1.66,0,0,0,79,8.91v3.3a1.66,1.66,0,0,0,1.65,1.65h24.72V40.22A1.65,1.65,0,0,0,107,41.87h3.29a1.65,1.65,0,0,0,1.65-1.65V8.91A1.66,1.66,0,0,0,110.27,7.26Zm0,70.87H107a1.65,1.65,0,0,0-1.65,1.65v26.36H80.61A1.66,1.66,0,0,0,79,107.79v3.3a1.66,1.66,0,0,0,1.65,1.65h29.66a1.66,1.66,0,0,0,1.65-1.65V79.78A1.65,1.65,0,0,0,110.27,78.13ZM39.39,27H29.5a1.65,1.65,0,0,0-1.64,1.65V91.31A1.65,1.65,0,0,0,29.5,93h9.89A1.65,1.65,0,0,0,41,91.31V28.69A1.65,1.65,0,0,0,39.39,27Zm52.74,0H82.24a1.65,1.65,0,0,0-1.65,1.65V91.31A1.65,1.65,0,0,0,82.24,93h9.89a1.66,1.66,0,0,0,1.65-1.65V28.69A1.66,1.66,0,0,0,92.13,27ZM52.58,27h-3.3a1.65,1.65,0,0,0-1.65,1.65V91.31A1.65,1.65,0,0,0,49.28,93h3.3a1.65,1.65,0,0,0,1.64-1.65V28.69A1.65,1.65,0,0,0,52.58,27Zm13.18,0h-3.3a1.65,1.65,0,0,0-1.64,1.65V91.31A1.65,1.65,0,0,0,62.46,93h3.3a1.65,1.65,0,0,0,1.65-1.65V28.69A1.65,1.65,0,0,0,65.76,27Z"/></g></svg>