<svg xmlns="http://www.w3.org/2000/svg" viewBox="0 0 120 120"><defs><style>.cls-1{fill:#7d30cc;}</style></defs><title>basketball</title><g id="Layer_1" data-name="Layer 1"><path class="cls-1" d="M96.13,23.85a51.11,51.11,0,1,0,0,72.29A51.18,51.18,0,0,0,96.13,23.85ZM58.6,104.42A44.33,44.33,0,0,1,31,93.69l29-29,11.7,11.7a54.71,54.71,0,0,0-13.1,28.08ZM76.46,81.1,89,93.67a44.17,44.17,0,0,1-23.57,10.42A48,48,0,0,1,76.46,81.1Zm4.66-4.65a47.64,47.64,0,0,1,23-11A44.26,44.26,0,0,1,93.68,89Zm23.32-17.86A54.64,54.64,0,0,0,76.36,71.67L64.66,60l29-29a44.27,44.27,0,0,1,10.76,27.63ZM39.55,44.19A47.81,47.81,0,0,1,15.77,55.33,44.21,44.21,0,0,1,26.32,31ZM31,26.28A44.3,44.3,0,0,1,55.35,15.74,47.83,47.83,0,0,1,44.2,39.51ZM62,15.59A44.4,44.4,0,0,1,89,26.3l-29,29L48.86,44.19A54.3,54.3,0,0,0,62,15.59ZM15.61,62A54.46,54.46,0,0,0,44.2,48.84L55.35,60l-29,29A44.36,44.36,0,0,1,15.61,62Z"/></g></svg>