<svg xmlns="http://www.w3.org/2000/svg" viewBox="0 0 120 120"><defs><style>.cls-1{fill:#7d30cc;}</style></defs><title>bicep</title><g id="Layer_1" data-name="Layer 1"><path class="cls-1" d="M112.34,102.51a3.37,3.37,0,0,0-4.13-2.39c-21.1,5.6-51.24,10-75-.76C21.47,94,15.86,87,14.32,84.78c1.09-43.36,45.66-66,55-70.32,3.29,2.62,11.24,10,12.07,20.27C78,36.78,68.68,41.59,54.65,41.59H45.44A3.38,3.38,0,0,0,42.06,45V76.35a3.38,3.38,0,0,0,6.62,1C48.73,77.13,54,60,76.88,60s28.75,16.68,29,17.4a3.38,3.38,0,0,0,3.2,2.31,3.26,3.26,0,0,0,1.06-.17,3.38,3.38,0,0,0,2.15-4.26A32,32,0,0,0,105,64.13c-4.87-4.95-13.7-10.86-28.15-10.86C62.67,53.27,54,59,48.81,64.56V48.34h9.13a3.25,3.25,0,0,0,.89-.14c17.62-1.08,27.6-8.71,28.05-9.06a3.37,3.37,0,0,0,1.3-2.66c0-17.35-15.39-27.91-16.55-28.68l0,0,0,0-.13-.07A3.81,3.81,0,0,0,71,7.46l-.22-.07c-.14,0-.27-.09-.41-.12l-.23,0a3,3,0,0,0-.42,0l-.22,0a3.15,3.15,0,0,0-.43,0,1.82,1.82,0,0,0-.25.07l-.35.1A122.8,122.8,0,0,0,38.34,26.17C18.41,42.94,7.76,63.53,7.55,85.72A3.4,3.4,0,0,0,8,87.42c.24.42,6.11,10.51,21.87,17.83,10.83,5,23.4,7.54,37.63,7.54,12.83,0,27-2.05,42.45-6.15A3.38,3.38,0,0,0,112.34,102.51Z"/><path class="cls-1" d="M94.69,84.24c0,.06-3.8,5.64-19.49,5.64a3.38,3.38,0,0,0,0,6.75c20.26,0,25-8.41,25.53-9.37a3.38,3.38,0,0,0-6-3Z"/></g></svg>