<svg xmlns="http://www.w3.org/2000/svg" viewBox="0 0 120 120"><defs><style>.cls-1{fill:#7d30cc;}</style></defs><title>birthday</title><g id="Layer_1" data-name="Layer 1"><path class="cls-1" d="M33.61,27a6.58,6.58,0,0,1-6.6-6.6c0-6.39,6.6-4.74,6.6-13.2,2.47,0,6.59,6.08,6.59,11.55S37.27,27,33.61,27ZM60,27a6.58,6.58,0,0,1-6.6-6.6C53.4,14,60,15.67,60,7.21c2.47,0,6.6,6.08,6.6,11.55S63.66,27,60,27Zm26.39,0a6.57,6.57,0,0,1-6.59-6.6c0-6.39,6.59-4.74,6.59-13.2,2.48,0,6.6,6.08,6.6,11.55S90.05,27,86.39,27Zm9.9,33h-6.6V30.31h-6.6V60H63.3V30.31H56.7V60H36.91V30.31h-6.6V60h-6.6a9.9,9.9,0,0,0-9.9,9.9v42.89h92.38V69.9A9.9,9.9,0,0,0,96.29,60Zm3.3,46.19H20.41V91.33c3.34-2,4.93-4.94,8.81-4.94,5.77,0,6.45,6.6,15.42,6.6s9.73-6.6,15.36-6.6c5.8,0,6.43,6.6,15.41,6.6s9.65-6.6,15.42-6.6c3.81,0,5.41,3,8.76,4.94Zm0-23.17a12.53,12.53,0,0,0-8.76-3.22c-9,0-9.66,6.59-15.42,6.59S68.93,79.8,60,79.8s-9.74,6.59-15.36,6.59c-5.81,0-6.44-6.59-15.42-6.59A12.67,12.67,0,0,0,20.41,83V69.9a3.3,3.3,0,0,1,3.3-3.3H96.29a3.3,3.3,0,0,1,3.3,3.3Z"/></g></svg>