<svg xmlns="http://www.w3.org/2000/svg" viewBox="0 0 120 120"><defs><style>.cls-1{fill:#7d30cc;}</style></defs><title>book_clubs</title><g id="Layer_1" data-name="Layer 1"><path class="cls-1" d="M106.19,88V12.16a4.94,4.94,0,0,0-5-4.95H30.31a16.49,16.49,0,0,0-16.5,16.5V99.59A13.2,13.2,0,0,0,27,112.79h76.71a2.48,2.48,0,0,0,2.47-2.48v-1.65a2.48,2.48,0,0,0-2.47-2.47H103a39.17,39.17,0,0,1,.09-13.57A5,5,0,0,0,106.19,88ZM40.32,13.81H60V56.7l-9.9-7.47L40.32,56.7Zm56.86,92.38H27A6.6,6.6,0,0,1,27,93H97.18A47.05,47.05,0,0,0,97.18,106.19Zm2.41-19.8H27a13,13,0,0,0-6.6,1.84V23.71a9.9,9.9,0,0,1,9.9-9.9h3.3V63.14a3.45,3.45,0,0,0,5.5,2.78l11-8.36,11.09,8.35a3.41,3.41,0,0,0,2.06.69,3.46,3.46,0,0,0,3.46-3.46V13.81H99.59Z"/></g></svg>