<svg xmlns="http://www.w3.org/2000/svg" viewBox="0 0 120 120"><defs><style>.cls-1{fill:#7d30cc;}</style></defs><title>books</title><g id="Layer_1" data-name="Layer 1"><path class="cls-1" d="M87.38,40.09H52.53A2.5,2.5,0,0,1,50,37.6V35.94a2.5,2.5,0,0,1,2.49-2.49H87.38a2.5,2.5,0,0,1,2.49,2.49V37.6A2.5,2.5,0,0,1,87.38,40.09Zm2.49,10.78V49.21a2.49,2.49,0,0,0-2.49-2.48H52.53A2.49,2.49,0,0,0,50,49.21v1.66a2.5,2.5,0,0,0,2.49,2.49H87.38A2.5,2.5,0,0,0,89.87,50.87Zm13.42,55.59H104a2.5,2.5,0,0,1,2.49,2.49v1.66A2.5,2.5,0,0,1,104,113.1H30.13A16.6,16.6,0,0,1,13.54,96.5v-73A16.6,16.6,0,0,1,30.13,6.9h71.35a5,5,0,0,1,5,5V88.21a5,5,0,0,1-3.09,4.6A39.4,39.4,0,0,0,103.29,106.46ZM40.09,86.55H99.82v-73H40.09ZM20.18,89.87a16.55,16.55,0,0,1,10-3.32h3.32v-73H30.13a10,10,0,0,0-9.95,10ZM97.4,106.46a46.88,46.88,0,0,1,0-13.28H30.13c-13.27,0-13.27,13.28,0,13.28Z"/></g></svg>