<svg xmlns="http://www.w3.org/2000/svg" viewBox="0 0 120 120"><defs><style>.cls-1{fill:#7d30cc;}</style></defs><title>book_meetings</title><g id="Layer_1" data-name="Layer 1"><path class="cls-1" d="M96.46,6.9H30.18a10,10,0,0,0-10,10v9.91H16.87a3.33,3.33,0,1,0,0,6.65h3.31V46.73H16.87a3.33,3.33,0,1,0,0,6.65h3.31V66.64H16.87a3.33,3.33,0,1,0,0,6.65h3.31V86.55H16.87a3.33,3.33,0,1,0,0,6.65h3.31v9.89a10,10,0,0,0,10,10H96.46a10,10,0,0,0,10-10V16.91A10,10,0,0,0,96.46,6.9ZM26.93,103.09V93.2h2.91a3.34,3.34,0,1,0,0-6.65H26.93V73.29h2.91a3.34,3.34,0,1,0,0-6.65H26.93V53.38h2.91a3.34,3.34,0,1,0,0-6.65H26.93V33.47h2.91a3.58,3.58,0,0,0,3.61-3.33,3.57,3.57,0,0,0-3.61-3.32H26.93V16.91a3.26,3.26,0,0,1,3.25-3.26H40.35v92.7H30.18A3.26,3.26,0,0,1,26.93,103.09Zm72.78,0a3.26,3.26,0,0,1-3.25,3.26H47.1V13.65H96.46a3.26,3.26,0,0,1,3.25,3.26Z"/><path class="cls-1" d="M73.27,40.09A19.91,19.91,0,1,0,93.18,60,19.91,19.91,0,0,0,73.27,40.09Zm0,33.07A13.16,13.16,0,1,1,86.43,60,13.18,13.18,0,0,1,73.27,73.16Z"/><path class="cls-1" d="M76.65,58.6V53.38a3.38,3.38,0,1,0-6.75,0v8L75.52,67a3.38,3.38,0,0,0,4.78-4.77Z"/></g></svg>