<?xml version="1.0" encoding="utf-8"?>
<!-- Generator: Adobe Illustrator 24.0.1, SVG Export Plug-In . SVG Version: 6.00 Build 0)  -->
<svg version="1.1" id="Layer_1" xmlns="http://www.w3.org/2000/svg" xmlns:xlink="http://www.w3.org/1999/xlink" x="0px" y="0px"
	 viewBox="0 0 120 120" style="enable-background:new 0 0 120 120;" xml:space="preserve">
<style type="text/css">
	.st0{fill:#7D30CC;}
</style>
<title>book_clubs</title>
<g id="Layer_1_1_">
	<path class="st0" d="M106.2,88V12.2c0-2.7-2.2-4.9-4.9-5c0,0,0,0-0.1,0H30.3c-9.1,0-16.5,7.4-16.5,16.5c0,0,0,0,0,0v75.9
		c0,7.3,5.9,13.2,13.2,13.2h76.7c1.4,0,2.5-1.1,2.5-2.5v-1.7c0-1.4-1.1-2.5-2.5-2.5H103c-0.8-4.5-0.7-9.1,0.1-13.6
		C105,91.9,106.2,90,106.2,88z M40.3,13.8H60v42.9l-9.9-7.5l-9.8,7.5V13.8z M97.2,106.2H27c-3.6-0.1-6.5-3.2-6.3-6.9
		c0.1-3.4,2.9-6.2,6.3-6.3h70.2C96.6,97.4,96.6,101.8,97.2,106.2z M99.6,86.4H27c-2.3,0-4.6,0.6-6.6,1.8V23.7c0-5.5,4.4-9.9,9.9-9.9
		h3.3v49.3c0,1.9,1.5,3.5,3.4,3.5c0.7,0,1.5-0.2,2.1-0.7l11-8.4l11.1,8.3c0.6,0.4,1.3,0.7,2.1,0.7c1.9,0,3.5-1.5,3.5-3.5V13.8h32.9
		L99.6,86.4z"/>
</g>
</svg>
