<svg xmlns="http://www.w3.org/2000/svg" viewBox="0 0 120 120"><defs><style>.cls-1{fill:#7d30cc;}</style></defs><title>bowling</title><g id="Layer_1" data-name="Layer 1"><path class="cls-1" d="M60,8.91A51.09,51.09,0,1,0,111.09,60,51.09,51.09,0,0,0,60,8.91Zm0,95.59A44.5,44.5,0,1,1,104.5,60,44.56,44.56,0,0,1,60,104.5ZM40.22,40.22a6.6,6.6,0,1,0,6.6,6.6A6.59,6.59,0,0,0,40.22,40.22ZM63.3,33.63a6.6,6.6,0,1,0-6.6,6.59A6.59,6.59,0,0,0,63.3,33.63ZM60,46.82a6.59,6.59,0,1,0,6.59,6.59A6.58,6.58,0,0,0,60,46.82Z"/></g></svg>