<svg xmlns="http://www.w3.org/2000/svg" viewBox="0 0 120 120"><defs><style>.cls-1{fill:#7d30cc;}</style></defs><title>boxing</title><g id="Layer_1" data-name="Layer 1"><path class="cls-1" d="M65.85,81.59l1.48,2.94a1.61,1.61,0,0,1-.74,2.21l-5.81,2.92,5.81,2.91a1.62,1.62,0,0,1,.74,2.2l-1.48,3a1.63,1.63,0,0,1-2.2.74L53.41,93.35,43.17,98.46a1.62,1.62,0,0,1-2.2-.74l-1.49-3a1.62,1.62,0,0,1,.74-2.2L46,89.66l-5.81-2.9a1.63,1.63,0,0,1-.74-2.2l1.49-3a1.63,1.63,0,0,1,2.2-.74L53.41,86l10.24-5.11a1.64,1.64,0,0,1,2.2.72Zm27.6,2.86-7.08,6.64v15a6.59,6.59,0,0,1-6.59,6.6H27a6.59,6.59,0,0,1-6.59-6.6V86.37L16.93,66.49A229.84,229.84,0,0,1,13.86,29.1,21.79,21.79,0,0,1,35.53,7.26h36A21.67,21.67,0,0,1,93,29.1v9c7.66,2.6,13.18,9.46,13.18,17.59A39.22,39.22,0,0,1,93.45,84.45Zm-4.51-4.82a32.61,32.61,0,0,0,10.61-24c0-6.69-5.91-12.15-13.18-12.15H79.94a10,10,0,0,0-10,9.7,9.86,9.86,0,0,0,8.46,10,1.7,1.7,0,0,1,1.43,1.67v3.3A1.66,1.66,0,0,1,78,69.81,16.5,16.5,0,0,1,63.3,53.43a16.28,16.28,0,0,1,1.4-6.59H46.26a25.62,25.62,0,0,1-16.95-6.35,1.65,1.65,0,0,1-.09-2.41l2.33-2.33a1.67,1.67,0,0,1,2.25-.08,19.1,19.1,0,0,0,12.46,4.6H69.89v.08A16.38,16.38,0,0,1,79.78,37h6.59V29.14A14.87,14.87,0,0,0,71.54,13.9h-36A15.11,15.11,0,0,0,20.45,29.1c0,30.82,6.53,52,6.55,57.27h5A1.65,1.65,0,0,1,33.63,88v3.29A1.65,1.65,0,0,1,32,93H27l0,13.18H79.78V93h-5a1.66,1.66,0,0,1-1.65-1.65V88a1.66,1.66,0,0,1,1.65-1.65h6.94Z"/></g></svg>