<svg xmlns="http://www.w3.org/2000/svg" viewBox="0 0 120 120"><title>bug</title><g id="Layer_1" data-name="Layer 1"><path d="M112.79,63.3H99.59v-25L106.87,31a3.3,3.3,0,0,0-4.66-4.67l-7.28,7.29H86.6a26.4,26.4,0,1,0-52.79,0H25.07l-8.93-8.94a3.3,3.3,0,0,0-4.66,4.67l8.93,8.93v25H7.21a3.3,3.3,0,1,0,0,6.6h13.2v4.95a36.13,36.13,0,0,0,6.28,20.39L14.78,107.16a3.3,3.3,0,0,0,4.66,4.66l11.47-11.47A36.15,36.15,0,0,0,56.7,111.14h6.6a36.15,36.15,0,0,0,25.79-10.79l11.47,11.47a3.3,3.3,0,0,0,4.66-4.66L93.31,95.24a36.13,36.13,0,0,0,6.28-20.39V69.9h13.2a3.3,3.3,0,1,0,0-6.6ZM60.21,13.81A19.79,19.79,0,0,1,80,33.61H40.41A19.79,19.79,0,0,1,60.21,13.81Zm3.09,90.73V55.88a2.48,2.48,0,0,0-2.48-2.48H59.18a2.48,2.48,0,0,0-2.48,2.48v48.66A29.73,29.73,0,0,1,27,74.85V40.2H93V74.85A29.73,29.73,0,0,1,63.3,104.54Z"/></g></svg>