<svg xmlns="http://www.w3.org/2000/svg" viewBox="0 0 120 120"><title>calendar_cancel</title><g id="Layer_1" data-name="Layer 1"><path d="M96.29,20.41h-9.9V9.69a2.48,2.48,0,0,0-2.47-2.48H82.27A2.48,2.48,0,0,0,79.8,9.69V20.41H40.2V9.69a2.48,2.48,0,0,0-2.47-2.48H36.08a2.48,2.48,0,0,0-2.47,2.48V20.41h-9.9a9.9,9.9,0,0,0-9.9,9.9v72.58a9.9,9.9,0,0,0,9.9,9.9H96.29a9.9,9.9,0,0,0,9.9-9.9V30.31A9.9,9.9,0,0,0,96.29,20.41ZM23.71,27H96.29a3.3,3.3,0,0,1,3.3,3.3V40.2H20.41V30.31A3.3,3.3,0,0,1,23.71,27Zm72.58,79.18H23.71a3.31,3.31,0,0,1-3.3-3.3V46.8H99.59v56.09A3.31,3.31,0,0,1,96.29,106.19ZM74.58,86.41a2.48,2.48,0,0,1,0,3.51L73.4,91.1a2.49,2.49,0,0,1-3.5,0L60,81.16l-9.92,9.91a2.47,2.47,0,0,1-3.5,0L45.4,89.9a2.48,2.48,0,0,1,0-3.51l9.92-9.91L45.4,66.56a2.48,2.48,0,0,1,0-3.51l1.18-1.17a2.47,2.47,0,0,1,3.5,0L60,71.79l9.92-9.91a2.47,2.47,0,0,1,3.5,0l1.18,1.17a2.48,2.48,0,0,1,0,3.51L64.66,76.5Z"/></g></svg>