<svg xmlns="http://www.w3.org/2000/svg" viewBox="0 0 120 120"><defs><style>.cls-1{fill:#7d30cc;}</style></defs><title>calendar</title><g id="Layer_1" data-name="Layer 1"><path class="cls-1" d="M96.29,20.41h-9.9V9.69a2.48,2.48,0,0,0-2.47-2.48H82.27A2.48,2.48,0,0,0,79.8,9.69V20.41H40.2V9.69a2.48,2.48,0,0,0-2.47-2.48H36.08a2.48,2.48,0,0,0-2.47,2.48V20.41h-9.9a9.9,9.9,0,0,0-9.9,9.9v72.58a9.9,9.9,0,0,0,9.9,9.9H96.29a9.9,9.9,0,0,0,9.9-9.9V30.31A9.9,9.9,0,0,0,96.29,20.41ZM23.71,27H96.29a3.3,3.3,0,0,1,3.3,3.3V40.2H20.41V30.31A3.3,3.3,0,0,1,23.71,27Zm72.58,79.18H23.71a3.31,3.31,0,0,1-3.3-3.3V46.8H99.59v56.09A3.31,3.31,0,0,1,96.29,106.19Zm-52-33H36.08a2.48,2.48,0,0,1-2.47-2.48V62.47A2.48,2.48,0,0,1,36.08,60h8.25a2.48,2.48,0,0,1,2.47,2.47v8.25A2.48,2.48,0,0,1,44.33,73.2Zm19.79,0H55.88a2.49,2.49,0,0,1-2.48-2.48V62.47A2.48,2.48,0,0,1,55.88,60h8.24a2.48,2.48,0,0,1,2.48,2.47v8.25A2.49,2.49,0,0,1,64.12,73.2Zm19.8,0H75.67a2.48,2.48,0,0,1-2.47-2.48V62.47A2.48,2.48,0,0,1,75.67,60h8.25a2.48,2.48,0,0,1,2.47,2.47v8.25A2.48,2.48,0,0,1,83.92,73.2ZM64.12,93H55.88a2.48,2.48,0,0,1-2.48-2.47V82.27a2.48,2.48,0,0,1,2.48-2.47h8.24a2.48,2.48,0,0,1,2.48,2.47v8.25A2.48,2.48,0,0,1,64.12,93ZM44.33,93H36.08a2.48,2.48,0,0,1-2.47-2.47V82.27a2.48,2.48,0,0,1,2.47-2.47h8.25a2.48,2.48,0,0,1,2.47,2.47v8.25A2.48,2.48,0,0,1,44.33,93Zm39.59,0H75.67a2.48,2.48,0,0,1-2.47-2.47V82.27a2.48,2.48,0,0,1,2.47-2.47h8.25a2.48,2.48,0,0,1,2.47,2.47v8.25A2.48,2.48,0,0,1,83.92,93Z"/></g></svg>