<svg xmlns="http://www.w3.org/2000/svg" viewBox="0 0 120 120"><defs><style>.cls-1{fill:#7d30cc;}</style></defs><title>camera</title><g id="Layer_1" data-name="Layer 1"><path class="cls-1" d="M74.17,20.18a1.67,1.67,0,0,1,1.55,1.08L80.3,33.45h22.84a3.33,3.33,0,0,1,3.32,3.32V96.5a3.32,3.32,0,0,1-3.32,3.32H16.86a3.32,3.32,0,0,1-3.32-3.32V36.77a3.33,3.33,0,0,1,3.32-3.32H39.72l4.16-11.11A3.34,3.34,0,0,1,47,20.18H74.17m0-6.64H47A10,10,0,0,0,37.68,20l-2.57,6.83H16.86a10,10,0,0,0-10,10V96.5a10,10,0,0,0,10,10h86.28a10,10,0,0,0,10-10V36.77a10,10,0,0,0-10-10H84.89l-3-7.89a8.25,8.25,0,0,0-7.75-5.39ZM60,91.53A24.89,24.89,0,1,1,84.89,66.64,24.91,24.91,0,0,1,60,91.53Zm0-43.14A18.25,18.25,0,1,0,78.25,66.64,18.27,18.27,0,0,0,60,48.39Z"/></g></svg>