<svg xmlns="http://www.w3.org/2000/svg" viewBox="0 0 120 120"><title>celebration</title><g id="Layer_1" data-name="Layer 1"><path d="M85.21,30.65h.51a4.66,4.66,0,0,1,4.74,4.74h0v.52a1.9,1.9,0,0,0,3.8,0v-.52h0A4.68,4.68,0,0,1,99,30.65h.52a1.9,1.9,0,1,0,0-3.8H99a4.66,4.66,0,0,1-4.74-4.73h0V21.6a1.9,1.9,0,0,0-3.8,0v.51h0a4.65,4.65,0,0,1-4.74,4.73h-.51a1.9,1.9,0,1,0,0,3.8Z"/><path d="M111,73.1h-.52a4.66,4.66,0,0,1-4.73-4.74h0v-.52a1.91,1.91,0,0,0-3.81,0v.52h0a4.66,4.66,0,0,1-4.73,4.74h-.52a1.9,1.9,0,0,0,0,3.8h.52A4.65,4.65,0,0,1,102,81.64h0v.52a1.91,1.91,0,0,0,3.81,0v-.52h0a4.65,4.65,0,0,1,4.73-4.74H111a1.9,1.9,0,0,0,0-3.8Z"/><path d="M39.18,19.35h.52a4.65,4.65,0,0,1,4.74,4.73h0v.52a1.9,1.9,0,0,0,3.8,0v-.52h0A4.65,4.65,0,0,1,53,19.36h.52a1.9,1.9,0,0,0,0-3.8H53a4.65,4.65,0,0,1-4.74-4.73h0V10.3a1.9,1.9,0,1,0-3.8,0v.51h0a4.65,4.65,0,0,1-4.74,4.73h-.52a1.9,1.9,0,1,0,0,3.8Z"/><path d="M65.53,55.58a3.44,3.44,0,0,0,4.85,0L85,41a3.43,3.43,0,1,0-4.84-4.85L65.53,50.74A3.43,3.43,0,0,0,65.53,55.58Z"/><path d="M42.34,38.86a3.42,3.42,0,0,0-5.55,1L7.35,106.8a3.42,3.42,0,0,0,3.13,4.8,3.32,3.32,0,0,0,1.38-.29l66.9-29.43a3.45,3.45,0,0,0,2-2.51,3.41,3.41,0,0,0-.94-3.05ZM41,47.25,52.22,58.43l0,26.46a3.41,3.41,0,0,0,.2,1.11L39.79,91.54l.08-40.89a3.08,3.08,0,0,0-.06-.61ZM33,65.53l-.05,29L17.16,101.5ZM59,83.08l0-17.82L71.42,77.62Z"/><path d="M95.84,62.53a22.11,22.11,0,0,0-21.21-5.37,3.42,3.42,0,1,0,1.64,6.65,15.3,15.3,0,0,1,14.9,3.74,3.43,3.43,0,0,0,4.67-5Z"/><path d="M53.56,29.94a15.35,15.35,0,0,1,3.75,14.91A3.41,3.41,0,0,0,59.81,49a3.34,3.34,0,0,0,.82.1A3.43,3.43,0,0,0,64,46.49a22.11,22.11,0,0,0-5.38-21.21,3.42,3.42,0,1,0-5,4.66Z"/></g></svg>