<svg xmlns="http://www.w3.org/2000/svg" viewBox="0 0 120 120"><defs><style>.cls-1{fill:#7d30cc;}</style></defs><title>check_stroke_circle</title><g id="Layer_1" data-name="Layer 1"><path class="cls-1" d="M60,8.76A51.24,51.24,0,1,0,111.24,60,51.24,51.24,0,0,0,60,8.76Zm0,95.87A44.63,44.63,0,1,1,104.63,60,44.63,44.63,0,0,1,60,104.63ZM89.26,47.82,52,84.81a2.48,2.48,0,0,1-3.5,0L30.73,66.91a2.48,2.48,0,0,1,0-3.51l1.76-1.75a2.49,2.49,0,0,1,3.51,0L50.26,76,84,42.54a2.48,2.48,0,0,1,3.51,0l1.74,1.76a2.48,2.48,0,0,1,0,3.51Z"/></g></svg>