<svg xmlns="http://www.w3.org/2000/svg" viewBox="0 0 120 120"><title>cheerleading</title><g id="Layer_1" data-name="Layer 1"><path d="M107.89,20.68h-2.73a2.38,2.38,0,0,0-2.37,2.37v2.52L17.21,45.7V45a2.37,2.37,0,0,0-2.37-2.37H12.1A2.37,2.37,0,0,0,9.74,45v30.1a2.37,2.37,0,0,0,2.36,2.37h2.74a2.37,2.37,0,0,0,2.37-2.37V74.3L37.37,79a16,16,0,0,0-.27,2.85A17.44,17.44,0,0,0,54.53,99.31,17.27,17.27,0,0,0,71.08,87l31.71,7.46V97a2.38,2.38,0,0,0,2.37,2.37h2.73A2.38,2.38,0,0,0,110.26,97V23.05A2.38,2.38,0,0,0,107.89,20.68Zm-44,64.59A9.93,9.93,0,0,1,44.58,81.9a9.12,9.12,0,0,1,.08-1.14Zm38.94-52V86.76L17.21,66.62V53.38Z"/></g></svg>