<svg xmlns="http://www.w3.org/2000/svg" viewBox="0 0 120 120"><title>chess</title><g id="Layer_1" data-name="Layer 1"><path d="M60,17.15a4.95,4.95,0,1,0-4.94-4.94A4.94,4.94,0,0,0,60,17.15ZM84.55,97l-4.77-2.38v-3.3a4.88,4.88,0,0,0-4.32-4.81,96.72,96.72,0,0,1-2.28-20.62V60h4.95a1.65,1.65,0,0,0,1.65-1.65V55.06a1.65,1.65,0,0,0-1.65-1.65H73.52L84,27.82a1.54,1.54,0,0,0-.53-2l-2.29-1.53a1.42,1.42,0,0,0-.82-.25,1.69,1.69,0,0,0-1.33.7,4.58,4.58,0,0,1-3.66,1.83,5.24,5.24,0,0,1-.88-.08,4.78,4.78,0,0,1-3.73-4.78,1.29,1.29,0,0,0-1.29-1.29H65.75a1.22,1.22,0,0,0-1.23.95,4.62,4.62,0,0,1-9,0,1.22,1.22,0,0,0-1.23-.95H50.52a1.29,1.29,0,0,0-1.29,1.29h0a4.78,4.78,0,0,1-4.29,4.85h-.32a4.6,4.6,0,0,1-3.68-1.85,1.64,1.64,0,0,0-1.3-.69,1.53,1.53,0,0,0-.83.25l-2.29,1.54a1.54,1.54,0,0,0-.53,2L46.48,53.41H41.87a1.65,1.65,0,0,0-1.65,1.65v3.29A1.65,1.65,0,0,0,41.87,60h5v5.88A97.36,97.36,0,0,1,44.55,86.5a4.88,4.88,0,0,0-4.33,4.81v3.3L35.46,97a3.3,3.3,0,0,0-1.83,3v9.5a3.3,3.3,0,0,0,3.3,3.3H83.07a3.3,3.3,0,0,0,3.3-3.3v-9.5a3.31,3.31,0,0,0-1.82-3ZM45.31,33.17h.07a11,11,0,0,0,7.69-3.91,11.16,11.16,0,0,0,13.84,0A11,11,0,0,0,73.31,33a12.39,12.39,0,0,0,1.38.17l-8.3,20.22H53.61Zm23.36,53.2H51.33a103.75,103.75,0,0,0,2.08-20.49V60H66.59v5.88A103.75,103.75,0,0,0,68.67,86.37Zm11.11,19.77H40.22V102l6.6-3.3V93H73.18v5.72l6.6,3.3Z"/></g></svg>