<?xml version="1.0" encoding="utf-8"?>
<!-- Generator: Adobe Illustrator 24.0.1, SVG Export Plug-In . SVG Version: 6.00 Build 0)  -->
<svg version="1.1" id="Layer_1" xmlns="http://www.w3.org/2000/svg" xmlns:xlink="http://www.w3.org/1999/xlink" x="0px" y="0px"
	 viewBox="0 0 39 29.7" style="enable-background:new 0 0 39 29.7;" xml:space="preserve">
<style type="text/css">
	.st0{fill:#D165DB;}
</style>
<g>
	<path class="st0" d="M28.3,29.5l-5.9-4.8c2.9-1.5,6.8-5.4,7.7-8.7c-0.4,0.1-1.2,0.3-2.1,0.3c-3.9,0-7.1-3-7.1-7.5
		c0-4.7,3.9-8.6,8.4-8.6c5,0,9.5,4,9.5,10.7C38.8,18.4,34.7,24.9,28.3,29.5z M7.6,29.5l-5.9-4.8c2.9-1.5,6.7-5.4,7.7-8.7
		c-0.4,0.1-1.2,0.3-2.1,0.3c-4,0-7.1-3-7.1-7.5c0-4.7,3.9-8.6,8.4-8.6c5,0,9.5,4,9.5,10.7C18.1,18.4,14,24.9,7.6,29.5z"/>
</g>
</svg>
