<svg xmlns="http://www.w3.org/2000/svg" viewBox="0 0 120 120"><defs><style>.cls-1{fill:#7d30cc;}</style></defs><title>close_circle</title><g id="Layer_1" data-name="Layer 1"><path class="cls-1" d="M60,8.76A51.24,51.24,0,1,0,111.24,60,51.24,51.24,0,0,0,60,8.76Zm0,95.87A44.63,44.63,0,1,1,104.63,60,44.63,44.63,0,0,1,60,104.63ZM79.59,45.68,65.27,60,79.59,74.32a2.48,2.48,0,0,1,0,3.51l-1.76,1.76a2.48,2.48,0,0,1-3.51,0L60,65.27,45.68,79.59a2.48,2.48,0,0,1-3.51,0l-1.76-1.76a2.48,2.48,0,0,1,0-3.51L54.73,60,40.41,45.68a2.48,2.48,0,0,1,0-3.51l1.76-1.76a2.48,2.48,0,0,1,3.51,0L60,54.73,74.32,40.41a2.48,2.48,0,0,1,3.51,0l1.76,1.76a2.52,2.52,0,0,1,0,3.51Z"/></g></svg>