<svg xmlns="http://www.w3.org/2000/svg" viewBox="0 0 120 120"><defs><style>.cls-1{fill:#7d30cc;}</style></defs><title>close</title><g id="Layer_1" data-name="Layer 1"><path class="cls-1" d="M67,60,88.31,38.73l4.39-4.39a1.65,1.65,0,0,0,0-2.34L88,27.3a1.68,1.68,0,0,0-2.35,0L60,53,34.34,27.3a1.65,1.65,0,0,0-2.34,0L27.3,32a1.66,1.66,0,0,0,0,2.35L53,60,27.3,85.66a1.66,1.66,0,0,0,0,2.35L32,92.7a1.66,1.66,0,0,0,2.35,0L60,67,81.27,88.31l4.39,4.39a1.66,1.66,0,0,0,2.35,0L92.7,88a1.66,1.66,0,0,0,0-2.35Z"/></g></svg>