<svg xmlns="http://www.w3.org/2000/svg" viewBox="0 0 120 120"><title>cloud_sun</title><g id="Layer_1" data-name="Layer 1"><path d="M120,60.43c0-9.68-7.54-17.53-16.8-17.53h-.09a19.92,19.92,0,0,0-37.67.94A17,17,0,0,0,55.18,54.13,18,18,0,0,0,39,72c0,.34,0,.69,0,1.05a18,18,0,0,0,6,35H90a18,18,0,0,0,18-18,17.82,17.82,0,0,0-4.65-12C112.54,77.87,120,70.05,120,60.43ZM90,102H45a12,12,0,0,1-2.1-23.81L46,77.64l-.67-3A12,12,0,0,1,67.84,66.9l1.61,3.45,3-2.38A8.88,8.88,0,0,1,78,66a9,9,0,0,1,9,9v3h3a12,12,0,0,1,0,24Zm13.2-30H92.68A15,15,0,0,0,78,59.94a14.8,14.8,0,0,0-6.45,1.48,18.15,18.15,0,0,0-10-6.84,10.65,10.65,0,0,1,8.76-5.64c1-7.37,6.94-13,14.12-13,7.56,0,13.67,6.25,14.23,14.16a10,10,0,0,1,4.5-1.18c6,0,10.8,5.15,10.8,11.53S109.16,72,103.2,72ZM31,70.52a2.82,2.82,0,0,0-1.24-.32,3.9,3.9,0,0,0-.58,0L17.36,72.6l2.35-11.85a3.09,3.09,0,0,0-1.28-3.1l-10-6.71,10-6.71a3,3,0,0,0,1.28-3.09L17.36,29.29l11.85,2.34a3,3,0,0,0,3.08-1.28l6.71-10,6.71,10.05a3,3,0,0,0,3.08,1.28L60.64,29.3,58.37,40.78a21.26,21.26,0,0,1,2.44-1.46,26.93,26.93,0,0,1,5.49-7.73l1.09-5.53a3,3,0,0,0-.83-2.7,2.92,2.92,0,0,0-2.7-.82L49.58,25.37,41.49,13.25a3.11,3.11,0,0,0-5,0l-8.1,12.12L14.12,22.52a3,3,0,0,0-2.7.82,3,3,0,0,0-.83,2.7l2.84,14.31-12.1,8.1a3,3,0,0,0,0,5l12.09,8.1L10.59,75.82a3,3,0,0,0,.83,2.7,3,3,0,0,0,2.7.83l10.55-2.08A23.91,23.91,0,0,1,31,70.52Zm8-30.43a10.83,10.83,0,0,1,10.67,9.15c.45-.15.9-.34,1.37-.45a24.09,24.09,0,0,1,3.37-4.6A16.82,16.82,0,1,0,33.62,66.84a23.77,23.77,0,0,1,2-5.64A10.82,10.82,0,0,1,39,40.09Z"/></g></svg>