<svg xmlns="http://www.w3.org/2000/svg" viewBox="0 0 120 120"><title>clouds</title><g id="Layer_1" data-name="Layer 1"><path d="M101.94,69.06A16.52,16.52,0,0,0,85.5,54a16.71,16.71,0,0,0-3.88.51A20.67,20.67,0,0,0,84,45,21,21,0,0,0,63,24a20.41,20.41,0,0,0-5.81.84A24.15,24.15,0,0,0,36,12,23.84,23.84,0,0,0,12.54,31.46,17.65,17.65,0,0,0,17.66,66H36.45A22.3,22.3,0,0,0,36,70.5v.07A19.46,19.46,0,0,0,43.5,108h57a19.5,19.5,0,0,0,1.44-38.94ZM17.66,60a11.64,11.64,0,0,1-1.95-23.12L18,36.51l.23-2.27A17.9,17.9,0,0,1,52.8,29.68l1.13,3,2.9-1.31A14.95,14.95,0,0,1,74.31,54.79,22.09,22.09,0,0,0,38.72,60Zm82.84,42h-57A13.47,13.47,0,0,1,40,75.52l2.5-.67-.38-3.23A8.49,8.49,0,0,1,42,70.5a16.44,16.44,0,0,1,31-7.73l2,3.72,2.85-3.1A10.41,10.41,0,0,1,85.5,60,10.51,10.51,0,0,1,96,70.5a12.6,12.6,0,0,1-.15,1.29l-.47,3.75,4.41-.45a5.34,5.34,0,0,1,.71-.07,13.49,13.49,0,1,1,0,27Z"/></g></svg>