<svg xmlns="http://www.w3.org/2000/svg" viewBox="0 0 120 120"><defs><style>.cls-1{fill:#7d30cc;}</style></defs><title>cloud_moon</title><g id="Layer_1" data-name="Layer 1"><path class="cls-1" d="M86.27,72A14.77,14.77,0,0,0,71.79,60,17.71,17.71,0,0,0,54.1,42.32h-1a17.68,17.68,0,0,0-33.34,0h-1a17.68,17.68,0,1,0,0,35.36h7.51a17.64,17.64,0,0,0,13.12,29.48H83.58A17.69,17.69,0,0,0,86.27,72Zm-67.53-.2a11.79,11.79,0,0,1,0-23.58h5.65l.48-2.36a11.79,11.79,0,0,1,23.1,0l.48,2.36H54.1A11.8,11.8,0,0,1,65.89,60a11.45,11.45,0,0,1-.18,1.36l-.26.1a17.65,17.65,0,0,0-32,10.33Zm64.84,29.47H39.37A11.77,11.77,0,0,1,37.3,77.9l3-.53-.66-3a12.13,12.13,0,0,1-.31-2.56,11.75,11.75,0,0,1,22.41-5l1.59,3.39,2.91-2.34a8.79,8.79,0,0,1,14.33,6.87v3h3a11.78,11.78,0,0,1,0,23.56Zm35-42.48a4.27,4.27,0,0,0-3.85-2.45h-.28l-.53.08a20.51,20.51,0,0,1-3.65.35,19,19,0,0,1-9.41-35.5,4.17,4.17,0,0,0,2.1-4.4,4.23,4.23,0,0,0-3.45-3.48,29.13,29.13,0,0,0-5.67-.54A31.08,31.08,0,0,0,63.22,38.3a23.08,23.08,0,0,1,5.56,3.34,25.08,25.08,0,0,1,25-22.9h.35a24.84,24.84,0,0,0,16.08,43.91h.18a25.15,25.15,0,0,1-15.67,6.12,23.62,23.62,0,0,1,6.35,5.1A31.09,31.09,0,0,0,118,63.3a4.24,4.24,0,0,0,.57-4.52Z"/></g></svg>