<svg xmlns="http://www.w3.org/2000/svg" viewBox="0 0 120 120"><defs><style>.cls-1{fill:#7d30cc;}</style></defs><title>communications</title><g id="Layer_1" data-name="Layer 1"><path class="cls-1" d="M64.23,36.38a6.61,6.61,0,1,0-8.46,0L30.38,108.31a3.36,3.36,0,0,0,5.17,3.82L60,94.08l24.45,18a3.36,3.36,0,0,0,5.17-3.82ZM67.55,66H52.45L60,44.59ZM40.37,100.21l5.77-16.36,8.2,6.05Zm8.4-22.77-.29-.2,1.59-4.52H69.93l1.59,4.52-.29.2L60,85.72ZM65.66,89.9l8.2-6.05,5.77,16.36Z"/><path class="cls-1" d="M34.13,54.59a3.36,3.36,0,0,0,.38-4.74A31.23,31.23,0,0,1,28.29,31a28.7,28.7,0,0,1,6.14-18.13,3.37,3.37,0,0,0-4.95-4.56C29.16,8.64,21.57,17,21.57,31a38,38,0,0,0,7.82,23.24,3.35,3.35,0,0,0,4.74.37Z"/><path class="cls-1" d="M90.52,8.29a3.36,3.36,0,0,0-4.94,4.57c.07.07,6.13,6.73,6.13,18.12a31.62,31.62,0,0,1-6.22,18.87,3.37,3.37,0,0,0,5.12,4.37A38,38,0,0,0,98.43,31C98.43,17,90.84,8.64,90.52,8.29Z"/><path class="cls-1" d="M44.27,45.49a3.36,3.36,0,0,0,.9-4.64c-.09-.14-1.91-3.2-1.91-9.55s1.82-9.4,1.91-9.54A3.36,3.36,0,0,0,39.6,18c-.32.46-3.06,4.71-3.06,13.3h0c0,8.59,2.74,12.84,3.06,13.3A3.36,3.36,0,0,0,44.27,45.49Z"/><path class="cls-1" d="M75.73,45.49a3.36,3.36,0,0,0,4.67-.88c.32-.46,3.06-4.71,3.06-13.3h0c0-8.59-2.74-12.84-3.06-13.3a3.36,3.36,0,0,0-5.57,3.76c.09.14,1.91,3.2,1.91,9.54s-1.82,9.41-1.91,9.55A3.36,3.36,0,0,0,75.73,45.49Z"/></g></svg>