<?xml version="1.0" encoding="utf-8"?>
<!-- Generator: Adobe Illustrator 24.0.1, SVG Export Plug-In . SVG Version: 6.00 Build 0)  -->
<svg version="1.1" id="Layer_1" xmlns="http://www.w3.org/2000/svg" xmlns:xlink="http://www.w3.org/1999/xlink" x="0px" y="0px"
	 viewBox="0 0 120 120" style="enable-background:new 0 0 120 120;" xml:space="preserve">
<style type="text/css">
	.st0{fill:#7D30CC;}
</style>
<title>communications</title>
<g id="Layer_1_1_">
	<path class="st0" d="M64.2,36.4c2.8-2.3,3.2-6.5,0.8-9.3c-2.3-2.8-6.5-3.2-9.3-0.8s-3.2,6.5-0.8,9.3c0.3,0.3,0.5,0.6,0.8,0.8
		l-25.4,71.9c-0.6,1.7,0.3,3.7,2,4.3c1.1,0.4,2.2,0.2,3.1-0.5l24.5-18l24.4,18c1.5,1.1,3.6,0.8,4.7-0.7c0.7-0.9,0.8-2.1,0.5-3.1
		L64.2,36.4z M67.6,66H52.5L60,44.6L67.6,66z M40.4,100.2l5.8-16.4l8.2,6.1L40.4,100.2z M48.8,77.4l-0.3-0.2l1.6-4.5h19.9l1.6,4.5
		l-0.3,0.2L60,85.7L48.8,77.4z M65.7,89.9l8.2-6.1l5.8,16.4L65.7,89.9z"/>
	<path class="st0" d="M34.1,54.6c1.4-1.2,1.6-3.3,0.4-4.7c0,0,0,0,0,0c-4.1-5.4-6.3-12.1-6.2-18.8c-0.1-6.6,2.1-13,6.1-18.1
		c1.2-1.4,1-3.6-0.5-4.7c-1.3-1.1-3.3-1-4.5,0.2C29.2,8.6,21.6,17,21.6,31c0,8.4,2.7,16.6,7.8,23.2C30.6,55.7,32.7,55.8,34.1,54.6
		C34.1,54.6,34.1,54.6,34.1,54.6L34.1,54.6z"/>
	<path class="st0" d="M90.5,8.3c-1.3-1.4-3.4-1.4-4.8-0.2c-1.4,1.3-1.4,3.4-0.2,4.8c0.1,0.1,6.1,6.7,6.1,18.1
		c0,6.8-2.2,13.4-6.2,18.9c-1.1,1.5-0.9,3.6,0.6,4.7c1.4,1.1,3.3,0.9,4.5-0.4c5.1-6.7,7.8-14.8,7.8-23.2C98.4,17,90.8,8.6,90.5,8.3z
		"/>
	<path class="st0" d="M44.3,45.5c1.5-1,1.9-3.1,0.9-4.6c-0.1-0.1-1.9-3.2-1.9-9.5s1.8-9.4,1.9-9.5c1-1.5,0.6-3.6-0.9-4.7
		c-1.5-1-3.6-0.6-4.7,0.9l0,0c-0.3,0.5-3.1,4.7-3.1,13.3l0,0c0,8.6,2.7,12.8,3.1,13.3C40.6,46.1,42.7,46.5,44.3,45.5
		C44.3,45.5,44.3,45.5,44.3,45.5z"/>
	<path class="st0" d="M75.7,45.5c1.5,1,3.6,0.7,4.7-0.9c0,0,0,0,0,0c0.3-0.5,3.1-4.7,3.1-13.3l0,0c0-8.6-2.7-12.8-3.1-13.3
		c-1-1.5-3.1-1.9-4.7-0.9c-1.5,1-1.9,3.1-0.9,4.7c0.1,0.1,1.9,3.2,1.9,9.5s-1.8,9.4-1.9,9.5C73.8,42.4,74.2,44.5,75.7,45.5z"/>
</g>
</svg>
