<svg xmlns="http://www.w3.org/2000/svg" viewBox="0 0 120 120"><defs><style>.cls-1{fill:#7d30cc;}</style></defs><title>comment</title><g id="Layer_1" data-name="Layer 1"><path class="cls-1" d="M99.82,12.9H20.18A13.3,13.3,0,0,0,6.9,26.18V73.91A13.29,13.29,0,0,0,20.18,87.18H40.09v17.43a2.48,2.48,0,0,0,2.49,2.49,2.4,2.4,0,0,0,1.47-.5L70,87.18H99.82A13.29,13.29,0,0,0,113.1,73.91V26.18A13.3,13.3,0,0,0,99.82,12.9Zm6.64,61a6.66,6.66,0,0,1-6.64,6.64H67.74L66,81.88,46.73,96.31V80.55H20.18a6.66,6.66,0,0,1-6.64-6.64V26.18a6.66,6.66,0,0,1,6.64-6.64H99.82a6.66,6.66,0,0,1,6.64,6.64Z"/></g></svg>