<svg xmlns="http://www.w3.org/2000/svg" viewBox="0 0 120 120"><defs><style>.cls-1{fill:#7d30cc;}</style></defs><title>contact</title><g id="Layer_1" data-name="Layer 1"><path class="cls-1" d="M103.67,40.22a2.48,2.48,0,0,0,2.47-2.47V29.51A2.48,2.48,0,0,0,103.67,27H99.55V20.45A13.2,13.2,0,0,0,86.37,7.26H27A13.2,13.2,0,0,0,13.86,20.45v79.1A13.2,13.2,0,0,0,27,112.74H86.37A13.2,13.2,0,0,0,99.55,99.55V93h4.12a2.48,2.48,0,0,0,2.47-2.47V82.25a2.48,2.48,0,0,0-2.47-2.47H99.55V66.59h4.12a2.48,2.48,0,0,0,2.47-2.47V55.88a2.48,2.48,0,0,0-2.47-2.47H99.55V40.22ZM93,99.55a6.61,6.61,0,0,1-6.59,6.59H27a6.6,6.6,0,0,1-6.59-6.59V20.45A6.6,6.6,0,0,1,27,13.86H86.37A6.61,6.61,0,0,1,93,20.45ZM56.7,63.3A16.48,16.48,0,1,0,40.22,46.82,16.48,16.48,0,0,0,56.7,63.3Zm0-26.37a9.89,9.89,0,1,1-9.88,9.89A9.89,9.89,0,0,1,56.7,36.93Zm9.64,29.66c-4,0-5,1.44-9.64,1.44s-5.62-1.44-9.64-1.44A13.16,13.16,0,0,0,36,72.24,13.8,13.8,0,0,0,33.63,80V88a1.65,1.65,0,0,0,1.65,1.64h3.3A1.65,1.65,0,0,0,40.22,88V80a7.28,7.28,0,0,1,1.24-4,6.65,6.65,0,0,1,5.62-2.72c2.56,0,4.29,1.45,9.64,1.45s7.07-1.45,9.65-1.45A6.72,6.72,0,0,1,72,75.92a7.28,7.28,0,0,1,1.24,4V88a1.65,1.65,0,0,0,1.64,1.64h3.3A1.65,1.65,0,0,0,79.82,88V80a13.8,13.8,0,0,0-2.35-7.72,13.34,13.34,0,0,0-11.13-5.65Z"/></g></svg>