<svg xmlns="http://www.w3.org/2000/svg" viewBox="0 0 120 120"><title>copy</title><g id="Layer_1" data-name="Layer 1"><path d="M103.29,20.81l-10.7-10.7a9.87,9.87,0,0,0-7-2.9H50.1a9.9,9.9,0,0,0-9.9,9.9V27H23.71a9.9,9.9,0,0,0-9.9,9.9v66a9.9,9.9,0,0,0,9.9,9.9H69.9a9.9,9.9,0,0,0,9.9-9.9V93H96.29a9.9,9.9,0,0,0,9.9-9.9V27.81A9.88,9.88,0,0,0,103.29,20.81Zm-16.9-6.9a3.26,3.26,0,0,1,1.54.87l10.69,10.7A3.18,3.18,0,0,1,99.49,27H86.39Zm-13.19,89a3.3,3.3,0,0,1-3.3,3.3H23.71a3.3,3.3,0,0,1-3.3-3.3v-66a3.3,3.3,0,0,1,3.3-3.3H40.2V83.09A9.9,9.9,0,0,0,50.1,93H73.2Zm26.39-19.8a3.3,3.3,0,0,1-3.3,3.3H50.1a3.3,3.3,0,0,1-3.3-3.3v-66a3.3,3.3,0,0,1,3.3-3.3H79.8V28.66a5,5,0,0,0,4.94,4.95H99.59Z"/></g></svg>