<svg xmlns="http://www.w3.org/2000/svg" viewBox="0 0 120 120"><title>create_post</title><g id="Layer_1" data-name="Layer 1"><path d="M96.26,13.86H23.74a9.88,9.88,0,0,0-9.88,9.88V96.26a9.88,9.88,0,0,0,9.88,9.88H96.26a9.88,9.88,0,0,0,9.88-9.88V23.74A9.88,9.88,0,0,0,96.26,13.86Zm3.29,82.4a3.3,3.3,0,0,1-3.29,3.29H23.74a3.3,3.3,0,0,1-3.29-3.29V23.74a3.3,3.3,0,0,1,3.29-3.29H96.26a3.3,3.3,0,0,1,3.29,3.29ZM85.73,29.45a8.26,8.26,0,0,0-11.66,0L28.69,74.83,27.06,89.54A3.09,3.09,0,0,0,30.48,93l14.69-1.65L90.55,45.93a8.26,8.26,0,0,0,0-11.66ZM42.14,85l-8,.88.88-8L68.49,44.32l7.15,7.15L42.14,85ZM85.89,41.27l-5.56,5.57-7.15-7.15,5.57-5.56a1.64,1.64,0,0,1,2.32,0L85.89,39a1.64,1.64,0,0,1,0,2.32Z"/></g></svg>