<svg xmlns="http://www.w3.org/2000/svg" viewBox="0 0 120 120"><defs><style>.cls-1{fill:#7d30cc;}</style></defs><title>cricket</title><g id="Layer_1" data-name="Layer 1"><path class="cls-1" d="M118.52,17.76l-1.72-2.45a7.47,7.47,0,0,0-10.42-1.85L78.54,33.06a6,6,0,0,1-8.34-1.48l-1.72-2.45a6,6,0,0,0-8.32-1.47L4,67A8.82,8.82,0,0,0,.16,74.85a39,39,0,0,0,22.62,32.29,8.85,8.85,0,0,0,8.7-.92L87.62,66.9a6,6,0,0,0,1.47-8.34l-1.72-2.45a6,6,0,0,1,1.48-8.34l27.82-19.59a7.5,7.5,0,0,0,1.85-10.42ZM28,101.32a2.85,2.85,0,0,1-2.77.38A33.18,33.18,0,0,1,6.13,74.35a2.86,2.86,0,0,1,1.29-2.47l42.15-29.5-4.42,25,25,4.41L28,101.32ZM83,62.86,77.1,67l-25-4.42,4.42-25,5.85-4.09a1.48,1.48,0,0,1,2.08.37l18.87,27A1.47,1.47,0,0,1,83,62.86Zm30.29-39.58-32.74,23L77.07,41.4l32.73-23a1.48,1.48,0,0,1,2.08.37l1.72,2.45a1.48,1.48,0,0,1-.35,2.08ZM92.93,78a15,15,0,1,0,15,15A15,15,0,0,0,92.93,78Zm0,23.94a9,9,0,1,1,9-9A9,9,0,0,1,92.93,101.9Z"/></g></svg>