<svg xmlns="http://www.w3.org/2000/svg" viewBox="0 0 120 120"><title>crosspost</title><g id="Layer_1" data-name="Layer 1"><path d="M112.37,45.17,93.18,64.25a2.48,2.48,0,0,1-3.51,0L88.2,62.78a2.49,2.49,0,0,1,0-3.52l12.64-12.53H9.39A2.5,2.5,0,0,1,6.9,44.24V42.58a2.49,2.49,0,0,1,2.49-2.49h91.45L88.2,27.55a2.49,2.49,0,0,1,0-3.52l1.46-1.46a2.47,2.47,0,0,1,3.52,0l19.19,19.08A2.49,2.49,0,0,1,112.37,45.17ZM7.63,78.35,26.82,97.43a2.46,2.46,0,0,0,3.51,0L31.8,96a2.49,2.49,0,0,0,0-3.52L19.16,79.91h91.45a2.49,2.49,0,0,0,2.49-2.49V75.76a2.5,2.5,0,0,0-2.49-2.49H19.16L31.8,60.74a2.49,2.49,0,0,0,0-3.52l-1.47-1.47a2.48,2.48,0,0,0-3.51,0L7.63,74.83a2.49,2.49,0,0,0,0,3.52Z"/></g></svg>