<svg xmlns="http://www.w3.org/2000/svg" viewBox="0 0 120 120"><title>cross_country</title><g id="Layer_1" data-name="Layer 1"><path d="M95.43,51.76h-3l-1.86-5.59a23.65,23.65,0,0,0-9.17-12A14.65,14.65,0,0,0,88,22.1a14.84,14.84,0,1,0-29.67,0A14.4,14.4,0,0,0,59.22,27a23.36,23.36,0,0,0-17.47,2.63l-9.51,5A10.72,10.72,0,0,0,43,53.08l3.91-2L34.82,78.13H24.57a10.71,10.71,0,0,0,0,21.42h13a17.28,17.28,0,0,0,15.9-10.49l4-8.18,9,4-4,14.16A10.71,10.71,0,1,0,83,105l5-17.59a17.33,17.33,0,0,0-2.47-14.65,17.27,17.27,0,0,0,4,.45h6a10.71,10.71,0,0,0,0-21.42ZM73.18,13.86a8.24,8.24,0,1,1-8.24,8.24A8.24,8.24,0,0,1,73.18,13.86ZM47.37,86.47A10.7,10.7,0,0,1,37.53,93h-13a4.12,4.12,0,0,1,0-8.24h13a2.47,2.47,0,0,0,2.27-1.5L45.3,71.5A17.21,17.21,0,0,0,51.48,78l-4.11,8.49ZM95.43,66.59h-6a10.69,10.69,0,0,1-10.16-7.32l-2.8-8.41a9,9,0,0,0-3.09-4.25L64.88,68l10.87,4.88a10.77,10.77,0,0,1,5.9,12.72l-5,17.59a4.12,4.12,0,0,1-4,3,4.52,4.52,0,0,1-1.14-.15,4.12,4.12,0,0,1-2.82-5.1l5-17.59a2.48,2.48,0,0,0-1.36-2.93s-17.68-8.05-18.28-8.48A10.76,10.76,0,0,1,50.28,60l7.78-18s-3.49-.78-4.23-.78a8.9,8.9,0,0,0-4.63,1.3l-9.32,4.84a4.12,4.12,0,1,1-4.25-7.06L45,35.38a17.25,17.25,0,0,1,13.1-2l14,3.51A17.23,17.23,0,0,1,84.33,48.26l2.8,8.4a2.46,2.46,0,0,0,2.34,1.69h6a4.12,4.12,0,0,1,0,8.24Z"/></g></svg>