<svg xmlns="http://www.w3.org/2000/svg" viewBox="0 0 120 120"><defs><style>.cls-1{fill:#7d30cc;}</style></defs><title>curling</title><g id="Layer_1" data-name="Layer 1"><path class="cls-1" d="M94.28,48.78a19.88,19.88,0,0,0-17.9-11.37H58.08a4.72,4.72,0,0,1,4.65-4H84.57a6.22,6.22,0,0,0,6.21-6.21V19.78a6.22,6.22,0,0,0-6.21-6.21H62.73c-12.31,0-24.35,11.9-24.59,24.16-6.31,1.11-9.65,5.2-12.44,11.07a25.1,25.1,0,0,0-21,24.85v5.46A25.35,25.35,0,0,0,30,104.43H90a25.35,25.35,0,0,0,25.32-25.32V73.65A25.12,25.12,0,0,0,94.28,48.78Zm14.1,31.08A18.39,18.39,0,0,1,90,97.47H30A18.39,18.39,0,0,1,11.62,79.86Zm-32-35.49a13,13,0,0,1,9.29,4H34.31c3.86-4.09,6.66-4,9.35-4H45.1V38.16c0-8.62,9-17.63,17.63-17.63H83.82v6H62.73A11.68,11.68,0,0,0,51.06,38.16v6.21Zm32,28.53H11.62A18.39,18.39,0,0,1,30,55.29H90A18.39,18.39,0,0,1,108.38,72.9Z"/></g></svg>