<svg xmlns="http://www.w3.org/2000/svg" viewBox="0 0 120 120"><defs><style>.cls-1{fill:#7d30cc;}</style></defs><title>cycling</title><g id="Layer_1" data-name="Layer 1"><path class="cls-1" d="M68.62,58.64a8.22,8.22,0,0,0,5.1,1.78h9.75a8.2,8.2,0,0,0,0-16.39H76.6l-2.38-1.9h.13a12.12,12.12,0,0,0,0-24.24h0a12.12,12.12,0,0,0-11.47,16,7.92,7.92,0,0,0-7.53,1.63L39.17,48.45A8.18,8.18,0,0,0,39.8,61.6l12,8V83.48a8.2,8.2,0,0,0,16.4,0V65.23a8.18,8.18,0,0,0-3.64-6.82l-1.75-1.18,2-1.57ZM68.2,30a6.14,6.14,0,1,1,6.14,6.14A6.15,6.15,0,0,1,68.2,30ZM43.12,56.65a2.16,2.16,0,0,1-.95-1.42,2.19,2.19,0,0,1,.33-1.67,2.14,2.14,0,0,1,.39-.45l16.34-13a2.24,2.24,0,0,1,1.46-.54,2.27,2.27,0,0,1,1.39.49L74.51,50h9a2.24,2.24,0,0,1,0,4.47H73.72A2.24,2.24,0,0,1,72.33,54l-7.42-5.89L52.63,57.56l8.61,5.81h0a2.23,2.23,0,0,1,1,1.86V83.48a2.23,2.23,0,1,1-4.46,0V66.42Z"/><path class="cls-1" d="M27.41,62.24A19.93,19.93,0,1,0,47.34,82.17,20,20,0,0,0,27.41,62.24Zm14,19.93a14,14,0,1,1-14-14A14,14,0,0,1,41.37,82.17Z"/><path class="cls-1" d="M92.59,62.24a19.93,19.93,0,1,0,19.93,19.93A20,20,0,0,0,92.59,62.24Zm14,19.93a14,14,0,1,1-14-14A14,14,0,0,1,106.56,82.17Z"/></g></svg>