<svg xmlns="http://www.w3.org/2000/svg" viewBox="0 0 120 120"><title>darts</title><g id="Layer_1" data-name="Layer 1"><path d="M71.75,27.6l4.94,11-19,19a3.3,3.3,0,1,0,4.66,4.66l19-19,11,4.94a4.25,4.25,0,0,0,4.34-1l13.11-13.11a4.23,4.23,0,0,0-1.65-7L96.72,23.27,92.9,11.81a4.23,4.23,0,0,0-7-1.66L72.78,23.27A4.23,4.23,0,0,0,71.75,27.6ZM87.86,17.51l2.61,7.85,1,3.13,3.12,1,7.85,2.61L93.23,41.4,83.12,36.88,78.6,26.77ZM108.7,44.57,103.31,50A44.71,44.71,0,1,1,70,16.69l5.39-5.39A51.11,51.11,0,1,0,108.7,44.57ZM65.5,29.69a10.82,10.82,0,0,1-.55-3,33.61,33.61,0,0,0-5-.49A33.78,33.78,0,1,0,93.78,60a33.22,33.22,0,0,0-.5-5,10.66,10.66,0,0,1-3-.48c-.44-.15.21.13-4.26-1.87A26.83,26.83,0,0,1,87.19,60,27.19,27.19,0,1,1,60,32.81,26.83,26.83,0,0,1,67.37,34c-2-4.47-1.72-3.82-1.87-4.26ZM60,43.52A16.48,16.48,0,1,0,76.48,60a17,17,0,0,0-.23-2.27L67,67h0A9.89,9.89,0,1,1,53,53h0l9.26-9.26A17,17,0,0,0,60,43.52Z"/></g></svg>