<svg xmlns="http://www.w3.org/2000/svg" viewBox="0 0 120 120"><defs><style>.cls-1{fill:#7d30cc;}</style></defs><title>discussion</title><g id="Layer_1" data-name="Layer 1"><path class="cls-1" d="M106.19,40.17H86.38V20.33A13.14,13.14,0,0,0,73.26,7.21H13.81A13.14,13.14,0,0,0,.68,20.33v33.1A13.14,13.14,0,0,0,13.81,66.55h6.45v9.93a3.34,3.34,0,0,0,1.66,2.89,3.34,3.34,0,0,0,3.33,0L40.13,71V86.38A13.14,13.14,0,0,0,53.26,99.5H71.88l22.87,12.86a3.34,3.34,0,0,0,3.33,0,3.35,3.35,0,0,0,1.66-2.9V99.5h6.45a13.14,13.14,0,0,0,13.13-13.12V53.29A13.14,13.14,0,0,0,106.19,40.17ZM27,70.74V59.84H13.81a6.43,6.43,0,0,1-6.42-6.41V20.33a6.43,6.43,0,0,1,6.42-6.41H73.26a6.42,6.42,0,0,1,6.41,6.41V40.17H53.26A13.14,13.14,0,0,0,40.13,53.29V63.34Zm85.65,15.64a6.43,6.43,0,0,1-6.42,6.42H93v10.9L74.4,93.23a3.27,3.27,0,0,0-1.64-.43H53.26a6.43,6.43,0,0,1-6.42-6.42V53.29a6.42,6.42,0,0,1,6.42-6.41h52.93a6.42,6.42,0,0,1,6.42,6.41Z"/><path class="cls-1" d="M96.39,60.07H63.46a3.36,3.36,0,1,0,0,6.71H96.39a3.36,3.36,0,0,0,0-6.71Z"/><path class="cls-1" d="M83,73.12H63.46a3.36,3.36,0,1,0,0,6.71H83a3.36,3.36,0,1,0,0-6.71Z"/></g></svg>