<svg xmlns="http://www.w3.org/2000/svg" viewBox="0 0 120 120"><title>dodgeball</title><g id="Layer_1" data-name="Layer 1"><path d="M60,8.91A51.09,51.09,0,1,0,111.09,60,51.14,51.14,0,0,0,60,8.91ZM95.43,86.8a60.73,60.73,0,0,1-51-9.66A60,60,0,0,1,60.16,63.79a65.46,65.46,0,0,0,42.75,7.81,44.35,44.35,0,0,1-7.48,15.2Zm8.82-22.08a60.86,60.86,0,0,1-15.08,1,67.22,67.22,0,0,0-12.73-47C88.63,23.56,107,38.93,104.25,64.72ZM65.44,15.87A60.72,60.72,0,0,1,82.62,64.92,60.16,60.16,0,0,1,63.21,58a66.85,66.85,0,0,0-14.6-41,43,43,0,0,1,16.83-1.14ZM42,19.36a61.41,61.41,0,0,1,8.41,12.52A67.31,67.31,0,0,0,16,66.39C11.8,37.3,34.29,22.78,42,19.36Zm-22.92,58A60.68,60.68,0,0,1,53,37.94a60.43,60.43,0,0,1,3.69,20.27A66.92,66.92,0,0,0,28.46,91.35a44.57,44.57,0,0,1-9.41-14ZM33.82,95.91a60.55,60.55,0,0,1,6.61-13.46A66.61,66.61,0,0,0,87.5,94.92C76.69,103.45,54.4,111,33.82,95.91Z"/></g></svg>