<svg xmlns="http://www.w3.org/2000/svg" viewBox="0 0 120 120"><title>download</title><g id="Layer_1" data-name="Layer 1"><path id="download" d="M23.11,99.93V74.58a2.3,2.3,0,0,1,2.27-2.32H27a2.29,2.29,0,0,1,2.31,2.27v25.4A3.1,3.1,0,0,0,32.39,103H87.61a3.1,3.1,0,0,0,3.06-3.06V74.58a2.28,2.28,0,0,1,2.26-2.32h1.64a2.3,2.3,0,0,1,2.32,2.27v25.4a9.29,9.29,0,0,1-9.26,9.26H32.37A9.3,9.3,0,0,1,23.11,99.93Zm70-57-1.38-1.38a2.23,2.23,0,0,0-3.16-.09l-.09.09L63.27,66.88V13.13A2.27,2.27,0,0,0,61,10.82H59a2.27,2.27,0,0,0-2.31,2.26v53.8L31.54,41.52a2.24,2.24,0,0,0-3.16-.08l-.09.08-1.38,1.39a2.23,2.23,0,0,0-.08,3.16.3.3,0,0,0,.08.08L58.37,77.71a2.24,2.24,0,0,0,3.16.08.6.6,0,0,0,.08-.08L93.08,46.15A2.23,2.23,0,0,0,93.14,43Z"/></g></svg>