<svg xmlns="http://www.w3.org/2000/svg" viewBox="0 0 120 120"><title>edit</title><g id="Layer_1" data-name="Layer 1"><path d="M108.92,18.81l-7.73-7.73a13.18,13.18,0,0,0-18.66,0L9.86,83.75,7.24,107.29a5,5,0,0,0,5.47,5.47l23.54-2.62,72.67-72.67a13.18,13.18,0,0,0,0-18.66Zm-19.63,29L43.09,94V86.81h-9.9v-9.9H26l46.2-46.2L89.29,47.77ZM33.22,103.84l-12.16,1.35-6.25-6.25,1.35-12.16,4.1-4.1h7.16v9.9h9.9v7.16Zm71-71L94,43.1,76.9,26l10.29-10.3a6.6,6.6,0,0,1,9.34,0l7.73,7.73a6.6,6.6,0,0,1,0,9.34Z"/></g></svg>