<svg xmlns="http://www.w3.org/2000/svg" viewBox="0 0 120 120"><title>email</title><g id="Layer_1" data-name="Layer 1"><path d="M103.14,20.18H16.86a10,10,0,0,0-10,10V89.87a10,10,0,0,0,10,9.95h86.28a10,10,0,0,0,10-9.95V30.13A10,10,0,0,0,103.14,20.18ZM16.86,26.82h86.28a3.32,3.32,0,0,1,3.32,3.31v8.59c-4.54,3.84-11,9.13-31.24,25.16-3.5,2.78-10.41,9.48-15.22,9.39-4.81.09-11.74-6.61-15.22-9.39-20.2-16-26.7-21.32-31.24-25.16V30.13A3.32,3.32,0,0,1,16.86,26.82Zm86.28,66.36H16.86a3.32,3.32,0,0,1-3.32-3.31V47.35c4.73,3.88,12.2,9.87,27.11,21.71C44.9,72.47,52.41,80,60,79.91s15-7.36,19.35-10.85c14.91-11.84,22.38-17.83,27.11-21.71V89.87A3.32,3.32,0,0,1,103.14,93.18Z"/></g></svg>