<svg xmlns="http://www.w3.org/2000/svg" viewBox="0 0 120 120"><defs><style>.cls-1{fill:#7d30cc;}</style></defs><title>eye</title><g id="Layer_1" data-name="Layer 1"><path class="cls-1" d="M60,66.64a13.28,13.28,0,0,0,0-26.55c-.21,0-.39,0-.59.06A9.85,9.85,0,0,1,46.79,52.77c0,.21-.06.39-.06.59A13.28,13.28,0,0,0,60,66.64ZM119,57C107.76,35,85.5,20.18,60,20.18S12.23,35,1,57A6.74,6.74,0,0,0,1,63C12.24,85,34.5,99.82,60,99.82S107.77,85,119,63A6.74,6.74,0,0,0,119,57ZM60,26.82A26.55,26.55,0,1,1,33.45,53.36,26.55,26.55,0,0,1,60,26.82Zm0,66.36C37.73,93.18,17.39,80.47,6.9,60A61.17,61.17,0,0,1,33.82,33.18a32.84,32.84,0,0,0-7,20.18,33.18,33.18,0,1,0,66.36,0,32.84,32.84,0,0,0-7-20.18A61.17,61.17,0,0,1,113.1,60C102.62,80.47,82.27,93.18,60,93.18Z"/></g></svg>