<svg xmlns="http://www.w3.org/2000/svg" viewBox="0 0 120 120"><defs><style>.cls-1{fill:#7d30cc;}</style></defs><title>family</title><g id="Layer_1" data-name="Layer 1"><path class="cls-1" d="M87.87,98.56c-.54-8-5.65-23-21.21-23H52.83c-15.56,0-20.67,15-21.21,23L30.23,109a3.33,3.33,0,1,0,6.61.87l1.4-10.56,0-.22a27,27,0,0,1,2.46-8.92c2.62-5.34,6.58-7.94,12.11-7.94H66.66c5.53,0,9.5,2.6,12.11,7.94a27,27,0,0,1,2.46,8.91l1.43,10.79a3.33,3.33,0,0,0,3.3,2.9l.44,0A3.33,3.33,0,0,0,89.26,109Z"/><path class="cls-1" d="M75,33.43A21.54,21.54,0,1,0,81.3,48.66,21.49,21.49,0,0,0,75,33.43M59.75,63.55A14.89,14.89,0,1,1,74.63,48.66,14.89,14.89,0,0,1,59.75,63.55Z"/><path class="cls-1" d="M103.29,89.89,91.22,90a31.5,31.5,0,0,1,1.93,6.65l10.2-.07h.11c7.08,0,8,8.52,8.08,9.51a3.34,3.34,0,0,0,3.32,3.07h.25a3.33,3.33,0,0,0,3.08-3.57C117.78,100.07,114.16,89.72,103.29,89.89Z"/><path class="cls-1" d="M99,86A18,18,0,1,0,81,68,18,18,0,0,0,99,86Zm0-29.51A11.55,11.55,0,1,1,87.44,68,11.55,11.55,0,0,1,99,56.44Z"/><path class="cls-1" d="M.94,108.94A3.33,3.33,0,0,0,4,112.51h.27a3.33,3.33,0,0,0,3.31-3.06c.07-.79.81-7.64,6.43-7.64H25.66l.39-2.93a27.41,27.41,0,0,1,.59-3.74H14.14C4.52,95,1.3,104.12.94,108.94Z"/><path class="cls-1" d="M17.78,62.27A14.74,14.74,0,1,0,32.51,77,14.75,14.75,0,0,0,17.78,62.27Zm0,22.81A8.07,8.07,0,1,1,25.85,77,8.07,8.07,0,0,1,17.78,85.08Z"/><path class="cls-1" d="M4,59.91A3.33,3.33,0,0,1,.7,56.58V10.64A3.44,3.44,0,0,1,4.13,7.21H115.77a3.44,3.44,0,0,1,3.43,3.43l.1,36.25A3.34,3.34,0,0,1,116,50.24h0a3.33,3.33,0,0,1-3.33-3.33l-.09-33H7.36v42.7A3.33,3.33,0,0,1,4,59.91ZM112.54,10.65v0Z"/></g></svg>