<svg xmlns="http://www.w3.org/2000/svg" viewBox="0 0 120 120"><title>features_standard</title><g id="Layer_1" data-name="Layer 1"><path d="M102,89.79a9.33,9.33,0,0,0,4.62-8.06V38.27A9.33,9.33,0,0,0,102,30.21L64.7,8.48a9.35,9.35,0,0,0-9.4,0L18.05,30.21a9.33,9.33,0,0,0-4.62,8.06V81.73a9.33,9.33,0,0,0,4.62,8.06L55.3,111.52a9.35,9.35,0,0,0,9.4,0L102,89.79ZM58.43,106.15,21.17,84.41a3.12,3.12,0,0,1-1.53-2.68V38.27a3.07,3.07,0,0,1,1.53-2.68L58.43,13.85a3.11,3.11,0,0,1,3.12,0L98.81,35.59a3.05,3.05,0,0,1,1.55,2.68V81.73a3.07,3.07,0,0,1-1.53,2.68L61.57,106.15A3.14,3.14,0,0,1,58.43,106.15Z"/></g></svg>