<svg xmlns="http://www.w3.org/2000/svg" viewBox="0 0 120 120"><title>features_advanced</title><g id="Layer_1" data-name="Layer 1"><path d="M109.5,42.57,79.38,38.18,65.92,10.88a6.61,6.61,0,0,0-11.84,0L40.62,38.18,10.5,42.57A6.6,6.6,0,0,0,6.85,53.83L28.64,75.07l-5.15,30A6.59,6.59,0,0,0,33.05,112L60,97.85,87,112a6.59,6.59,0,0,0,9.56-6.94l-5.15-30,21.79-21.24a6.6,6.6,0,0,0-3.65-11.26ZM84.29,72.76,90,106.16,60,90.41,30,106.18l5.73-33.4L11.45,49.09,45,44.22,60,13.81,75,44.22l33.54,4.87L84.29,72.76Z"/></g></svg>