<svg xmlns="http://www.w3.org/2000/svg" viewBox="0 0 120 120"><defs><style>.cls-1{fill:#7d30cc;}</style></defs><title>feed</title><g id="Layer_1" data-name="Layer 1"><path class="cls-1" d="M103.47,26.58H16.53a10,10,0,0,0-10,10V83.47a10,10,0,0,0,10,10h86.94a10,10,0,0,0,10-10V36.53A10,10,0,0,0,103.47,26.58Zm3.32,56.89a3.32,3.32,0,0,1-3.32,3.31H16.53a3.32,3.32,0,0,1-3.32-3.31V36.53a3.32,3.32,0,0,1,3.32-3.31h86.94a3.32,3.32,0,0,1,3.32,3.31Z"/><path class="cls-1" d="M109.46,20.29H10.25a3.38,3.38,0,1,1,0-6.75h99.21a3.38,3.38,0,1,1,0,6.75Z"/><path class="cls-1" d="M109.46,106.46H10.25a3.38,3.38,0,1,1,0-6.75h99.21a3.38,3.38,0,1,1,0,6.75Z"/></g></svg>