<svg xmlns="http://www.w3.org/2000/svg" viewBox="0 0 120 120"><title>fencing</title><g id="Layer_1" data-name="Layer 1"><path d="M110.18,102.13,98.07,90l11.4-11.41a3.35,3.35,0,0,0-1.07-5.46c-.67-.28-15.57-6.36-26,1.23L64.74,56.68l38.81-38.81a3.35,3.35,0,1,0-4.74-4.74L60,51.94,21.19,13.13a3.35,3.35,0,0,0-4.74,4.74L55.26,56.68,37.57,74.37c-10.4-7.59-25.29-1.51-26-1.23a3.35,3.35,0,0,0-1.07,5.46L21.93,90,9.82,102.13a3.35,3.35,0,0,0,4.74,4.74L26.67,94.75l11.41,11.41a3.38,3.38,0,0,0,2.37,1,2.88,2.88,0,0,0,.65-.07,3.34,3.34,0,0,0,2.44-2c.28-.67,6.37-15.57-1.23-26L60,61.42,77.69,79.11c-7.6,10.4-1.51,25.3-1.23,26a3.34,3.34,0,0,0,2.44,2,2.88,2.88,0,0,0,.65.07,3.38,3.38,0,0,0,2.37-1L93.33,94.75l12.11,12.12a3.38,3.38,0,0,0,2.37,1,3.35,3.35,0,0,0,2.37-5.72ZM38.82,97.42,19.26,77.86C23.88,76.92,30.62,76.58,35,81l.72.72h0C40.1,86.06,39.76,92.8,38.82,97.42Zm42.35,0c-1-4.6-1.3-11.34,3.11-15.75L85,81c4.38-4.38,11.12-4,15.74-3.1Z"/></g></svg>