<svg xmlns="http://www.w3.org/2000/svg" viewBox="0 0 120 120"><title>flag</title><g id="Layer_1" data-name="Layer 1"><path d="M104.63,7.21a10.7,10.7,0,0,0-4.37,1c-10.41,4.68-18.1,6.25-24.56,6.25-13.63,0-21.55-7.12-37.28-7.12C31.9,7.29,24,8.63,13.8,12.08V10.51a3.3,3.3,0,0,0-6.6,0V111.14a1.65,1.65,0,0,0,1.65,1.65h3.3a1.65,1.65,0,0,0,1.65-1.65V90.44A69.73,69.73,0,0,1,37.41,85.9C54.15,85.9,65.83,93,82.59,93c7.28,0,15.49-1.34,25.51-5.15a7.05,7.05,0,0,0,4.7-6.44V14.1C112.78,9.89,108.94,7.21,104.63,7.21ZM82.57,86.39C67,86.39,55.14,79.3,37.39,79.3a74.54,74.54,0,0,0-23.61,4.08V19c9.48-3.45,17.59-5.12,24.62-5.12C52.73,13.89,60.75,21,75.68,21c8.21,0,16.87-2.17,27.24-6.83,1.94-.86,3.24-.1,3.24,1.16v66C106,81.86,94,86.39,82.57,86.39Z"/></g></svg>