<svg xmlns="http://www.w3.org/2000/svg" viewBox="0 0 120 120"><title>food</title><g id="Layer_1" data-name="Layer 1"><path d="M81.59,104.45l3-34.18c-8.74-6.87-14.61-16-14.61-26.86C70,23.85,88.23,6.9,101.48,6.9a8.16,8.16,0,0,1,8.3,8v90.22a8.16,8.16,0,0,1-8.3,8H89.87A8.14,8.14,0,0,1,81.59,104.45Zm-5-61c0,10.58,6.68,17.73,14.89,23.75L88.21,105a1.5,1.5,0,0,0,1.66,1.43h11.61a1.56,1.56,0,0,0,1.66-1.35V14.89a1.56,1.56,0,0,0-1.66-1.35C92.23,13.54,76.59,27.19,76.59,43.41ZM60.15,13.91c-.69-4-4.4-7-9.57-7a10.65,10.65,0,0,0-6.9,2.33A10.57,10.57,0,0,0,36.77,6.9a10.57,10.57,0,0,0-6.91,2.33A10.62,10.62,0,0,0,23,6.9c-5.23,0-8.88,3-9.56,7C13,15.86,10.22,31.46,10.22,38c0,10.56,5.54,19,14.73,23l-2.37,43.73a8,8,0,0,0,8,8.42H43a8,8,0,0,0,8-8.42L48.59,61c9.17-4,14.73-12.4,14.73-23,0-6.53-2.8-22.13-3.17-24.08ZM41.81,56.68,44.34,105A1.35,1.35,0,0,1,43,106.46H30.55A1.35,1.35,0,0,1,29.2,105l2.53-48.35C22.94,54.86,16.86,47.76,16.86,38c0-6.16,3.07-22.93,3.07-22.93.33-2.06,5.87-2,6.12,0V40.5c.18,2.39,5.85,2.43,6.12,0L33.7,15.06c.33-2,5.79-2,6.12,0l1.53,25.49c.27,2.36,5.94,2.32,6.12,0V15.12c.25-2.06,5.79-2.1,6.12,0,0,0,3.07,16.78,3.07,22.94,0,9.7-6,16.84-14.85,18.66Z"/></g></svg>