<svg xmlns="http://www.w3.org/2000/svg" viewBox="0 0 120 120"><title>football</title><g id="Layer_1" data-name="Layer 1"><path d="M79.82,44.86,74,50.69l5.83,5.83a1.65,1.65,0,0,1,0,2.33l-2.33,2.32a1.65,1.65,0,0,1-2.33,0l-5.83-5.83L64.66,60l5.83,5.83a1.67,1.67,0,0,1,0,2.33l-2.33,2.33a1.67,1.67,0,0,1-2.33,0L60,64.66l-4.66,4.65,5.83,5.83a1.65,1.65,0,0,1,0,2.33L58.85,79.8a1.65,1.65,0,0,1-2.33,0L50.69,74,44.86,79.8a1.65,1.65,0,0,1-2.33,0L40.2,77.47a1.65,1.65,0,0,1,0-2.33L46,69.31,40.18,63.5a1.65,1.65,0,0,1,0-2.33l2.33-2.32a1.65,1.65,0,0,1,2.33,0l5.83,5.83L55.32,60l-5.83-5.83a1.67,1.67,0,0,1,0-2.33l2.33-2.32a1.65,1.65,0,0,1,2.33,0L60,55.36l4.65-4.65-5.82-5.83a1.65,1.65,0,0,1,0-2.33l2.32-2.33a1.67,1.67,0,0,1,2.33,0l5.83,5.83,5.83-5.83a1.67,1.67,0,0,1,2.33,0l2.33,2.33a1.59,1.59,0,0,1,0,2.31Zm11.8,46.8C63.21,120.13,24.51,109.3,19.6,108a10.83,10.83,0,0,1-7.66-7.69C8.42,87,3.1,53.66,28.38,28.34,56.79-.13,95.49,10.7,100.4,12a10.83,10.83,0,0,1,7.66,7.69C111.58,33,116.9,66.34,91.62,91.66Zm7.09-73.27a88.36,88.36,0,0,0-17.78-2.72l23.46,23.46a85,85,0,0,0-2.68-17.73,4.24,4.24,0,0,0-3-3ZM21.29,101.61a88.36,88.36,0,0,0,17.78,2.72L15.63,80.87A85,85,0,0,0,18.31,98.6,4.19,4.19,0,0,0,21.29,101.61Zm83-53.31L71.66,15.73C56.37,16.82,43.4,22.59,33,33,21,45,16.7,59.2,15.75,71.68l32.57,32.57C63.6,103.16,76.58,97.39,86.94,87,99,75,103.3,60.8,104.25,48.3Z"/></g></svg>