<svg xmlns="http://www.w3.org/2000/svg" viewBox="0 0 120 120"><defs><style>.cls-1{fill:#7d30cc;}</style></defs><title>form</title><g id="Layer_1" data-name="Layer 1"><path class="cls-1" d="M71.54,17.15h-56a1.64,1.64,0,0,0-1.64,1.65v3.3a1.63,1.63,0,0,0,1.64,1.64h56a1.63,1.63,0,0,0,1.64-1.64V18.8A1.64,1.64,0,0,0,71.54,17.15Zm33,79.11h-89a1.63,1.63,0,0,0-1.64,1.64v3.3a1.64,1.64,0,0,0,1.64,1.65h89a1.64,1.64,0,0,0,1.64-1.65V97.9A1.63,1.63,0,0,0,104.5,96.26Zm-33-26.37h-56a1.64,1.64,0,0,0-1.64,1.65v3.29a1.64,1.64,0,0,0,1.64,1.65h56a1.64,1.64,0,0,0,1.64-1.65V71.54A1.64,1.64,0,0,0,71.54,69.89Zm33-26.37h-89a1.64,1.64,0,0,0-1.64,1.65v3.29a1.64,1.64,0,0,0,1.64,1.65h89a1.64,1.64,0,0,0,1.64-1.65V45.17A1.64,1.64,0,0,0,104.5,43.52Z"/></g></svg>