<svg xmlns="http://www.w3.org/2000/svg" viewBox="0 0 120 120"><title>golf</title><g id="Layer_1" data-name="Layer 1"><path d="M102.85,50.12A42.85,42.85,0,1,0,33.63,83.78V93a9.89,9.89,0,0,0,9.89,9.89c1.5,0,6.59-.82,6.59,3.3v5.35a1.25,1.25,0,0,0,1.24,1.24h4.12a1.24,1.24,0,0,0,1.23-1.24v-5.35a9.88,9.88,0,0,0-9.88-9.89c-1.51,0-6.6.82-6.6-3.3V89.67H79.78V93c0,4.12-5.07,3.3-6.6,3.3a9.89,9.89,0,0,0-9.88,9.89v5.35a1.24,1.24,0,0,0,1.23,1.24h4.12a1.25,1.25,0,0,0,1.24-1.24v-5.35c0-4.12,5.07-3.3,6.59-3.3A9.89,9.89,0,0,0,86.37,93V83.78A42.62,42.62,0,0,0,102.85,50.12Zm-79.11,0A36.26,36.26,0,1,1,75,83.08H45A36.31,36.31,0,0,1,23.74,50.12Zm49.44,3.07A6.78,6.78,0,0,1,60,55.45a6.7,6.7,0,0,0,8.63-8.63A6.77,6.77,0,0,1,73.18,53.19Zm16.48,3.29a6.78,6.78,0,0,1-13.18,2.27,6.7,6.7,0,0,0,8.63-8.63A6.76,6.76,0,0,1,89.66,56.48ZM76.48,69.67A6.78,6.78,0,0,1,63.3,71.93a6.7,6.7,0,0,0,8.63-8.63A6.78,6.78,0,0,1,76.48,69.67Z"/></g></svg>