<svg xmlns="http://www.w3.org/2000/svg" viewBox="0 0 120 120"><defs><style>.cls-1{fill:#7d30cc;}</style></defs><title>graduation</title><g id="Layer_1" data-name="Layer 1"><path class="cls-1" d="M114.78,40.87,65.09,24.81a16.4,16.4,0,0,0-10.18,0L5.22,40.87a7.48,7.48,0,0,0,0,14.26l5.57,1.8a14.49,14.49,0,0,0-1.37,3.71,5.92,5.92,0,0,0,0,10.74l-3.39,21C5.75,94.22,6.79,96,8.18,96h7.64c1.39,0,2.43-1.78,2.13-3.65l-3.39-21A6,6,0,0,0,18,66a5.9,5.9,0,0,0-2.52-4.76,8.94,8.94,0,0,1,1.23-2.4l10,3.24L24,84c0,6.63,16.12,12,36,12s36-5.37,36-12L93.26,62.08l21.52-6.95a7.48,7.48,0,0,0,0-14.26ZM89.9,83.6C87.89,85.72,77.63,90,60,90s-27.89-4.28-29.9-6.4L32.55,64l22.36,7.23a16.38,16.38,0,0,0,10.18,0L87.45,64,89.9,83.6Zm23-34.18L63.24,65.49a10.55,10.55,0,0,1-6.48,0L23.82,54.84,60.55,48a3,3,0,0,0-1.1-5.9L21.24,49.22A14.77,14.77,0,0,0,15,52l-8-2.58a1.47,1.47,0,0,1,0-2.84L56.76,30.51a10.59,10.59,0,0,1,6.48,0l49.69,16.07a1.48,1.48,0,0,1,0,2.84Z"/></g></svg>