<svg xmlns="http://www.w3.org/2000/svg" viewBox="0 0 120 120"><defs><style>.cls-1{fill:#7d30cc;}</style></defs><title>greek</title><g id="Layer_1" data-name="Layer 1"><path class="cls-1" d="M107.84,93h-6.73a52.47,52.47,0,0,0,11.07-41.11A52.8,52.8,0,0,0,7.21,60,52.4,52.4,0,0,0,18.88,93H12.16a5,5,0,0,0-4.95,5v9.9a5,5,0,0,0,5,5h28a6.6,6.6,0,0,0,6.6-6.6V97.38A12.85,12.85,0,0,0,41.05,87,33,33,0,0,1,52.87,27.76,34.5,34.5,0,0,1,60,27,33,33,0,0,1,78.75,87.09,12.52,12.52,0,0,0,73.2,97.34v8.85a6.6,6.6,0,0,0,6.6,6.6h28a5,5,0,0,0,5-5v-9.9A5,5,0,0,0,107.84,93Zm-1.76,13.09H79.91V97.34a5.78,5.78,0,0,1,2.66-4.73A39.67,39.67,0,0,0,60,20.3a41.62,41.62,0,0,0-8.51.89,39.68,39.68,0,0,0-14.3,71.25,6.18,6.18,0,0,1,2.9,4.94v8.7H13.92V99.7h19L24.11,88.78a45.86,45.86,0,0,1,3.33-61.34A45.74,45.74,0,0,1,60,13.92a48.74,48.74,0,0,1,5.51.32,46.48,46.48,0,0,1,40,38.64,45.69,45.69,0,0,1-9.65,35.9L87.08,99.7h19Z"/></g></svg>