<svg xmlns="http://www.w3.org/2000/svg" viewBox="0 0 120 120"><defs><style>.cls-1{fill:#7d30cc;}</style></defs><title>grid</title><g id="Layer_1" data-name="Layer 1"><path class="cls-1" d="M101.48,26.82H84.89a5,5,0,0,0-5,5v16.6a5,5,0,0,0,5,5h16.59a5,5,0,0,0,5-5V31.79A5,5,0,0,0,101.48,26.82ZM99.82,46.73H86.55V33.45H99.82ZM68.3,26.82H51.7a5,5,0,0,0-5,5v16.6a5,5,0,0,0,5,5H68.3a5,5,0,0,0,5-5V31.79A5,5,0,0,0,68.3,26.82ZM66.64,46.73H53.36V33.45H66.64ZM35.11,26.82H18.52a5,5,0,0,0-5,5v16.6a5,5,0,0,0,5,5H35.11a5,5,0,0,0,5-5V31.79A5,5,0,0,0,35.11,26.82ZM33.45,46.73H20.18V33.45H33.45Zm68,19.91H84.89a5,5,0,0,0-5,5v16.6a5,5,0,0,0,5,5h16.59a5,5,0,0,0,5-5V71.61A5,5,0,0,0,101.48,66.64ZM99.82,86.55H86.55V73.27H99.82ZM68.3,66.64H51.7a5,5,0,0,0-5,5v16.6a5,5,0,0,0,5,5H68.3a5,5,0,0,0,5-5V71.61A5,5,0,0,0,68.3,66.64ZM66.64,86.55H53.36V73.27H66.64ZM35.11,66.64H18.52a5,5,0,0,0-5,5v16.6a5,5,0,0,0,5,5H35.11a5,5,0,0,0,5-5V71.61A5,5,0,0,0,35.11,66.64ZM33.45,86.55H20.18V73.27H33.45Z"/></g></svg>