<svg xmlns="http://www.w3.org/2000/svg" viewBox="0 0 120 120"><defs><style>.cls-1{fill:#7d30cc;}</style></defs><title>group_type</title><g id="Layer_1" data-name="Layer 1"><path class="cls-1" d="M111.84,30.82a5.61,5.61,0,0,0-9.42-2.6L89.25,41.39l-9.13-1.52L78.6,30.75,91.77,17.58a5.62,5.62,0,0,0-2.63-9.44,31,31,0,0,0-37.49,38L11.79,86A15.67,15.67,0,1,0,34,108.2L73.77,68.38a31,31,0,0,0,38.07-37.56ZM99,55.71a24.4,24.4,0,0,1-25.11,5.82l-1.94-.65L29.28,103.53a9.28,9.28,0,0,1-12.83,0,9.08,9.08,0,0,1,0-12.82L59.14,48,58.5,46.1A24.41,24.41,0,0,1,85.83,14.18L71.54,28.48,74.39,45.6l17.13,2.85,14.29-14.3A24.35,24.35,0,0,1,99,55.71ZM23.71,93a3.3,3.3,0,1,0,3.3,3.3A3.3,3.3,0,0,0,23.71,93Z"/></g></svg>