<svg xmlns="http://www.w3.org/2000/svg" viewBox="0 0 120 120"><title>hail</title><g id="Layer_1" data-name="Layer 1"><path d="M84.74,83.09a4.95,4.95,0,1,0,5,5A4.93,4.93,0,0,0,84.74,83.09Zm-39.59,19.8a5,5,0,1,0,5,5A4.94,4.94,0,0,0,45.15,102.89Zm26.4,0a5,5,0,1,0,5,5A4.94,4.94,0,0,0,71.55,102.89Zm-13.2-19.8a4.95,4.95,0,1,0,4.95,5A4.94,4.94,0,0,0,58.35,83.09Zm-39.59,19.8a5,5,0,1,0,4.95,5A4.94,4.94,0,0,0,18.76,102.89ZM32,83.09a4.95,4.95,0,1,0,4.95,5A4.94,4.94,0,0,0,32,83.09Zm61-52.72A18.18,18.18,0,0,0,74.85,13.81,17.85,17.85,0,0,0,64.7,16.94,24.66,24.66,0,0,0,20.41,32V32A21.4,21.4,0,0,0,28.66,73.2H91.34a21.44,21.44,0,0,0,1.59-42.83ZM91.34,66.6H28.66A14.81,14.81,0,0,1,24.8,37.48l2.74-.74-.41-3.55A8.54,8.54,0,0,1,27,32a18.07,18.07,0,0,1,34.06-8.5l2.19,4.08,3.13-3.4a11.52,11.52,0,0,1,20,7.82,13.1,13.1,0,0,1-.16,1.42l-.52,4.12L90.56,37a4.91,4.91,0,0,1,.78-.08,14.84,14.84,0,1,1,0,29.67Z"/></g></svg>