<svg xmlns="http://www.w3.org/2000/svg" viewBox="0 0 120 120"><defs><style>.cls-1{fill:#7d30cc;}</style></defs><title>hamburger</title><g id="Layer_1" data-name="Layer 1"><path class="cls-1" d="M105.21,30.55H14.79a1.25,1.25,0,0,1-1.25-1.25v-5a1.25,1.25,0,0,1,1.25-1.25h90.42a1.25,1.25,0,0,1,1.25,1.25v5A1.25,1.25,0,0,1,105.21,30.55Zm0,33.18H14.79a1.24,1.24,0,0,1-1.25-1.24v-5a1.24,1.24,0,0,1,1.25-1.24h90.42a1.24,1.24,0,0,1,1.25,1.24h0v5A1.24,1.24,0,0,1,105.21,63.73Zm0,33.19H14.79a1.25,1.25,0,0,1-1.25-1.25v-5a1.25,1.25,0,0,1,1.25-1.25h90.42a1.25,1.25,0,0,1,1.25,1.25v5A1.25,1.25,0,0,1,105.21,96.92Z"/></g></svg>