<svg xmlns="http://www.w3.org/2000/svg" viewBox="0 0 120 120"><defs><style>.cls-1{fill:#7d30cc;}</style></defs><title>handball</title><g id="Layer_1" data-name="Layer 1"><path class="cls-1" d="M108.55,44.22A51.06,51.06,0,0,0,60,8.91C25.64,8.91.67,42.57,11.45,75.78A51.1,51.1,0,0,0,60,111.09C94.38,111.09,119.33,77.43,108.55,44.22ZM99.7,80,80.27,82.39,76.6,77.26l7-21.44,6-1.86,14.34,13.39A45.88,45.88,0,0,1,99.7,80ZM16.24,67.31l14.3-13.37,6,1.86,7,21.36-3.73,5.19L20.34,80a41.87,41.87,0,0,1-4.1-12.65ZM56.72,30.09v6.78L39,49.7l-6.49-2L28.83,28.34a44.55,44.55,0,0,1,10.71-7.79ZM87.5,47.68,81,49.7,63.32,36.87V30.09l17.22-9.56a44.48,44.48,0,0,1,10.71,7.81L87.5,47.68ZM43.13,54.89,60,42.63,76.93,54.91l-6.4,19.78H49.6Zm61.32,4L93.93,49.08,96.67,35a43.73,43.73,0,0,1,7.78,23.9ZM72.61,17.4,60,24.38l-12.57-7C62.18,13.05,72.59,17.4,72.61,17.4ZM23.39,34.89l2.72,14.19L15.59,58.87a44.34,44.34,0,0,1,4.86-19.08,42.36,42.36,0,0,1,2.94-4.9Zm1.55,52.32,14.15,1.73,6,12.92A44.14,44.14,0,0,1,24.94,87.21ZM53.35,104,45.08,86.24l3.59-5h22.7l3.56,5L66.67,104A41.91,41.91,0,0,1,53.35,104Zm21.58-2.1,6-12.92,14.21-1.75A44,44,0,0,1,74.93,101.86Z"/></g></svg>