<svg xmlns="http://www.w3.org/2000/svg" viewBox="0 0 120 120"><title>help</title><g id="Layer_1" data-name="Layer 1"><path d="M60,77.41a5.81,5.81,0,1,0,5.8,5.81A5.8,5.8,0,0,0,60,77.41Zm1.59-5H58.27A2.49,2.49,0,0,1,55.79,70v-.08c0-14.58,16.05-13.19,16.05-22.26,0-4.15-3.68-8.34-11.91-8.34-6,0-9.17,2-12.27,5.95a2.49,2.49,0,0,1-3.37.49l-2.72-1.9A2.47,2.47,0,0,1,41,40.25C45.42,34.61,50.64,31,59.93,31c10.85,0,20.2,6.16,20.2,16.63,0,14-16,13.23-16,22.26V70a2.5,2.5,0,0,1-2.49,2.49ZM60,15.22A44.78,44.78,0,1,1,15.22,60,44.79,44.79,0,0,1,60,15.22m0-6.63A51.41,51.41,0,1,0,111.41,60,51.42,51.42,0,0,0,60,8.59Z"/></g></svg>