<svg xmlns="http://www.w3.org/2000/svg" viewBox="0 0 120 120"><title>hockey_field</title><g id="Layer_1" data-name="Layer 1"><path d="M110.76,36.46a2.66,2.66,0,0,0-2.93.59l-8.46,8.48-9.89-9.89,13.13-13.15a2.68,2.68,0,0,0-1.9-4.59H98.88a2.75,2.75,0,0,0-1.9.79L42.4,73.33a4.12,4.12,0,0,1-4.07,1.21,4.94,4.94,0,0,1-3.41-3.37,4.12,4.12,0,0,1,1.25-4.08A13.66,13.66,0,1,0,16.85,47.76,31.75,31.75,0,0,0,39.29,102C52.81,102,60.17,94.38,65,89.37l.39-.4a18.88,18.88,0,0,0,17.9,13.13l.75,0A18.81,18.81,0,0,0,89,65.36l22.67-22.69a2.71,2.71,0,0,0,.77-1.89V39A2.66,2.66,0,0,0,110.76,36.46ZM26.49,50.4h0a7,7,0,0,1,5,12A11.08,11.08,0,0,0,39.3,81.29h0A11,11,0,0,0,47.12,78l37.65-37.7,9.89,9.91L80.19,64.74a18.69,18.69,0,0,0-15.38,15.4c-.88.89-1.73,1.77-2.57,2.63-6.79,7-12.16,12.51-23,12.51A25.1,25.1,0,0,1,21.57,52.45,6.89,6.89,0,0,1,26.49,50.4ZM83.28,71.09A12.17,12.17,0,1,1,71.13,83.26,12.18,12.18,0,0,1,83.28,71.09Z"/></g></svg>