<svg xmlns="http://www.w3.org/2000/svg" viewBox="0 0 120 120"><title>hockey_ice</title><g id="Layer_1" data-name="Layer 1"><path d="M115.3,77.48H76.48a1.49,1.49,0,0,1-1.31-.8L69.75,65.84l21.46-43A2.93,2.93,0,0,0,89.9,19l-10.38-5.2a2.89,2.89,0,0,0-3.91,1.31L60,46.3,44.39,15.05a2.92,2.92,0,0,0-3.91-1.31l-10.42,5.2a2.93,2.93,0,0,0-1.31,3.91l21.46,43L44.79,76.66a1.45,1.45,0,0,1-1.31.8H4.7a2.92,2.92,0,0,0-2.91,2.91v23.28a2.92,2.92,0,0,0,2.91,2.91H38.59A17.49,17.49,0,0,0,54.22,96.9L60,85.34,65.78,96.9a17.49,17.49,0,0,0,15.63,9.66H115.3a2.92,2.92,0,0,0,2.91-2.91V80.39A2.92,2.92,0,0,0,115.3,77.48Zm-80-54.61,5.2-2.6L56.74,52.81l-3.25,6.51ZM7.61,100.76V83.3h5.82v17.46ZM49,94.32a11.56,11.56,0,0,1-10.4,6.44H19.25V83.3H43.52a7.25,7.25,0,0,0,6.51-4l29.49-59,5.2,2.6L49,94.32Zm32.4,6.44A11.56,11.56,0,0,1,71,94.32L63.27,78.84l3.26-6.51L70,79.26a7.25,7.25,0,0,0,6.52,4h24.23v17.46H81.41Zm31,0h-5.82V83.3h5.82Z"/></g></svg>