<svg xmlns="http://www.w3.org/2000/svg" viewBox="0 0 120 120"><title>home</title><g id="Layer_1" data-name="Layer 1"><path d="M112.47,54.43,99.82,44.1V28a1.25,1.25,0,0,0-1.25-1.24H94.43A1.25,1.25,0,0,0,93.18,28V38.69L64.18,15a6.67,6.67,0,0,0-8.37,0L7.52,54.43a1.65,1.65,0,0,0-.24,2.33l2.09,2.58a1.67,1.67,0,0,0,2.33.24l8.47-6.92v50.4a3.32,3.32,0,0,0,3.32,3.32H50a3.32,3.32,0,0,0,3.32-3.32V76.51l13.27.07v26.56A3.32,3.32,0,0,0,70,106.46l26.55-.07a3.32,3.32,0,0,0,3.32-3.32V52.66l8.47,6.92a1.67,1.67,0,0,0,2.34-.24l2.09-2.57a1.65,1.65,0,0,0-.24-2.33ZM93.16,99.77h0l-19.91.06V73.25A3.33,3.33,0,0,0,70,69.93l-19.91-.06a3.32,3.32,0,0,0-3.33,3.31h0V99.77H26.81V47.24L60,20.16,93.18,47.24Z"/></g></svg>