<svg xmlns="http://www.w3.org/2000/svg" viewBox="0 0 120 120"><defs><style>.cls-1{fill:none;}</style></defs><title>hurling</title><g id="Layer_1" data-name="Layer 1"><path class="cls-1" d="M81.36,68.26a18.92,18.92,0,0,1-18.9-18.9c0-.08,0-.14,0-.21-2.21-.87-4.54-1.82-7-2.87L38,65.52c6.65,9.76,12.57,19.29,17.62,28.38a3.55,3.55,0,0,1,.21.44c.13.32,2.36,5.09,12.27,5.09h.17l.33,0c.23,0,23.23,2.09,30.05-9.93a3.58,3.58,0,0,1,.5-.66c.31-.34,7.93-8.79,2.27-22.92,0-.11-.08-.23-.11-.34a11.48,11.48,0,0,0-4.58-5.27A18.87,18.87,0,0,1,81.36,68.26Z"/><path d="M107.67,63.55c-.37-1.12-2.22-5.71-8.07-9.32a18.7,18.7,0,0,0,.66-4.87,18.89,18.89,0,0,0-36.48-6.91c-2.42-1-5-2-7.63-3.21l-.17-.1a1.94,1.94,0,0,0-.79-.33c-.88-.34-8.25-3.54-33.3-24.35a3.35,3.35,0,1,0-4.28,5.16C35.16,34.2,44.47,40.52,49.2,43.25L34.07,59.87c-5.64-8-11.79-16.21-18.31-24.41a3.35,3.35,0,0,0-5.24,4.17C17.88,48.89,24.76,58.14,31,67.13,38.08,77.42,44.37,87.47,49.68,97c.79,1.77,4.9,9.12,18.42,9.12h0c.57.05,2.25.18,4.6.18,8.21,0,24.7-1.53,31.58-13.17C106.06,91.08,114.3,80.24,107.67,63.55ZM70,44.82a12.2,12.2,0,0,1,23.52,4.54,12.82,12.82,0,0,1-.18,2.06A12.2,12.2,0,1,1,70,44.82Zm29.1,44a3.58,3.58,0,0,0-.5.66c-6.82,12-29.82,10-30,9.93l-.33,0h-.17c-9.91,0-12.14-4.77-12.27-5.09a3.55,3.55,0,0,0-.21-.44c-5-9.09-11-18.62-17.62-28.38L55.51,46.28c2.42,1,4.75,2,7,2.87,0,.07,0,.13,0,.21a18.88,18.88,0,0,0,34.26,11,11.48,11.48,0,0,1,4.58,5.27c0,.11.07.23.11.34C107.07,80.07,99.45,88.52,99.14,88.86Z"/></g></svg>