<svg xmlns="http://www.w3.org/2000/svg" viewBox="0 0 120 120"><title>info</title><g id="Layer_1" data-name="Layer 1"><path d="M96.47,13.58H23.53a10,10,0,0,0-10,10V96.47a10,10,0,0,0,10,10H96.47a10,10,0,0,0,10-10V23.53A10,10,0,0,0,96.47,13.58Zm3.32,82.89a3.32,3.32,0,0,1-3.32,3.32H23.53a3.32,3.32,0,0,1-3.32-3.32V23.53a3.32,3.32,0,0,1,3.32-3.32H96.47a3.32,3.32,0,0,1,3.32,3.32ZM52.54,79.89H55V55H52.54a2.5,2.5,0,0,1-2.49-2.49V50.88a2.49,2.49,0,0,1,2.49-2.48h10A2.48,2.48,0,0,1,65,50.88v29h2.49A2.5,2.5,0,0,1,70,82.38V84a2.49,2.49,0,0,1-2.49,2.48H52.54A2.49,2.49,0,0,1,50.05,84V82.38A2.5,2.5,0,0,1,52.54,79.89ZM60,30.16a6.63,6.63,0,1,0,6.63,6.63A6.63,6.63,0,0,0,60,30.16Z"/></g></svg>