<svg xmlns="http://www.w3.org/2000/svg" viewBox="0 0 120 120"><title>instagram</title><g id="Layer_1" data-name="Layer 1"><path d="M60,36.18A23.82,23.82,0,1,0,83.83,60,23.78,23.78,0,0,0,60,36.18Zm0,39.31A15.49,15.49,0,1,1,75.5,60,15.52,15.52,0,0,1,60,75.49ZM90.36,35.2a5.56,5.56,0,1,1-5.55-5.55A5.54,5.54,0,0,1,90.36,35.2Zm15.78,5.64c-.35-7.44-2-14-7.5-19.47s-12-7.13-19.47-7.5c-7.67-.44-30.67-.44-38.34,0-7.42.35-14,2.05-19.47,7.48s-7.13,12-7.5,19.47c-.44,7.67-.44,30.67,0,38.34.35,7.44,2.05,14,7.5,19.47s12,7.13,19.47,7.5c7.67.44,30.67.44,38.34,0,7.44-.35,14-2,19.47-7.5s7.13-12,7.5-19.47c.44-7.67.44-30.65,0-38.32ZM96.23,87.39a15.71,15.71,0,0,1-8.83,8.83C81.28,98.65,66.77,98.09,60,98.09s-21.29.54-27.39-1.87a15.71,15.71,0,0,1-8.83-8.83C21.36,81.27,21.92,66.76,21.92,60s-.54-21.29,1.87-27.39a15.71,15.71,0,0,1,8.83-8.83c6.12-2.43,20.63-1.87,27.39-1.87s21.29-.54,27.39,1.87a15.71,15.71,0,0,1,8.83,8.83C98.66,38.73,98.1,53.24,98.1,60S98.66,81.29,96.23,87.39Z"/></g></svg>