<svg xmlns="http://www.w3.org/2000/svg" viewBox="0 0 120 120"><defs><style>.cls-1{fill:#7d30cc;}</style></defs><title>jersey</title><g id="Layer_1" data-name="Layer 1"><path class="cls-1" d="M119.68,31.51a6.06,6.06,0,0,0-3-3.51L79.7,9.48H40.3L3.31,28A6.08,6.08,0,0,0,.65,36.13L10.81,56.65a6,6,0,0,0,8,2.73l9.59-4.74v46.94a8.9,8.9,0,0,0,8.84,8.94H82.76a8.9,8.9,0,0,0,8.84-8.94V54.66l9.57,4.74a5.8,5.8,0,0,0,4.6.31,5.91,5.91,0,0,0,3.45-3l10.17-20.54A6.11,6.11,0,0,0,119.68,31.51ZM72.41,15.74,59.88,29.85,47.49,15.74ZM104,53.67,85.26,44.44v57.18a2.53,2.53,0,0,1-2.52,2.54H37.26a2.53,2.53,0,0,1-2.52-2.54V44.44L16.46,53.83,6.14,33.72l7.74-3.91L20,42.6a3.2,3.2,0,0,0,2.89,1.82,3.32,3.32,0,0,0,1.39-.32,3.21,3.21,0,0,0,1.49-4.28L19.62,27l0,0L39.82,16.7,57.45,36.81a3.24,3.24,0,0,0,2.4,1.09h0a3.19,3.19,0,0,0,2.4-1.08L80.1,16.73l20.3,10.21,0,0L94.19,39.82a3.21,3.21,0,0,0,1.49,4.28,3.32,3.32,0,0,0,1.39.32A3.2,3.2,0,0,0,100,42.6l6.16-12.79,7.46,3.75Z"/><path class="cls-1" d="M71.83,61.72c0,9.48-5.38,18.07-15.08,18.07a15.66,15.66,0,0,1-5.18-.85,2,2,0,0,1-1.22-2.54l.74-2.16A2,2,0,0,1,53.61,73c4.69,1.55,8.58-.41,10.23-5.73a10.62,10.62,0,0,1-15.67-9.51A10.85,10.85,0,0,1,59.31,46.68C66,46.68,71.83,52,71.83,61.72ZM64.71,59.3c0-2.86-2.41-6.32-5.4-6.32-2.39,0-4.06,2-4.06,4.76,0,3,1.94,4.83,5.18,4.83,2.44,0,4.28-1.41,4.28-3.27Z"/></g></svg>