<svg xmlns="http://www.w3.org/2000/svg" viewBox="0 0 120 120"><defs><style>.cls-1{fill:#7d30cc;}</style></defs><title>keepsakes</title><g id="Layer_1" data-name="Layer 1"><path class="cls-1" d="M109.73,13.54H10.27a10,10,0,0,0-10,10V96.46a10,10,0,0,0,10,10h99.46a10,10,0,0,0,10-10V23.54A10,10,0,0,0,109.73,13.54ZM19.44,99.71H10.27A3.26,3.26,0,0,1,7,96.46V23.54a3.26,3.26,0,0,1,3.25-3.25h9.17ZM113,96.46a3.26,3.26,0,0,1-3.25,3.25H26.19V20.29h83.54A3.26,3.26,0,0,1,113,23.54Z"/><path class="cls-1" d="M70,64.79a9,9,0,1,0-9-9A9,9,0,0,0,70,64.79Z"/><path class="cls-1" d="M40.09,86.55H99.82V33.45H40.09ZM46.84,40.2H93.07V79.8H83.5v-6a6.77,6.77,0,0,0-6.77-6.77h-1.6a12.43,12.43,0,0,1-10.35,0h-1.6a6.77,6.77,0,0,0-6.77,6.77v6H46.84Z"/></g></svg>