<svg xmlns="http://www.w3.org/2000/svg" viewBox="0 0 120 120"><defs><style>.cls-1{fill:#fff;}</style></defs><title>kohort</title><g id="Layer_1" data-name="Layer 1"><path d="M64,8.39a6.92,6.92,0,0,0-7.73,0L17.41,30.83a9.34,9.34,0,0,0-.87.5,6.93,6.93,0,0,0-3,5.74L13.23,83a6.91,6.91,0,0,0,3.65,6.1L56,111.61a6.92,6.92,0,0,0,7.73,0l39-22.52c.25-.13.48-.27.71-.42a6.92,6.92,0,0,0,3-5.73L106.77,37a6.91,6.91,0,0,0-3.54-6Z"/><path class="cls-1" d="M54.55,79a3,3,0,0,1-3,3h-10a3,3,0,0,1-3-3V42.11a3,3,0,0,1,3-3h10a3,3,0,0,1,3,3V79Z"/><path class="cls-1" d="M80.85,82.09H70.37a3,3,0,0,1-2.46-1.31L57.37,62.22a3,3,0,0,1,.08-3.51l10.36-18.3a2.94,2.94,0,0,1,2.48-1.35H80.77a3,3,0,0,1,3,3,3,3,0,0,1-.5,1.66L74.68,58.56a3,3,0,0,0-.73,2,3,3,0,0,0,.5,1.67L83.2,77.28a3,3,0,0,1-2.35,4.81Z"/></g></svg>