<?xml version="1.0" encoding="utf-8"?>
<!-- Generator: Adobe Illustrator 24.0.1, SVG Export Plug-In . SVG Version: 6.00 Build 0)  -->
<svg version="1.1" id="Layer_1" xmlns="http://www.w3.org/2000/svg" xmlns:xlink="http://www.w3.org/1999/xlink" x="0px" y="0px"
	 viewBox="0 0 120 120" style="enable-background:new 0 0 120 120;" xml:space="preserve">
<style type="text/css">
	.st0{fill:#7D30CC;}
</style>
<title>lacrosse</title>
<g id="Layer_1_1_">
	<path class="st0" d="M87.8,60.1c13-1.2,17.9-6.3,19-7.6c4.2-4.2,6.2-9,6.2-14.2c-0.2-9.6-7.6-17.6-10.8-20.6
		C99,14.3,91,6.9,81.4,6.8c-5.2-0.1-10,2-14.2,6.1c-1.3,1-6.4,6-7.6,19c0,0.2,0.4,6.8-8.4,15.6l-3.8,3.8c-0.7,0.6-5.4,5.3-5.6,11.4
		c-0.1,3.2,1.1,6.2,3.1,8.7L8,108.1c-1.2,1.1-1.3,3-0.1,4.2s3,1.3,4.2,0.1c0.1,0,0.1-0.1,0.1-0.1l36.9-36.9c2.3,1.7,5,2.5,7.8,2.4
		c6.2-0.2,10.8-4.9,11.4-5.6l3.8-3.8C81,59.7,87.5,60.1,87.8,60.1z M97.7,21.8l0.1,0.1c2.1,2,8.9,8.9,9,16.4c0,3.3-1.2,6.6-3.5,9
		c0-0.2,0-0.5,0-0.7c-0.2-9.3-8-17.4-10.5-19.8S82.3,16.4,73.1,16.3h-0.7c2.4-2.3,5.7-3.6,9-3.5C88.8,12.9,95.8,19.7,97.7,21.8z
		 M67.2,24c1.7-1.1,3.7-1.7,5.7-1.7c7.2,0.1,14.2,7.3,15.6,8.7l0.1,0.1c1.4,1.3,8.6,8.4,8.7,15.6c0,2-0.5,4-1.7,5.7
		c-2.7,0.9-5.4,1.5-8.2,1.7c-1.7-0.1-7.9,0.2-16.2,7.1c-2.3,1.2-6.1,2-10.2-2l-0.7-0.7c-2.1-2.1-3.2-4.3-3.1-6.4
		c0.1-1.4,0.5-2.7,1.2-3.9c6.8-8.2,7.1-14.3,7-16C65.8,29.4,66.4,26.7,67.2,24z M56.8,71.9c-2.2,0-4.2-1-5.6-2.6l-0.8-0.8
		c-1.6-1.4-2.6-3.5-2.6-5.7c0.1-3.9,3.7-7.2,3.7-7.2l0.1-0.1l0.2-0.2c0.8,2.8,2.4,5.4,4.5,7.4l0.7,0.7c2,2.2,4.7,3.7,7.6,4.4
		l-0.3,0.3L64,68.2C64,68.2,60.7,71.8,56.8,71.9z"/>
</g>
</svg>
