<svg xmlns="http://www.w3.org/2000/svg" viewBox="0 0 120 120"><title>lacrosse_vertical</title><g id="Layer_1" data-name="Layer 1"><path d="M80,43.06C88.28,33,88.14,25.94,88,24.27c0-5.92-2-10.77-5.72-14.4C75.38,3.22,64.48,2.8,60,2.94c-4.48-.13-15.38.29-22.25,6.93C34,13.5,32.07,18.35,32,24.27c-.17,1.67-.31,8.72,8,18.79.14.17,5.05,4.53,5.05,16.95v5.38c0,.94-.11,7.57,4.13,12a12.86,12.86,0,0,0,8.31,3.92v32.72a3,3,0,0,0,6,0V81.22a12.59,12.59,0,0,0,7.23-3.78C75,73,74.93,66.33,74.9,65.39V60C74.9,47.59,79.81,43.23,80,43.06ZM59.9,8.94h.2c2.85-.09,12.56,0,18,5.25A12.92,12.92,0,0,1,81.91,23c-.16-.17-.32-.35-.49-.52C74.74,16.05,63.47,15.86,60,16c-3.46-.09-14.74.1-21.42,6.55-.17.18-.34.35-.49.53a12.94,12.94,0,0,1,3.83-8.84C47.34,8.94,57.05,8.85,59.9,8.94ZM39.92,32a9.77,9.77,0,0,1,2.83-5.22c5.18-5,15.19-4.93,17.15-4.87h.2c2-.06,12-.14,17.15,4.87A9.77,9.77,0,0,1,80.08,32a36.43,36.43,0,0,1-4.59,7c-1.28,1.15-5.46,5.71-6.4,16.47-.79,2.46-2.94,5.73-8.63,5.73h-.92c-3,0-5.29-.76-6.73-2.27a8.46,8.46,0,0,1-1.92-3.63c-1-10.65-5.1-15.15-6.38-16.3A36.43,36.43,0,0,1,39.92,32Zm26.47,41.3a7.64,7.64,0,0,1-5.85,2.13H59.46a7.64,7.64,0,0,1-5.85-2.13c-2.71-2.83-2.51-7.69-2.51-7.72v-.43a16.31,16.31,0,0,0,8.44,2.06h.92A15.09,15.09,0,0,0,68.9,65v.63S69.1,70.51,66.39,73.34Z"/></g></svg>