<svg xmlns="http://www.w3.org/2000/svg" viewBox="0 0 120 120"><title>lightbulb</title><g id="Layer_1" data-name="Layer 1"><path d="M60,20.41A23.12,23.12,0,0,0,36.91,43.5a3.3,3.3,0,1,0,6.59,0A16.51,16.51,0,0,1,60,27a3.3,3.3,0,0,0,0-6.6Zm0-13.2A36.28,36.28,0,0,0,32.69,67.38c5.29,6,10.37,15.86,10.81,19l0,15.51a3.27,3.27,0,0,0,.55,1.82l5,7.6a3.32,3.32,0,0,0,2.75,1.47H68.13a3.32,3.32,0,0,0,2.75-1.47l5.05-7.6a3.3,3.3,0,0,0,.55-1.82l0-15.51c.46-3.24,5.56-13,10.81-19A36.28,36.28,0,0,0,60,7.21Zm9.89,93.68-3.53,5.3H53.64l-3.53-5.3v-1.3H69.89Zm0-7.9H50.1v-6.6H69.9ZM82.35,63A70.26,70.26,0,0,0,71.92,79.79H48.08A70.06,70.06,0,0,0,37.65,63a29.69,29.69,0,1,1,44.7,0Z"/></g></svg>