<svg xmlns="http://www.w3.org/2000/svg" viewBox="0 0 120 120"><title>linkedin</title><g id="Layer_1" data-name="Layer 1"><path d="M99.82,13.54H20.16a6.67,6.67,0,0,0-6.62,6.7V99.76a6.67,6.67,0,0,0,6.62,6.7H99.82a6.69,6.69,0,0,0,6.64-6.7V20.24A6.69,6.69,0,0,0,99.82,13.54ZM41.62,93.18H27.85V48.84H41.64V93.18ZM34.74,42.79a8,8,0,1,1,8-8A8,8,0,0,1,34.74,42.79ZM93.25,93.18H79.48V71.61c0-5.14-.11-11.76-7.16-11.76S64,65.45,64,71.24V93.18H50.27V48.84H63.48V54.9h.19c1.85-3.49,6.35-7.16,13-7.16,13.93,0,16.53,9.19,16.53,21.14Z"/></g></svg>