<svg xmlns="http://www.w3.org/2000/svg" viewBox="0 0 120 120"><defs><style>.cls-1{fill:#7d30cc;}</style></defs><title>list</title><g id="Layer_1" data-name="Layer 1"><path class="cls-1" d="M105.34,33.61H36.21A1.11,1.11,0,0,1,35.1,32.5V28a1.12,1.12,0,0,1,1.11-1.12h69.13A1.12,1.12,0,0,1,106.46,28V32.5A1.12,1.12,0,0,1,105.34,33.61Zm1.12,28.62V57.77a1.12,1.12,0,0,0-1.12-1.12H36.21a1.12,1.12,0,0,0-1.11,1.12h0v4.46a1.12,1.12,0,0,0,1.11,1.12h69.13A1.12,1.12,0,0,0,106.46,62.23Zm0,29.73V87.5a1.12,1.12,0,0,0-1.12-1.11H36.21A1.11,1.11,0,0,0,35.1,87.5V92a1.12,1.12,0,0,0,1.11,1.12h69.13A1.12,1.12,0,0,0,106.46,92ZM20.23,23.58a6.69,6.69,0,1,0,6.69,6.69A6.69,6.69,0,0,0,20.23,23.58Zm0,29.73A6.69,6.69,0,1,0,26.92,60,6.7,6.7,0,0,0,20.23,53.31Zm0,29.73a6.69,6.69,0,1,0,6.69,6.69A6.7,6.7,0,0,0,20.23,83Z"/></g></svg>