<svg xmlns="http://www.w3.org/2000/svg" viewBox="0 0 120 120"><defs><style>.cls-1{fill:#7d30cc;}</style></defs><title>location</title><g id="Layer_1" data-name="Layer 1"><path class="cls-1" d="M60,27A19.8,19.8,0,1,0,79.8,46.8,19.82,19.82,0,0,0,60,27Zm0,33A13.2,13.2,0,1,1,73.2,46.8,13.21,13.21,0,0,1,60,60ZM60,7.21A39.59,39.59,0,0,0,20.41,46.8c0,16,5.56,20.42,35.52,63.86a5,5,0,0,0,8.14,0C94,67.22,99.59,62.77,99.59,46.8A39.59,39.59,0,0,0,60,7.21Zm0,97.73C31.28,63.4,27,60.1,27,46.8a33,33,0,1,1,66,0C93,60.1,88.73,63.4,60,104.94Z"/></g></svg>