<svg xmlns="http://www.w3.org/2000/svg" viewBox="0 0 120 120"><title>lock</title><g id="Layer_1" data-name="Layer 1"><path d="M60,93.82a4.14,4.14,0,0,1-4.12-4.13V76.5a4.12,4.12,0,1,1,8.24,0V89.69A4.14,4.14,0,0,1,60,93.82ZM106.19,63.3v39.59a9.9,9.9,0,0,1-9.9,9.9H23.71a9.9,9.9,0,0,1-9.9-9.9V63.3a9.9,9.9,0,0,1,9.9-9.9H27V40.2a33,33,0,1,1,66,.31V53.4h3.3A9.9,9.9,0,0,1,106.19,63.3ZM33.61,53.4H86.39V40.2a26.39,26.39,0,1,0-52.78,0Zm66,49.49V63.3a3.3,3.3,0,0,0-3.3-3.3H23.71a3.3,3.3,0,0,0-3.3,3.3v39.59a3.31,3.31,0,0,0,3.3,3.3H96.29A3.31,3.31,0,0,0,99.59,102.89Z"/></g></svg>