<svg xmlns="http://www.w3.org/2000/svg" viewBox="0 0 120 120"><title>lock_open</title><g id="Layer_1" data-name="Layer 1"><path d="M89.66,60H40.22V40.22c0-14.54,5.24-26.36,19.78-26.36S79.78,25.68,79.78,40.22v4.12a2.48,2.48,0,0,0,2.47,2.48H83.9a2.48,2.48,0,0,0,2.47-2.48V40.53c0-18.21-8.06-33.2-26.27-33.27S33.63,22,33.63,40.22V60H30.34a9.89,9.89,0,0,0-9.89,9.89v33a9.89,9.89,0,0,0,9.89,9.89H89.66a9.89,9.89,0,0,0,9.89-9.89v-33A9.89,9.89,0,0,0,89.66,60ZM93,102.85a3.3,3.3,0,0,1-3.3,3.29H30.34a3.3,3.3,0,0,1-3.3-3.29v-33a3.31,3.31,0,0,1,3.3-3.3H89.66a3.31,3.31,0,0,1,3.3,3.3ZM60,96.26A3.32,3.32,0,0,1,56.7,93V79.78a3.3,3.3,0,0,1,6.6,0V93A3.32,3.32,0,0,1,60,96.26Z"/></g></svg>