<svg xmlns="http://www.w3.org/2000/svg" viewBox="0 0 120 120"><defs><style>.cls-1{fill:#7d30cc;}</style></defs><title>logout</title><g id="Layer_1" data-name="Layer 1"><path class="cls-1" d="M16.85,20.18H44.22a2.5,2.5,0,0,1,2.49,2.49v1.66a2.5,2.5,0,0,1-2.49,2.49H16.85a3.32,3.32,0,0,0-3.32,3.31V89.87a3.32,3.32,0,0,0,3.32,3.31H44.22a2.5,2.5,0,0,1,2.49,2.49v1.66a2.5,2.5,0,0,1-2.49,2.49H16.85a10,10,0,0,1-10-9.95V30.13A10,10,0,0,1,16.85,20.18Zm57.86,4L73.24,25.7a2.49,2.49,0,0,0,0,3.52l27.38,27.25H42.56A2.49,2.49,0,0,0,40.08,59V61a2.49,2.49,0,0,0,2.48,2.49h58.06L73.26,90.78a2.49,2.49,0,0,0,0,3.52l1.47,1.48a2.5,2.5,0,0,0,3.53,0l34.12-34a2.49,2.49,0,0,0,0-3.52l-34.14-34A2.5,2.5,0,0,0,74.71,24.22Z"/></g></svg>