<svg xmlns="http://www.w3.org/2000/svg" viewBox="0 0 120 120"><defs><style>.cls-1{fill:#7d30cc;}</style></defs><title>marching_band</title><g id="Layer_1" data-name="Layer 1"><path class="cls-1" d="M92.65,30.5,90,29.82l14.34-8.94a3.17,3.17,0,0,0,.85-4.39,3.17,3.17,0,0,0-4.32-1.17L81,27.72a129.93,129.93,0,0,0-42,0L19.11,15.32a3.17,3.17,0,0,0-4.32,1.17,3.17,3.17,0,0,0,.85,4.39l14.2,8.85c-13,3.63-22.58,10-22.58,19.35V82c0,12.74,23.62,23.07,52.74,23.07S112.74,94.78,112.74,82v-33C112.74,40.33,104.39,34.22,92.65,30.5ZM60,32.6q6.12,0,12.2.61L60,40.82,47.77,33.19C51.66,32.81,55.76,32.6,60,32.6ZM27,93.05c-8.42-3.32-13.18-7.56-13.18-11V61A42.5,42.5,0,0,0,27,67.56Zm29.66,5.4a97.18,97.18,0,0,1-23.07-3.22V69.36A117.3,117.3,0,0,0,56.7,72.09Zm29.67-3.22A97.7,97.7,0,0,1,63.3,98.45V72.09a118.06,118.06,0,0,0,23.07-2.73ZM106.14,82c0,3.45-4.76,7.69-13.18,11V67.56A42.5,42.5,0,0,0,106.14,61ZM60,65.56c-25.48,0-46.14-7.38-46.14-16.48,0-6.21,9.63-11.62,23.86-14.43l16.09,10L48,48.31a3.29,3.29,0,0,0,3.47,5.56L60,48.54l8.55,5.33A3.29,3.29,0,0,0,72,48.31l-5.83-3.63,15.94-9.94,2.92.51c12.68,2.94,21.09,8,21.09,13.83C106.14,58.18,85.48,65.56,60,65.56Z"/></g></svg>