<svg xmlns="http://www.w3.org/2000/svg" viewBox="0 0 120 120"><defs><style>.cls-1{fill:#7d30cc;}</style></defs><title>members</title><g id="Layer_1" data-name="Layer 1"><path class="cls-1" d="M76.58,64.15c-6.93,0-8.65,2.49-16.61,2.49s-9.69-2.49-16.62-2.49a22.86,22.86,0,0,0-19.14,9.73,23.76,23.76,0,0,0-4.06,13.33V96.5a10,10,0,0,0,10,10H89.83a10,10,0,0,0,10-10V87.21a23.69,23.69,0,0,0-4.07-13.33A22.84,22.84,0,0,0,76.58,64.15ZM89.83,99.82H30.1a3.33,3.33,0,0,1-3.32-3.32V87.21a17.21,17.21,0,0,1,2.93-9.62,16.22,16.22,0,0,1,13.62-6.8c5.69,0,7.72,2.48,16.64,2.48s11-2.48,16.61-2.48a16.25,16.25,0,0,1,13.63,6.8,17.28,17.28,0,0,1,2.92,9.62V96.5h0A3.32,3.32,0,0,1,89.83,99.82Z"/><path class="cls-1" d="M60,60A23.23,23.23,0,1,0,36.74,36.77,23.22,23.22,0,0,0,60,60Zm0-39.82a16.59,16.59,0,1,1-16.6,16.59A16.61,16.61,0,0,1,60,20.18Z"/><path class="cls-1" d="M102.85,54.23A14.46,14.46,0,1,0,88.4,39.77,14.47,14.47,0,0,0,102.85,54.23Zm0-22.17a7.71,7.71,0,1,1-7.7,7.71A7.72,7.72,0,0,1,102.85,32.06Z"/><path class="cls-1" d="M114.76,66.6a14.86,14.86,0,0,0-10.4-3.87H96.52a17.39,17.39,0,0,0-5,.74,20.18,20.18,0,0,1,7.75,6h5.33a8.33,8.33,0,0,1,5.56,2.1c1.87,1.79,2.82,4.72,2.82,8.7a3.38,3.38,0,1,0,6.75,0C119.77,74.31,118.08,69.71,114.76,66.6Z"/><path class="cls-1" d="M17.15,54.23A14.46,14.46,0,1,0,2.69,39.77,14.47,14.47,0,0,0,17.15,54.23Zm0-22.17a7.71,7.71,0,1,1-7.71,7.71A7.71,7.71,0,0,1,17.15,32.06Z"/><path class="cls-1" d="M28.44,63.47a17.39,17.39,0,0,0-5-.74H15.64A14.86,14.86,0,0,0,5.24,66.6c-3.32,3.11-5,7.71-5,13.67a3.38,3.38,0,1,0,6.75,0c0-4,.95-6.91,2.82-8.7a8.33,8.33,0,0,1,5.56-2.1h5.33A20.18,20.18,0,0,1,28.44,63.47Z"/></g></svg>