<svg xmlns="http://www.w3.org/2000/svg" viewBox="0 0 120 120"><defs><style>.cls-1{fill:#7d30cc;}</style></defs><title>memoriam</title><g id="Layer_1" data-name="Layer 1"><path class="cls-1" d="M104.44,91.28,80.56,66.17,89.3,56.8c6.89-7.36,7.72-18,2.11-27.11L83.26,16.47A14.07,14.07,0,0,0,78.83,12C75.49,9.79,69.53,7.21,60,7.21S44.52,9.79,41.2,11.93a14.12,14.12,0,0,0-4.44,4.56l-8.7,14.13A21.48,21.48,0,0,0,30.74,56.8l9.12,9.76L15.54,91.32a6.48,6.48,0,0,0,1.06,9.74l13.79,10.62a6.8,6.8,0,0,0,8.64-1L60,88.17l21,22.47c3.22,3.45,7.36,1.86,8.87.89l13.36-10.31a6.53,6.53,0,0,0,1.24-9.94Zm-22.91-65,4.25,6.89c4.06,6.6,3.56,13.94-1.3,19.16L76,61.36,64.7,49.48,75.43,37.87C78.73,34.68,80.52,30.25,81.53,26.24ZM60.17,44.7l-9.3-9.77a34.56,34.56,0,0,1,18.33,0l-9,9.77ZM44.78,17.48c2.58-1.69,7.32-3.67,15.22-3.67s12.64,2,15.24,3.67a7.26,7.26,0,0,1,1,1,31.22,31.22,0,0,1-2.78,11A34.77,34.77,0,0,0,60,27a34.62,34.62,0,0,0-13.44,2.45A31.82,31.82,0,0,1,43.81,18.2a6.77,6.77,0,0,1,1-.72ZM34.21,106.29,20.33,95.88l24-24.5,11.16,12Zm51.59-.16L35.55,52.29a14.93,14.93,0,0,1-1.88-18.23l4.78-7.75c1,4,2.83,8.35,6,11.46L99.39,95.84,85.8,106.13Z"/></g></svg>