<svg xmlns="http://www.w3.org/2000/svg" viewBox="0 0 120 120"><defs><style>.cls-1{fill:#7d30cc;}</style></defs><title>merge</title><g id="Layer_1" data-name="Layer 1"><path class="cls-1" d="M83.1,46.79a16.52,16.52,0,0,0-16.44,15c-5.2-.26-12.7-1.62-18.31-6.53-4.19-3.67-6.77-8.87-7.74-15.49a16.52,16.52,0,1,0-7,.08V80.12a16.5,16.5,0,1,0,6.6,0v-24A27.12,27.12,0,0,0,44,60.26c7.5,6.54,17.18,8,23.38,8.19A16.5,16.5,0,1,0,83.1,46.79ZM27,23.69a9.9,9.9,0,1,1,9.9,9.9A9.91,9.91,0,0,1,27,23.69Zm19.8,72.6a9.9,9.9,0,1,1-9.9-9.9A9.9,9.9,0,0,1,46.8,96.29Zm36.3-23.1a9.9,9.9,0,1,1,9.9-9.9A9.9,9.9,0,0,1,83.1,73.19Z"/></g></svg>