<svg xmlns="http://www.w3.org/2000/svg" viewBox="0 0 120 120"><defs><style>.cls-1{fill:#7d30cc;}</style></defs><title>message</title><g id="Layer_1" data-name="Layer 1"><path class="cls-1" d="M78.14,47.44H40.52a3.38,3.38,0,0,1,0-6.75H78.14a3.38,3.38,0,0,1,0,6.75Z"/><path class="cls-1" d="M78.14,63.37H40.52a3.38,3.38,0,0,1,0-6.75H78.14a3.38,3.38,0,0,1,0,6.75Z"/><path class="cls-1" d="M78.14,78.36H40.52a3.38,3.38,0,0,1,0-6.75H78.14a3.38,3.38,0,0,1,0,6.75Z"/><path class="cls-1" d="M12.05,111.32a3.37,3.37,0,0,1-3-4.93l8.86-17A50.84,50.84,0,0,1,8.68,60a51.3,51.3,0,1,1,33.85,48.26l-30.14,3ZM43,101.45a3.31,3.31,0,0,1,1.2.22A44.62,44.62,0,1,0,24.57,87a3.4,3.4,0,0,1,.31,3.61L17.94,104l24.69-2.5Z"/></g></svg>