<svg xmlns="http://www.w3.org/2000/svg" viewBox="0 0 120 120"><defs><style>.cls-1{fill:#7d30cc;}</style></defs><title>mist</title><g id="Layer_1" data-name="Layer 1"><path class="cls-1" d="M28.65,73.2H91.33a21.44,21.44,0,0,0,1.59-42.83A18.18,18.18,0,0,0,74.84,13.81a17.85,17.85,0,0,0-10.15,3.13A24.66,24.66,0,0,0,20.4,32V32A21.4,21.4,0,0,0,28.65,73.2ZM24.79,37.48l2.74-.74-.41-3.55A8.54,8.54,0,0,1,27,32a18.07,18.07,0,0,1,34.06-8.5l2.19,4.08,3.13-3.4a11.52,11.52,0,0,1,20,7.82,13.1,13.1,0,0,1-.16,1.42L85.7,37.5,90.55,37a4.91,4.91,0,0,1,.78-.08,14.85,14.85,0,1,1,0,29.69H28.65a14.82,14.82,0,0,1-3.86-29.14Zm13.75,68.71H8.85a1.65,1.65,0,0,0-1.65,1.65v3.3a1.65,1.65,0,0,0,1.65,1.65H38.54a1.65,1.65,0,0,0,1.65-1.65v-3.3A1.65,1.65,0,0,0,38.54,106.19Zm79.2,0H55a1.65,1.65,0,0,0-1.65,1.65v3.3A1.65,1.65,0,0,0,55,112.79h62.7a1.65,1.65,0,0,0,1.65-1.65v-3.3A1.65,1.65,0,0,0,117.74,106.19ZM99.59,91.34V88A1.66,1.66,0,0,0,98,86.39H2.26A1.66,1.66,0,0,0,.61,88v3.3A1.65,1.65,0,0,0,2.26,93H98A1.65,1.65,0,0,0,99.59,91.34Z"/></g></svg>