<svg xmlns="http://www.w3.org/2000/svg" viewBox="0 0 120 120"><title>notifications</title><g id="Layer_1" data-name="Layer 1"><path d="M60,106.19a6.62,6.62,0,0,1-6.6-6.61H46.8a13.2,13.2,0,1,0,26.4,0H66.6A6.62,6.62,0,0,1,60,106.19Zm43.18-29.94C97.41,70.76,93,65,93,45.55c0-16.42-13.07-29.8-29.7-31.42V10.51a3.3,3.3,0,1,0-6.6,0v3.62C40.07,15.75,27,29.13,27,45.55,27,65,22.59,70.76,16.82,76.25A9.59,9.59,0,0,0,14.5,86.81,9.84,9.84,0,0,0,23.71,93H96.29a9.84,9.84,0,0,0,9.21-6.18A9.59,9.59,0,0,0,103.18,76.25ZM96.29,86.39H23.71A3.13,3.13,0,0,1,21.37,81c7.19-6.84,12.23-14.5,12.23-35.48,0-13.9,11.81-25.14,26.4-25.14S86.4,31.65,86.4,45.55c0,20.89,5,28.6,12.23,35.48A3.13,3.13,0,0,1,96.29,86.39Z"/></g></svg>