<svg xmlns="http://www.w3.org/2000/svg" viewBox="0 0 120 120"><defs><style>.cls-1{fill:#7d30cc;}</style></defs><title>password</title><g id="Layer_1" data-name="Layer 1"><path class="cls-1" d="M76.5,13.81A29.7,29.7,0,1,1,65.43,71.07L56.7,79.8H46.8V93H33.61v13.2H13.81V89.69L48.93,54.57A29.71,29.71,0,0,1,76.5,13.81m0-6.6A36.3,36.3,0,0,0,41.4,52.77L8.66,85.51A5,5,0,0,0,7.21,89v18.83a5,5,0,0,0,5,5h23.1a5,5,0,0,0,4.94-5V99.59h8.25a4.94,4.94,0,0,0,4.95-5V86.39h4a4.92,4.92,0,0,0,3.5-1.45l6.35-6.34A36.3,36.3,0,1,0,76.5,7.21Zm9.89,22.27a4.13,4.13,0,1,1-4.12,4.13,4.13,4.13,0,0,1,4.12-4.13m0-5.77a9.9,9.9,0,1,0,9.9,9.9A9.89,9.89,0,0,0,86.39,23.71Z"/></g></svg>