<?xml version="1.0" encoding="utf-8"?>
<!-- Generator: Adobe Illustrator 24.0.3, SVG Export Plug-In . SVG Version: 6.00 Build 0)  -->
<svg version="1.1" id="Layer_1" xmlns="http://www.w3.org/2000/svg" xmlns:xlink="http://www.w3.org/1999/xlink" x="0px" y="0px"
	 viewBox="0 0 120 120" style="enable-background:new 0 0 120 120;" xml:space="preserve">
<style type="text/css">
	.st0{fill:#7D30CC;}
</style>
<title>pets</title>
<path class="st0" d="M114.1,97.8L80.9,13.3c-0.3-0.9-1.2-1.5-2.1-1.5c-0.6,0-0.9,0.2-2.2,0.6c-1.2,0.4-1.9,1.6-1.2,3.5
	c-3.1,1.8-11.1,4.5-14.2,5c-0.3-0.7-0.4-1.2-1.2-1.7v-1.3c0-3.3-2.7-6-6-6H35.9c-1.1,0-2.1,0.4-3,0.9c-0.9-0.5-1.9-0.9-3-0.9H11.8
	c-3.3,0-6,2.7-6,6v84.4c0,3.3,2.7,6,6,6h18.1c1.1,0,2.1-0.4,3-0.9c0.9,0.5,1.9,0.9,3,0.9H54c3.3,0,6-2.7,6-6V34.2l28.5,72.6
	c0.3,0.9,1.2,1.5,2.1,1.5c0.6,0,0.9-0.2,2.2-0.6c1.2-0.4,1.9-1.6,1.2-3.5c3.1-1.8,11.1-4.5,14.2-5c0.7,2,1.9,2.4,3.1,2l1.4-0.5
	C113.9,100.2,114.6,98.9,114.1,97.8L114.1,97.8z M29.8,102.2H11.8V90.2h18.1V102.2z M29.8,84.1H11.8V35.9h18.1V84.1z M29.8,29.8
	H11.8V17.8h18.1V29.8z M54,102.2H35.9V90.2H54V102.2z M54,84.1H35.9V35.9H54V84.1z M54,29.8H35.9V17.8H54V29.8z M92.3,99.1L63,25.9
	c4.8-0.9,12.1-3.8,14.2-5l29.3,73.2C101.7,95,94.4,98,92.3,99.1L92.3,99.1z"/>
</svg>
