<?xml version="1.0" encoding="utf-8"?>
<!-- Generator: Adobe Illustrator 24.0.1, SVG Export Plug-In . SVG Version: 6.00 Build 0)  -->
<svg version="1.1" id="Layer_1" xmlns="http://www.w3.org/2000/svg" xmlns:xlink="http://www.w3.org/1999/xlink" x="0px" y="0px"
	 viewBox="0 0 120 120" style="enable-background:new 0 0 120 120;" xml:space="preserve">
<style type="text/css">
	.st0{fill:#7D30CC;}
</style>
<title>badminton</title>
<path class="st0" d="M111.1,86.4H46.8v-8.2c0-2.7-2.2-4.9-4.9-4.9H32c-2.7,0-4.9,2.2-4.9,4.9v8.2H8.9c-0.9,0-1.6,0.7-1.6,1.6v3.3
	C7.3,92.2,8,93,8.9,93H27v8.2c0,2.7,2.2,4.9,4.9,4.9h9.9c2.7,0,4.9-2.2,4.9-4.9V93H111c0.9,0,1.6-0.7,1.6-1.6V88
	C112.7,87.1,112,86.4,111.1,86.4z M40.2,99.6h-6.6V79.8h6.6V99.6z M111.1,27H60v-8.2c0-2.7-2.2-4.9-4.9-4.9h-9.9
	c-2.7,0-4.9,2.2-4.9,4.9V27H8.9c-0.9,0-1.6,0.7-1.6,1.6V32c0,0.9,0.7,1.6,1.6,1.6h31.3v8.2c0,2.7,2.2,4.9,4.9,4.9H55
	c2.7,0,4.9-2.2,4.9-4.9v-8.2H111c0.9,0,1.6-0.7,1.6-1.6v-3.3C112.7,27.8,112,27,111.1,27z M53.4,40.2h-6.6V20.4h6.6V40.2z
	 M111.1,56.7H93v-8.2c0-2.7-2.2-4.9-4.9-4.9h-9.9c-2.7,0-4.9,2.2-4.9,4.9v8.2H8.9c-0.9,0-1.6,0.7-1.6,1.6v3.3c0,0.9,0.7,1.6,1.6,1.6
	h64.3v8.2c0,2.7,2.2,4.9,4.9,4.9H88c2.7,0,4.9-2.2,4.9-4.9v-8.2H111c0.9,0,1.6-0.7,1.6-1.6v-3.3C112.7,57.4,112,56.7,111.1,56.7z
	 M86.4,69.9h-6.6V50.1h6.6V69.9z"/>
</svg>
