<svg xmlns="http://www.w3.org/2000/svg" viewBox="0 0 120 120"><defs><style>.cls-1{fill:#7d30cc;}</style></defs><title>phone</title><g id="Layer_1" data-name="Layer 1"><path class="cls-1" d="M107.8,12.18,87,7.38a6.46,6.46,0,0,0-7.38,3.73L70,33.48A6.48,6.48,0,0,0,71.88,41L83,50.1A72.16,72.16,0,0,1,50.08,83L41,71.9a6.48,6.48,0,0,0-7.53-1.84L11.11,79.65A6.43,6.43,0,0,0,7.38,87l4.78,20.77a6.44,6.44,0,0,0,6.29,5,94.32,94.32,0,0,0,94.34-94.34A6.4,6.4,0,0,0,107.8,12.18Zm-89.23,94L13.83,85.65,36,76.17l12.27,15c21.36-10,32.93-21.63,42.91-42.91L76.15,36l9.48-22.15,20.54,4.75A87.69,87.69,0,0,1,18.57,106.19Z"/></g></svg>