<svg xmlns="http://www.w3.org/2000/svg" viewBox="0 0 120 120"><defs><style>.cls-1{fill:#7d30cc;}</style></defs><title>photos</title><g id="Layer_1" data-name="Layer 1"><path class="cls-1" d="M109.4,20.26H23.83A10.09,10.09,0,0,0,13.74,30.35V102.7a10.09,10.09,0,0,0,10.09,10.09H109.4a10.09,10.09,0,0,0,10.08-10.09V30.35A10.09,10.09,0,0,0,109.4,20.26ZM23.83,27H109.4a3.37,3.37,0,0,1,3.36,3.36V77.84L94,59.1a3.36,3.36,0,0,0-4.75,0L66.61,81.71,55.77,70.86a3.37,3.37,0,0,0-2.38-1h0a3.35,3.35,0,0,0-2.38,1L20.46,101.67V30.35A3.38,3.38,0,0,1,23.83,27Zm85.57,79.07H25.58L53.4,78,64.23,88.84a3.36,3.36,0,0,0,4.75,0L91.65,66.23l21.11,21.12V102.7A3.37,3.37,0,0,1,109.4,106.06Z"/><path class="cls-1" d="M106.26,14a10.1,10.1,0,0,0-9.51-6.74H10.6A10.09,10.09,0,0,0,.52,17.3V90.17a10.1,10.1,0,0,0,6.72,9.51V17.3a3.37,3.37,0,0,1,3.36-3.36h95.66Z"/><path class="cls-1" d="M41.83,61.94A12.32,12.32,0,1,0,29.52,49.62,12.33,12.33,0,0,0,41.83,61.94Zm0-17.91a5.6,5.6,0,1,1-5.59,5.59A5.59,5.59,0,0,1,41.83,44Z"/></g></svg>