<svg xmlns="http://www.w3.org/2000/svg" viewBox="0 0 120 120"><defs><style>.cls-1{fill:#7d30cc;}</style></defs><title>pin</title><g id="Layer_1" data-name="Layer 1"><path class="cls-1" d="M82.42,49.27,80.34,33.64H88A5,5,0,0,0,93,28.69V12.21A5,5,0,0,0,88,7.27H32a5,5,0,0,0-4.94,4.94V28.69A5,5,0,0,0,32,33.64h7.69L37.6,49.27c-10,5.69-17.14,15.35-17.14,27a3.31,3.31,0,0,0,3.29,3.3h33V104.5a1.54,1.54,0,0,0,0,.39l1.64,6.6a1.65,1.65,0,0,0,3.2,0l1.64-6.6a1,1,0,0,0,0-.39V79.62h33a3.31,3.31,0,0,0,3.29-3.3c0-11.7-7.17-21.36-17.12-27ZM27.32,73c1.4-8.84,8.16-15.74,16.38-19.47l3.13-26.51H33.64V13.86H86.38V27.05H73.19l3.16,26.53c8.24,3.75,15,10.67,16.37,19.47H27.32Z"/></g></svg>