<svg xmlns="http://www.w3.org/2000/svg" viewBox="0 0 120 120"><defs><style>.cls-1{fill:#7d30cc;}</style></defs><title>plus_circle</title><g id="Layer_1" data-name="Layer 1"><path class="cls-1" d="M96.23,23.77a51.24,51.24,0,1,0,0,72.46A51.24,51.24,0,0,0,96.23,23.77Zm-35,62.69H58.76A2.48,2.48,0,0,1,56.27,84V63.73H36a2.49,2.49,0,0,1-2.49-2.49V58.76A2.48,2.48,0,0,1,36,56.27H56.27V36a2.49,2.49,0,0,1,2.49-2.49h2.48A2.48,2.48,0,0,1,63.73,36V56.27H84a2.48,2.48,0,0,1,2.49,2.49v2.48A2.54,2.54,0,0,1,84,63.73H63.73V84A2.49,2.49,0,0,1,61.24,86.46Z"/></g></svg>