<svg xmlns="http://www.w3.org/2000/svg" viewBox="0 0 120 120"><title>poll</title><g id="Layer_1" data-name="Layer 1"><path d="M96.5,13.54h-73a10,10,0,0,0-10,10v73a10,10,0,0,0,10,10h73a10,10,0,0,0,10-10v-73A10,10,0,0,0,96.5,13.54Zm3.32,83a3.32,3.32,0,0,1-3.32,3.32h-73a3.32,3.32,0,0,1-3.32-3.32v-73a3.32,3.32,0,0,1,3.32-3.32h73a3.32,3.32,0,0,1,3.32,3.32ZM41.75,53.36H38.43A1.66,1.66,0,0,0,36.77,55V84.89a1.66,1.66,0,0,0,1.66,1.66h3.32a1.66,1.66,0,0,0,1.66-1.66V55A1.66,1.66,0,0,0,41.75,53.36ZM61.66,33.45H58.34a1.66,1.66,0,0,0-1.66,1.66V84.89a1.66,1.66,0,0,0,1.66,1.66h3.32a1.66,1.66,0,0,0,1.66-1.66V35.11A1.66,1.66,0,0,0,61.66,33.45ZM81.57,66.64H78.25a1.66,1.66,0,0,0-1.66,1.66V84.89a1.66,1.66,0,0,0,1.66,1.66h3.32a1.66,1.66,0,0,0,1.66-1.66V68.3A1.66,1.66,0,0,0,81.57,66.64Z"/></g></svg>