<svg xmlns="http://www.w3.org/2000/svg" viewBox="0 0 120 120"><defs><style>.cls-1{fill:#7d30cc;}</style></defs><title>printer</title><g id="Layer_1" data-name="Layer 1"><path class="cls-1" d="M96.26,46.82H93v-17A6.58,6.58,0,0,0,91,25.11L75.11,9.19a6.6,6.6,0,0,0-4.66-1.93H33.32A6.45,6.45,0,0,0,27,13.86v33h-3.3A16.48,16.48,0,0,0,7.26,63.3V83.07a3.3,3.3,0,0,0,3.3,3.3H27v23.07a3.3,3.3,0,0,0,3.3,3.3H89.66a3.3,3.3,0,0,0,3.3-3.3V86.37h16.48a3.3,3.3,0,0,0,3.3-3.3V63.3A16.48,16.48,0,0,0,96.26,46.82ZM73.18,16.59,83.64,27H73.18ZM33.66,13.86H66.59V27a6.59,6.59,0,0,0,6.59,6.59H86.37V46.82H33.64l0-33Zm52.71,92.28H33.63V86.37H86.37Zm19.77-26.36H13.86V63.3a9.89,9.89,0,0,1,9.88-9.89H96.26a9.89,9.89,0,0,1,9.88,9.89ZM89.66,61.65a4.95,4.95,0,1,0,5,4.94A4.94,4.94,0,0,0,89.66,61.65Z"/></g></svg>