<svg xmlns="http://www.w3.org/2000/svg" viewBox="0 0 120 120"><defs><style>.cls-1{fill:#7d30cc;}</style></defs><title>privacy</title><g id="Layer_1" data-name="Layer 1"><path class="cls-1" d="M103.41,24.47,63.82,8a9.94,9.94,0,0,0-7.61,0l-39.6,16.5a9.87,9.87,0,0,0-6.1,9.13c0,40.94,23.61,69.23,45.67,78.43a9.94,9.94,0,0,0,7.61,0c17.68-7.36,45.7-32.79,45.7-78.43A9.89,9.89,0,0,0,103.41,24.47ZM61.28,106a3.38,3.38,0,0,1-2.54,0c-20.19-8-41.63-36-41.63-72.35a3.31,3.31,0,0,1,2-3.05l39.59-16.5a3.38,3.38,0,0,1,2.54,0l39.59,16.5a3.25,3.25,0,0,1,2,3.05C102.89,69.9,81.45,98,61.28,106Zm28.09-67a2.5,2.5,0,0,0-3.51,0L52.16,72.33,37.93,58a2.49,2.49,0,0,0-3.5,0l-1.75,1.75a2.51,2.51,0,0,0,0,3.51L50.37,81.1a2.5,2.5,0,0,0,3.51,0L91.1,44.2a2.49,2.49,0,0,0,0-3.5Z"/></g></svg>