<svg xmlns="http://www.w3.org/2000/svg" viewBox="0 0 120 120"><title>profile</title><g id="Layer_1" data-name="Layer 1"><path d="M60,8.72A51.28,51.28,0,1,0,111.28,60,51.27,51.27,0,0,0,60,8.72ZM86.47,95.9a44.33,44.33,0,0,1-52.94,0V93.09A13.26,13.26,0,0,1,46.77,79.85c2.29,0,5.68,2.36,13.23,2.36s10.92-2.36,13.23-2.36A13.26,13.26,0,0,1,86.47,93.09Zm6.33-5.69a19.8,19.8,0,0,0-19.57-17C69,73.23,67,75.59,60,75.59s-9-2.36-13.23-2.36a19.8,19.8,0,0,0-19.57,17,44.67,44.67,0,1,1,65.6,0ZM60,31.88A18.2,18.2,0,1,0,78.2,50.07,18.19,18.19,0,0,0,60,31.88Zm0,29.77A11.58,11.58,0,1,1,71.58,50.07,11.59,11.59,0,0,1,60,61.65Z"/></g></svg>