<svg xmlns="http://www.w3.org/2000/svg" viewBox="0 0 120 120"><title>quote_left</title><g id="Layer_1" data-name="Layer 1"><path d="M99.82,53.36H86.55v-5A11.62,11.62,0,0,1,98.16,36.77h3.32a8.3,8.3,0,0,0,8.3-8.3V21.84a8.3,8.3,0,0,0-8.3-8.3H98.16A34.9,34.9,0,0,0,63.32,48.39V93.18a13.28,13.28,0,0,0,13.27,13.28H99.82A13.29,13.29,0,0,0,113.1,93.18V66.64A13.3,13.3,0,0,0,99.82,53.36Zm6.64,39.82a6.63,6.63,0,0,1-6.64,6.64H76.59A6.62,6.62,0,0,1,70,93.18V48.39a28.21,28.21,0,0,1,28.2-28.21h3.32a1.66,1.66,0,0,1,1.66,1.66v6.63a1.66,1.66,0,0,1-1.66,1.66H98.16A18.26,18.26,0,0,0,79.91,48.39V60H99.82a6.64,6.64,0,0,1,6.64,6.64Zm-63-39.82H30.13v-5A11.63,11.63,0,0,1,41.75,36.77h3.32a8.29,8.29,0,0,0,8.29-8.3V21.84a8.29,8.29,0,0,0-8.29-8.3H41.75A34.9,34.9,0,0,0,6.9,48.39V93.18a13.29,13.29,0,0,0,13.28,13.28H43.41A13.28,13.28,0,0,0,56.68,93.18V66.64A13.29,13.29,0,0,0,43.41,53.36ZM50,93.18a6.62,6.62,0,0,1-6.63,6.64H20.18a6.63,6.63,0,0,1-6.64-6.64V48.39A28.21,28.21,0,0,1,41.75,20.18h3.32a1.66,1.66,0,0,1,1.66,1.66v6.63a1.66,1.66,0,0,1-1.66,1.66H41.75A18.26,18.26,0,0,0,23.5,48.39V60H43.41A6.63,6.63,0,0,1,50,66.64Z"/></g></svg>