<svg xmlns="http://www.w3.org/2000/svg" viewBox="0 0 120 120"><defs><style>.cls-1{fill:#7d30cc;}</style></defs><title>racquetball</title><g id="Layer_1" data-name="Layer 1"><path class="cls-1" d="M104.53,15.18c-11.69-11.69-34.11-8.29-50,7.57-9.85,9.85-14.89,22.22-14.5,33H40c0,7.69-4.06,15.56-6.52,19.83a3.37,3.37,0,0,0-3.86.65L9.51,96.32a3.4,3.4,0,0,0,0,4.8l9.67,9.66a3.4,3.4,0,0,0,4.8,0l20.1-20.1a3.4,3.4,0,0,0,.18-4.58c4.31-2.47,12.08-6.43,19.68-6.43v0c.39,0,.79,0,1.18,0,10.49,0,22.34-5,31.83-14.53C112.82,49.28,116.22,26.87,104.53,15.18Zm-82.95,88.1L17,98.72l15-15,4.56,4.57ZM39.17,81l-.47-.47a70.51,70.51,0,0,0,5.52-11.14,22.21,22.21,0,0,0,6.08,6.09A70.32,70.32,0,0,0,39.17,81ZM92,60.2c-8.57,8.58-19.21,13-28.06,12.54v-.07l-.67,0a17.64,17.64,0,0,1-11.34-4.91,17.87,17.87,0,0,1-5-11.67c0-.13,0-.26,0-.38h0c-.44-8.84,4-19.46,12.55-28,8.17-8.17,18.22-12.58,26.81-12.58,5.21,0,9.88,1.63,13.26,5C108.54,29.09,105.14,47.06,92,60.2Z"/></g></svg>