<svg xmlns="http://www.w3.org/2000/svg" viewBox="0 0 120 120"><defs><style>.cls-1{fill:#7d30cc;}</style></defs><title>rain</title><g id="Layer_1" data-name="Layer 1"><path class="cls-1" d="M45.2,83.43a3.26,3.26,0,0,0-4.48,1.23l-13.14,23a3.26,3.26,0,0,0,1.23,4.47,3.29,3.29,0,0,0,4.48-1.23l13.14-23A3.27,3.27,0,0,0,45.2,83.43Zm19.71,0a3.26,3.26,0,0,0-4.48,1.23l-13.14,23a3.26,3.26,0,0,0,1.23,4.47A3.29,3.29,0,0,0,53,110.9l13.14-23A3.27,3.27,0,0,0,64.91,83.43Zm-39.42,0A3.26,3.26,0,0,0,21,84.66l-13.14,23a3.28,3.28,0,0,0,2.85,4.9,3.31,3.31,0,0,0,2.86-1.66l13.14-23A3.27,3.27,0,0,0,25.49,83.43Zm78.84,0a3.26,3.26,0,0,0-4.48,1.23l-13.14,23a3.28,3.28,0,0,0,5.71,3.24l13.14-23A3.26,3.26,0,0,0,104.33,83.43Zm-19.71,0a3.26,3.26,0,0,0-4.48,1.23L67,107.66a3.26,3.26,0,0,0,1.23,4.47,3.29,3.29,0,0,0,4.48-1.23l13.14-23A3.26,3.26,0,0,0,84.62,83.43Zm8.17-52.94A18.11,18.11,0,0,0,74.78,14a17.78,17.78,0,0,0-10.1,3.12,24.56,24.56,0,0,0-44.1,15v.08a21.3,21.3,0,0,0,8.21,41H91.21a21.35,21.35,0,0,0,1.58-42.65ZM91.21,66.57H28.79a14.74,14.74,0,0,1-3.84-29l2.73-.74-.41-3.53a8.54,8.54,0,0,1-.12-1.23,18,18,0,0,1,33.92-8.46l2.18,4.06,3.12-3.39a11.37,11.37,0,0,1,8.41-3.71,11.5,11.5,0,0,1,11.5,11.5,13.28,13.28,0,0,1-.16,1.41l-.51,4.11,4.82-.49a4.9,4.9,0,0,1,.78-.09,14.78,14.78,0,1,1,0,29.55Z"/></g></svg>