<?xml version="1.0" encoding="utf-8"?>
<!-- Generator: Adobe Illustrator 24.0.3, SVG Export Plug-In . SVG Version: 6.00 Build 0)  -->
<svg version="1.1" id="Layer_1" xmlns="http://www.w3.org/2000/svg" xmlns:xlink="http://www.w3.org/1999/xlink" x="0px" y="0px"
	 viewBox="0 0 120 120" style="enable-background:new 0 0 120 120;" xml:space="preserve">
<style type="text/css">
	.st0{fill:#7D30CC;}
</style>
<title>pets</title>
<path class="st0" d="M108,53l-7.5-3.1l-3.1-7.5c-0.2-0.5-0.9-0.7-1.4-0.5c-0.2,0.1-0.4,0.3-0.5,0.5l-3.1,7.5L84.9,53
	c-0.5,0.3-0.7,0.9-0.5,1.4c0.1,0.2,0.3,0.4,0.5,0.5l7.5,3.1l3.1,7.5c0.2,0.5,0.9,0.7,1.4,0.5c0.2-0.1,0.4-0.3,0.5-0.5l3.1-7.5
	l7.5-3.1c0.5-0.3,0.7-0.9,0.5-1.4C108.4,53.2,108.2,53.1,108,53L108,53z M80.6,62.1l-19.9-2.9l-8.9-18.1c-0.7-1.5-2.2-2.4-3.9-2.4
	c-1.7,0-3.2,0.9-3.9,2.4L35,59.2l-19.9,2.9c-3.6,0.5-5,4.9-2.4,7.5l14.4,14.1l-3.4,19.9c-0.4,2.4,1.2,4.6,3.5,5.1
	c0.2,0,0.5,0.1,0.7,0.1c0.7,0,1.4-0.2,2-0.5l17.8-9.4l17.8,9.4c0.6,0.3,1.3,0.5,2,0.5c2.4,0,4.4-2,4.4-4.4c0-0.2,0-0.5-0.1-0.7
	l-3.4-19.9L83,69.6C85.6,67,84.1,62.6,80.6,62.1z M62,81.5l3.3,19.6l-17.6-9.3l-17.6,9.3l3.3-19.6L19.4,67.6L39,64.8l8.8-17.8
	l8.8,17.8l19.6,2.9L62,81.5z M91.7,26.8l-9.2-4.6l-4.6-9.3c-1-2.1-4.4-2.1-5.4,0l-4.6,9.2l-9.2,4.6c-1,0.5-1.7,1.6-1.7,2.7
	c0,1.2,0.6,2.2,1.7,2.8l9.2,4.6l4.6,9.2c0.5,1,1.6,1.7,2.7,1.7c1.2,0,2.2-0.7,2.7-1.7l4.6-9.2l9.2-4.6c1.5-0.8,2.1-2.6,1.3-4.1
	C92.8,27.6,92.3,27.1,91.7,26.8L91.7,26.8z M78.9,31.9c-0.6,0.3-1.1,0.8-1.4,1.4L75.2,38l-2.3-4.7c-0.3-0.6-0.8-1.1-1.4-1.4
	l-4.7-2.4l4.7-2.4c0.6-0.3,1.1-0.8,1.4-1.4l2.3-4.7l2.3,4.7c0.3,0.6,0.8,1.1,1.4,1.4l4.7,2.4L78.9,31.9z"/>
</svg>
