<svg xmlns="http://www.w3.org/2000/svg" viewBox="0 0 120 120"><defs><style>.cls-1{fill:#7d30cc;}</style></defs><title>recurring</title><g id="Layer_1" data-name="Layer 1"><path class="cls-1" d="M73.85,78.23,57.09,66.05a2.5,2.5,0,0,1-1-2V31.1a2.48,2.48,0,0,1,2.47-2.48h2.9a2.48,2.48,0,0,1,2.47,2.48V61.3L78.48,71.89A2.48,2.48,0,0,1,79,75.36l-1.69,2.33a2.5,2.5,0,0,1-3.47.54Z"/><path class="cls-1" d="M8.8,105.42V75.69a2.48,2.48,0,0,1,2.48-2.48H41a2.48,2.48,0,0,1,2.48,2.48v2.06A2.48,2.48,0,0,1,41,80.23H20.72a44.18,44.18,0,1,0,9.74-53.08,2.48,2.48,0,0,1-3.41-.1L25.6,25.6a2.48,2.48,0,0,1,.09-3.6,51.2,51.2,0,1,1-9.87,63.88v19.54a2.48,2.48,0,0,1-2.47,2.47H11.28A2.48,2.48,0,0,1,8.8,105.42Z"/></g></svg>