<svg xmlns="http://www.w3.org/2000/svg" viewBox="0 0 120 120"><title>reply_stroke_right</title><g id="Layer_1" data-name="Layer 1"><path d="M117.1,60.9,80.81,23a8.25,8.25,0,0,0-14.21,5.7V46.77c-31.84-.37-45.17-3.45-37.36-31.16A6.6,6.6,0,0,0,19,8.5,43.88,43.88,0,0,0,.61,44.5c0,35.27,31.87,41.45,66,41.86v18.18a8.26,8.26,0,0,0,14.21,5.7L117.1,72.3a8.25,8.25,0,0,0,0-11.4Zm-4.77,6.84L76,105.68a1.65,1.65,0,0,1-2.84-1.14V79.8c-32.4,0-66-2.31-66-35.3A37.09,37.09,0,0,1,22.89,13.87C12.3,51.4,37.85,53.4,73.2,53.4V28.66A1.65,1.65,0,0,1,76,27.52l36.29,37.94A1.65,1.65,0,0,1,112.33,67.74Z"/></g></svg>