<svg xmlns="http://www.w3.org/2000/svg" viewBox="0 0 120 120"><title>roster</title><g id="Layer_1" data-name="Layer 1"><path d="M7.66,36.56a1.82,1.82,0,0,1,2-2h3.6V23.45c0-1,0-2,0-2h-.08a4.11,4.11,0,0,1-.81,1.19l-.34.3a1.82,1.82,0,0,1-2.86-.11l-1-1a1.84,1.84,0,0,1,.07-2.9L13,14.54a3.42,3.42,0,0,1,2.52-1h2.12a1.82,1.82,0,0,1,2,2V34.52h3.64a1.82,1.82,0,0,1,2,2v1.49a1.82,1.82,0,0,1-2,2H9.7a1.82,1.82,0,0,1-2-2V36.56Zm-.37,33.9c0-9.64,11.28-11.35,11.28-15.12a2.58,2.58,0,0,0-2.81-2.59A3.89,3.89,0,0,0,13,54c-.92.88-1.87,1.24-2.85.44L8.71,53.34c-1-.81-1.27-1.72-.51-2.71a9.87,9.87,0,0,1,8.15-3.9c4.27,0,8.91,2.44,8.91,8,0,8.15-10.56,9.72-10.89,13.08h9.28a1.79,1.79,0,0,1,2,2v1.47a1.79,1.79,0,0,1-2,2H9.44a1.93,1.93,0,0,1-2.15-2v-.81Zm.6,31,1-1.61c.7-1.13,1.61-1.21,2.74-.51a7.7,7.7,0,0,0,3.73,1.09c2.37,0,3.72-1.17,3.72-2.59,0-2-2-2.88-4.86-2.88h-.14a2.17,2.17,0,0,1-2.27-1.39l-.18-.37a2.22,2.22,0,0,1,.48-2.59l2.37-2.88a28.39,28.39,0,0,1,2.26-2.45v-.07a13.17,13.17,0,0,1-2.48.18H10a1.79,1.79,0,0,1-2-2V81.92a1.79,1.79,0,0,1,2-2H22.46a1.78,1.78,0,0,1,2,2v.59A3.43,3.43,0,0,1,23.55,85l-4.38,5a7.67,7.67,0,0,1,6.32,7.56c0,4.45-3.14,8.91-9.68,8.91a13.15,13.15,0,0,1-7.49-2.23A1.85,1.85,0,0,1,7.89,101.46ZM112.71,29.3v-5a1.25,1.25,0,0,0-1.24-1.25H34.31a1.24,1.24,0,0,0-1.24,1.25v5a1.24,1.24,0,0,0,1.24,1.25h77.16A1.25,1.25,0,0,0,112.71,29.3Zm0,33.19v-5a1.24,1.24,0,0,0-1.24-1.24H34.31a1.23,1.23,0,0,0-1.24,1.24h0v5a1.23,1.23,0,0,0,1.24,1.24h77.16A1.24,1.24,0,0,0,112.71,62.49Zm0,33.18v-5a1.25,1.25,0,0,0-1.24-1.25H34.31a1.24,1.24,0,0,0-1.24,1.25v5a1.24,1.24,0,0,0,1.24,1.25h77.16A1.25,1.25,0,0,0,112.71,95.67Z"/></g></svg>