<svg xmlns="http://www.w3.org/2000/svg" viewBox="0 0 120 120"><defs><style>.cls-1{fill:#7d30cc;}</style></defs><title>rsvp_unchecked</title><g id="Layer_1" data-name="Layer 1"><polygon class="cls-1" points="49.66 74.56 49.72 74.51 49.69 74.54 49.66 74.56"/><path class="cls-1" d="M60,60h0a23.23,23.23,0,0,0,0-46.46h0A23.23,23.23,0,0,0,60,60Zm0-39.82A16.59,16.59,0,1,1,43.42,36.77,16.61,16.61,0,0,1,60,20.18Z"/><path class="cls-1" d="M95.75,73.88A21.92,21.92,0,0,0,84,65.29h0l-.13,0a24.52,24.52,0,0,0-3.39-.79l-.39,0c-.44-.07-.88-.12-1.32-.16l-.49,0c-.55,0-1.09-.06-1.64-.06H76.6c-6.92,0-8.64,2.48-16.6,2.49s-9.68-2.49-16.6-2.49h-.08c-.55,0-1.09,0-1.64.06l-.49,0c-.44,0-.88.09-1.32.16l-.39,0a24.52,24.52,0,0,0-3.39.79l-.13,0h0a21.92,21.92,0,0,0-11.71,8.59,23.76,23.76,0,0,0-4.06,13.33V96.5a10,10,0,0,0,10,10H89.86a10,10,0,0,0,10-10V87.21A23.76,23.76,0,0,0,95.75,73.88ZM93.17,96.5a3.32,3.32,0,0,1-3.31,3.32H30.14a3.32,3.32,0,0,1-3.31-3.32V87.21a17.2,17.2,0,0,1,2.92-9.62,16,16,0,0,1,11.91-6.72h0c.57-.05,1.14-.08,1.72-.08h.12c5.56,0,7.64,2.48,16.49,2.48h0c8.85,0,10.93-2.45,16.49-2.48h.12c.58,0,1.15,0,1.72.08h0a16,16,0,0,1,11.91,6.72,17.2,17.2,0,0,1,2.92,9.62Z"/><polygon class="cls-1" points="70.28 74.51 70.33 74.56 70.31 74.54 70.28 74.51"/></g></svg>