<svg xmlns="http://www.w3.org/2000/svg" viewBox="0 0 120 120"><defs><style>.cls-1{fill:#7d30cc;}.cls-2{fill:none;}.cls-3{fill:#dddddc;}</style></defs><title>rsvp</title><g id="Layer_1" data-name="Layer 1"><path class="cls-1" d="M60,60A23.23,23.23,0,1,0,36.77,36.77,23.22,23.22,0,0,0,60,60Zm0-39.82A16.59,16.59,0,1,1,43.41,36.77,16.61,16.61,0,0,1,60,20.18Z"/><path class="cls-1" d="M109.3,76.63l-2.92-2.94a1.64,1.64,0,0,0-2.35,0L80.14,96.85l-11-11.07a1.68,1.68,0,0,0-2.35,0L63.8,88.7a1.66,1.66,0,0,0,0,2.35l14.56,14.6a2.49,2.49,0,0,0,3.52,0L109.28,79A1.66,1.66,0,0,0,109.3,76.63Z"/><path class="cls-2" d="M99.82,88.18l9.46-9.2a1.66,1.66,0,0,0,0-2.35l-2.92-2.94a1.67,1.67,0,0,0-1.18-.49,1.61,1.61,0,0,0-1.17.49l-5.62,5.45a23.73,23.73,0,0,1,1.41,8.07Z"/><path class="cls-1" d="M45.73,99.82H30.13a3.32,3.32,0,0,1-3.31-3.32V87.21a17.2,17.2,0,0,1,2.92-9.62,16.24,16.24,0,0,1,13.63-6.81c5.68,0,7.71,2.49,16.63,2.49s11-2.49,16.61-2.49c.58,0,1.15,0,1.72.09L84,65.28a25,25,0,0,0-7.42-1.13c-6.92,0-8.65,2.49-16.61,2.49s-9.69-2.49-16.61-2.49a22.87,22.87,0,0,0-19.15,9.73,23.76,23.76,0,0,0-4.06,13.33V96.5a10,10,0,0,0,10,10H50.92l-1.27-1.27A21.77,21.77,0,0,1,45.73,99.82Z"/><polygon class="cls-3" points="49.68 74.54 49.66 74.56 49.7 74.51 49.68 74.54"/></g></svg>