<svg xmlns="http://www.w3.org/2000/svg" viewBox="0 0 120 120"><title>rugby</title><g id="Layer_1" data-name="Layer 1"><path d="M108.51,55.14c-.41-1.43-3.88-12.23-16.43-24.79s-23.36-16-24.79-16.43C64.8,13,33.55,2.09,18.23,17.41S13.83,64,14.74,66.47c.42,1.44,3.88,12.24,16.43,24.79s23.36,16,24.79,16.44a83,83,0,0,0,25.54,4.61c8.47,0,17.31-1.9,23.52-8.11C120.34,88.88,109.42,57.63,108.51,55.14Zm-86-33.49c4.84-4.83,12-6.35,19.15-6.35a73.46,73.46,0,0,1,17.73,2.49,65.47,65.47,0,0,0-12.94,6.07c-9.27,5.68-21,16.25-27.66,35.18C16.3,49.8,13,31.18,22.47,21.65Zm-.34,47.16s0-.09,0-.14c10-42.2,45.39-47,46.89-47.16a2.86,2.86,0,0,0,.67-.17A66.68,66.68,0,0,1,87.84,34.6,67.05,67.05,0,0,1,101,52.51a2.9,2.9,0,0,0-.19.73c0,.37-4.81,36.82-47.16,46.88a2.5,2.5,0,0,0-.25.09A67,67,0,0,1,35.42,87,66.82,66.82,0,0,1,22.13,68.81ZM100.78,100c-9.63,9.62-28.55,6.1-37.68,3.65,19-6.61,29.64-18.42,35.34-27.73a64.54,64.54,0,0,0,6.12-13.1C107,72.09,110.23,90.51,100.78,100Z"/><path d="M54.93,62.83l2.38-2.38L61.85,65l-2.37,2.37a3,3,0,1,0,4.24,4.24l2.37-2.37,4.54,4.54-2.37,2.38A3,3,0,1,0,72.5,80.4L74.88,78l2.73,2.74a3,3,0,0,0,4.24-4.25l-2.73-2.73,2.27-2.27a3,3,0,1,0-4.24-4.24l-2.27,2.27L70.33,65l2.28-2.27a3,3,0,0,0-4.25-4.25l-2.27,2.28-4.54-4.55,2.27-2.27a3,3,0,1,0-4.24-4.24L57.31,52l-4.73-4.73L54.85,45a3,3,0,1,0-4.25-4.24L48.33,43l-2.54-2.55a3,3,0,0,0-4.25,4.24l2.55,2.55-2.37,2.37a3,3,0,0,0,0,4.24,3,3,0,0,0,4.24,0l2.37-2.37,4.73,4.73-2.37,2.38a3,3,0,1,0,4.24,4.24Z"/></g></svg>