<svg xmlns="http://www.w3.org/2000/svg" viewBox="0 0 120 120"><title>schedule</title><g id="Layer_1" data-name="Layer 1"><path d="M110.74,30.47H33.38a1.25,1.25,0,0,1-1.25-1.25v-5A1.25,1.25,0,0,1,33.38,23h77.36A1.25,1.25,0,0,1,112,24.23v5A1.25,1.25,0,0,1,110.74,30.47Zm1.25,32v-5a1.25,1.25,0,0,0-1.25-1.24H33.38a1.25,1.25,0,0,0-1.25,1.24h0v5a1.25,1.25,0,0,0,1.25,1.24h77.36A1.25,1.25,0,0,0,112,62.5Zm0,33.27v-5a1.25,1.25,0,0,0-1.25-1.25H33.38a1.25,1.25,0,0,0-1.25,1.25v5A1.25,1.25,0,0,0,33.38,97h77.36A1.25,1.25,0,0,0,112,95.77Zm-89-64v-10a2.49,2.49,0,0,0-2.49-2.5h-10A2.5,2.5,0,0,0,8,21.74v10a2.49,2.49,0,0,0,2.5,2.49h10A2.48,2.48,0,0,0,23,31.72ZM23,65V55a2.49,2.49,0,0,0-2.49-2.5h-10A2.5,2.5,0,0,0,8,55V65a2.5,2.5,0,0,0,2.5,2.5h10A2.49,2.49,0,0,0,23,65Zm0,33.27v-10a2.48,2.48,0,0,0-2.49-2.49h-10A2.49,2.49,0,0,0,8,88.28v10a2.5,2.5,0,0,0,2.5,2.5h10A2.49,2.49,0,0,0,23,98.26Z"/></g></svg>