<svg xmlns="http://www.w3.org/2000/svg" viewBox="0 0 120 120"><title>share_squate</title><g id="Layer_1" data-name="Layer 1"><path d="M117.46,42.14l-33-33A6.6,6.6,0,0,0,73.2,13.82v15c-29.26.81-54.44,8-54.44,37.48A39,39,0,0,0,35.14,98.3a6.6,6.6,0,0,0,10.25-7.11c-6-21.12,1.72-25.4,27.81-26.13V79.8a6.6,6.6,0,0,0,11.26,4.66l33-33a6.61,6.61,0,0,0,0-9.33ZM79.8,79.8V58.36C50.57,58.52,30.15,61.46,39,93A32.39,32.39,0,0,1,25.36,66.25c0-27.64,27.14-30.81,54.44-31V13.81l33,33Zm7.64,10.76a14.51,14.51,0,0,0,1.39-1.15A2.47,2.47,0,0,1,93,91.22v11.67a9.9,9.9,0,0,1-9.9,9.9H10.51a9.9,9.9,0,0,1-9.9-9.9V30.31a9.9,9.9,0,0,1,9.9-9.9H46a2.44,2.44,0,0,1,2.44,2.48,2.5,2.5,0,0,1-1.92,2.35c-2,.48-3.81,1-5.58,1.63a2.45,2.45,0,0,1-.8.14H10.51a3.3,3.3,0,0,0-3.3,3.3v72.58a3.3,3.3,0,0,0,3.3,3.3H83.09a3.3,3.3,0,0,0,3.3-3.3V92.58a2.48,2.48,0,0,1,1-2Z"/></g></svg>