<svg xmlns="http://www.w3.org/2000/svg" viewBox="0 0 120 120"><defs><style>.cls-1{fill:#7d30cc;}</style></defs><title>signup</title><g id="Layer_1" data-name="Layer 1"><path class="cls-1" d="M89.69,20.41H71.42a10,10,0,0,0,.13-1.65,11.55,11.55,0,1,0-23.1,0,10,10,0,0,0,.13,1.65H30.31a9.9,9.9,0,0,0-9.9,9.9v72.58a9.9,9.9,0,0,0,9.9,9.9H89.69a9.9,9.9,0,0,0,9.9-9.9V30.31A9.9,9.9,0,0,0,89.69,20.41ZM60,13.81a5,5,0,1,1-5,5A4.94,4.94,0,0,1,60,13.81Zm33,89.08a3.31,3.31,0,0,1-3.3,3.3H30.31a3.31,3.31,0,0,1-3.3-3.3V30.31a3.3,3.3,0,0,1,3.3-3.3H40.2v4.12a2.49,2.49,0,0,0,2.48,2.48H77.32a2.49,2.49,0,0,0,2.48-2.48V27h9.89a3.3,3.3,0,0,1,3.3,3.3ZM80.85,54.14a2.5,2.5,0,0,0-3.51,0L53.07,78.21,42.68,67.77a2.48,2.48,0,0,0-3.51,0l-1.75,1.76a2.47,2.47,0,0,0,0,3.5L51.32,87a2.47,2.47,0,0,0,3.5,0L82.62,59.4a2.49,2.49,0,0,0,0-3.5l-1.79-1.76Z"/></g></svg>