<svg xmlns="http://www.w3.org/2000/svg" viewBox="0 0 120 120"><title>skating</title><g id="Layer_1" data-name="Layer 1"><path d="M112.38,89.93h-3a1.5,1.5,0,0,0-1.5,1.5v1.49a9,9,0,0,1-9,9h-15v-12h6a12,12,0,0,0,12-12V71A17.93,17.93,0,0,0,88.3,53.62L66,48V13.61a1.5,1.5,0,0,0-1.5-1.5h-3a1.5,1.5,0,0,0-1.5,1.5V18.1H44.34a12.18,12.18,0,0,0-4.45.86l-24,9.61a6,6,0,0,0-3.76,5.56V78a12,12,0,0,0,12,12v12H7.62a1.51,1.51,0,0,0-1.5,1.5v3a1.5,1.5,0,0,0,1.5,1.5H98.91a15,15,0,0,0,15-15V91.43A1.5,1.5,0,0,0,112.38,89.93ZM18.1,78V34.13l24-9.62a6,6,0,0,1,2.22-.43H60v12H49.52A1.49,1.49,0,0,0,48,37.55v3A1.5,1.5,0,0,0,49.52,42H60v6H49.52A1.49,1.49,0,0,0,48,49.52v3A1.49,1.49,0,0,0,49.52,54H65.26l21.6,5.41A12,12,0,0,1,95.92,71V78a6,6,0,0,1-6,6H24.08A6,6,0,0,1,18.1,78ZM78,101.9H30.07v-12H78Z"/></g></svg>