<svg xmlns="http://www.w3.org/2000/svg" viewBox="0 0 120 120"><defs><style>.cls-1{fill:#7d30cc;}</style></defs><title>skiing</title><g id="Layer_1" data-name="Layer 1"><path class="cls-1" d="M111.77,103.2a3.27,3.27,0,0,0-4.66,0A10,10,0,0,1,96,105.32L69.15,91a9.57,9.57,0,0,0,2.36-2.39l.11-.16.1-.17L80,74.15a13.21,13.21,0,0,0-1.75-16.48L68.07,47.48,95.12,62.27c6.92,3.44,12-1.86,13.27-4.41A9.91,9.91,0,0,0,104,44.59l-9.5-4.78-2.08-6.22c.21,0,.39.06.58.06a13.2,13.2,0,1,0-13.12-13.8,15.92,15.92,0,0,0-10.22.6L52.44,27.33a16.65,16.65,0,0,0-2.93,1.61l-8.24-4.72a8,8,0,0,0-4.34-7.75L34.64,21l-7.13-1.44a1.08,1.08,0,0,0-.92,1.88L32,26.11a.07.07,0,0,1,0,.06l-2.37,4.62A8,8,0,0,0,38.06,30l6.7,3.83a16,16,0,0,0-2.37,5.5,16.36,16.36,0,0,0,4.49,14.95L60.66,68.08,54.93,77.8a9.62,9.62,0,0,0-1.48,4.76L12.12,60.39A3.3,3.3,0,0,0,9,66.2l84,45a16.64,16.64,0,0,0,18.75-3.36,3.26,3.26,0,0,0,0-4.65ZM93,13.86a6.59,6.59,0,1,1-6.59,6.59A6.59,6.59,0,0,1,93,13.86ZM72.07,26.59c6.76-2.7,11.83,2.39,13,6.05l4,11.85,12,6c3.92,2,1,7.83-2.94,5.89l-5.83-2.9-8.2-4.7a6.54,6.54,0,0,1-1.24-2.18L79.1,35.36,68.77,40l-12.4-7.11,15.7-6.28ZM60.56,81.26,68.94,67,51.55,49.62a9.93,9.93,0,0,1-2.7-9,9.69,9.69,0,0,1,1.59-3.57L61.3,43.29l-4.68,2.08,17,17a6.62,6.62,0,0,1,.82,8.32L66,84.91c-2.46,3.64-7.89,0-5.48-3.65Z"/></g></svg>