<svg xmlns="http://www.w3.org/2000/svg" viewBox="0 0 120 120"><title>skydiving</title><g id="Layer_1" data-name="Layer 1"><path d="M60,7.56A42.92,42.92,0,0,0,17.13,50.43a2.94,2.94,0,0,0,.51,1.68l39.81,59,.06.07a3.52,3.52,0,0,0,.36.41l.11.11a3,3,0,0,0,.52.36l.11.05a3,3,0,0,0,.5.19l.17,0a2.82,2.82,0,0,0,.65.08h0a2.82,2.82,0,0,0,.65-.08l.17,0a3.59,3.59,0,0,0,.51-.2l.1-.05a3,3,0,0,0,.52-.36l.11-.11a2.86,2.86,0,0,0,.36-.41l.06-.07,39.94-59a3.08,3.08,0,0,0,.51-1.69A42.92,42.92,0,0,0,60,7.56ZM95.84,41.78a22.85,22.85,0,0,0-19.42-.17c0-2.33-.12-5.18-.39-8.23-.67-7.66-2.17-13.66-4.45-18A37,37,0,0,1,95.84,41.78ZM50,48.52a17.89,17.89,0,0,1,20,0l-10,46.66Zm10-35a5.78,5.78,0,0,1,4.43,2c4.8,5.1,5.94,18,6,26.28A24,24,0,0,0,60,39.44h-.06c-.67,0-1.33,0-2,.09l-.19,0c-.62.06-1.23.14-1.85.25l-.19,0c-.64.12-1.27.26-1.9.42h0a24.54,24.54,0,0,0-4.29,1.58c.08-8.32,1.25-21.17,6.05-26.26A5.8,5.8,0,0,1,60,13.56ZM48.41,15.44c-4.09,7.65-4.86,19.17-4.91,26.16a22.82,22.82,0,0,0-19.33.15A37,37,0,0,1,48.41,15.44ZM23.16,49.15c10.55-7,18.49-2,20.74-.3l9.86,46.07L23.14,49.53C23.14,49.41,23.15,49.28,23.16,49.15Zm43,45.8L76,48.85c2.27-1.75,10.24-6.69,20.82.35,0,.11,0,.22,0,.33Z"/></g></svg>