<svg xmlns="http://www.w3.org/2000/svg" viewBox="0 0 120 120"><defs><style>.cls-1{fill:#7d30cc;}</style></defs><title>sms</title><g id="Layer_1" data-name="Layer 1"><path class="cls-1" d="M69.92,43.48H66.61a3.29,3.29,0,0,0-3,1.82L60,52.61,56.35,45.3a3.28,3.28,0,0,0-3-1.82H50.09a3.32,3.32,0,0,0-3.3,3.3V68.26a1.65,1.65,0,0,0,1.65,1.65h3.31a1.65,1.65,0,0,0,1.65-1.65V54.18L58.52,65.7a1.65,1.65,0,0,0,2.95,0l5.12-11.52V68.26a1.66,1.66,0,0,0,1.66,1.65h3.3a1.65,1.65,0,0,0,1.65-1.65V46.78A3.28,3.28,0,0,0,69.92,43.48ZM35.1,52.26a1.06,1.06,0,0,1-.43-.79c0-.64.93-1.36,2.15-1.36h2.54A1.65,1.65,0,0,0,41,48.46V45.15a1.65,1.65,0,0,0-1.65-1.65H36.84c-4.83,0-8.76,3.57-8.76,8a7.64,7.64,0,0,0,2.75,5.8l4.52,3.89a1,1,0,0,1,.43.78c0,.64-.92,1.36-2.14,1.36H31.1A1.67,1.67,0,0,0,29.44,65v3.3a1.66,1.66,0,0,0,1.66,1.65h2.54c4.83,0,8.75-3.57,8.75-8a7.68,7.68,0,0,0-2.74-5.8L35.1,52.26Zm49.56,0a1.06,1.06,0,0,1-.43-.79c0-.64.93-1.36,2.15-1.36h2.54a1.65,1.65,0,0,0,1.65-1.65V45.15a1.65,1.65,0,0,0-1.65-1.65H86.38c-4.84,0-8.76,3.57-8.76,8a7.64,7.64,0,0,0,2.75,5.8l4.52,3.89a1,1,0,0,1,.43.78c0,.64-.93,1.36-2.14,1.36H80.66A1.67,1.67,0,0,0,79,65v3.3a1.66,1.66,0,0,0,1.66,1.65H83.2c4.83,0,8.75-3.57,8.75-8a7.68,7.68,0,0,0-2.74-5.8l-4.55-3.88ZM60,13.74c-29.2,0-52.87,19.23-52.87,43,0,9.83,4.11,18.83,10.93,26.08A52.24,52.24,0,0,1,8.48,97.89a5,5,0,0,0,3.6,8.37c12.7,0,22.71-5.31,28.72-9.56a64.32,64.32,0,0,0,19.21,3c29.2,0,52.86-19.23,52.86-42.95S89.21,13.74,60,13.74ZM60,93A57.06,57.06,0,0,1,42.83,90.4l-3.14-1L37,91.31a44.54,44.54,0,0,1-21.18,8.17,55.91,55.91,0,0,0,8.42-14.37l1.47-3.86-2.83-3c-5.95-6.31-9.11-13.77-9.11-21.53,0-20,20.75-36.35,46.26-36.35s46.25,16.32,46.25,36.35S85.51,93,60,93Z"/></g></svg>