<svg xmlns="http://www.w3.org/2000/svg" viewBox="0 0 120 120"><title>snow_heavy</title><g id="Layer_1" data-name="Layer 1"><path d="M33.38,87.45l-1.65-2.87a1.66,1.66,0,0,0-2.25-.6L23.71,87.3V81.45a1.65,1.65,0,0,0-1.65-1.65h-3.3a1.65,1.65,0,0,0-1.65,1.65V87.3L11.34,84a1.66,1.66,0,0,0-2.25.6L7.44,87.45A1.64,1.64,0,0,0,8,89.69L13.79,93,8,96.29a1.65,1.65,0,0,0-.6,2.25l1.65,2.87a1.64,1.64,0,0,0,2.25.59l5.77-3.32v5.86a1.65,1.65,0,0,0,1.65,1.65h3.3a1.65,1.65,0,0,0,1.65-1.65V98.68L29.48,102a1.64,1.64,0,0,0,2.25-.59l1.65-2.87a1.66,1.66,0,0,0-.6-2.25L27,93l5.75-3.3a1.65,1.65,0,0,0,.6-2.24Zm79.18,0-1.65-2.87a1.66,1.66,0,0,0-2.25-.6l-5.77,3.32V81.45a1.65,1.65,0,0,0-1.65-1.65h-3.3a1.65,1.65,0,0,0-1.65,1.65V87.3L90.52,84a1.66,1.66,0,0,0-2.25.6l-1.65,2.87a1.65,1.65,0,0,0,.6,2.24L93,93l-5.75,3.3a1.66,1.66,0,0,0-.6,2.25l1.65,2.87a1.64,1.64,0,0,0,2.25.59l5.77-3.32v5.86a1.65,1.65,0,0,0,1.65,1.65h3.3a1.65,1.65,0,0,0,1.65-1.65V98.68l5.77,3.32a1.64,1.64,0,0,0,2.25-.59l1.65-2.87a1.65,1.65,0,0,0-.6-2.25L106.21,93l5.75-3.3a1.64,1.64,0,0,0,.6-2.24ZM73,94l-1.65-2.86a1.65,1.65,0,0,0-2.25-.6L63.3,93.9V88a1.66,1.66,0,0,0-1.65-1.65h-3.3A1.66,1.66,0,0,0,56.7,88V93.9l-5.77-3.32a1.65,1.65,0,0,0-2.25.6L47,94a1.65,1.65,0,0,0,.6,2.25l5.75,3.3-5.75,3.3a1.65,1.65,0,0,0-.6,2.25L48.68,108a1.64,1.64,0,0,0,2.25.6l5.77-3.32v5.86a1.65,1.65,0,0,0,1.65,1.65h3.3a1.65,1.65,0,0,0,1.65-1.65v-5.86l5.77,3.32a1.64,1.64,0,0,0,2.25-.6L73,105.14a1.65,1.65,0,0,0-.6-2.25l-5.75-3.3,5.75-3.3A1.65,1.65,0,0,0,73,94ZM28.66,73.2H91.34a21.44,21.44,0,0,0,1.59-42.83A18.2,18.2,0,0,0,74.85,13.81,17.85,17.85,0,0,0,64.7,16.94,24.66,24.66,0,0,0,20.41,32V32A21.4,21.4,0,0,0,28.66,73.2ZM24.8,37.48l2.74-.74-.41-3.55A8.54,8.54,0,0,1,27,32a18.07,18.07,0,0,1,34.06-8.5l2.19,4.08,3.13-3.4a11.52,11.52,0,0,1,20,7.82,13.1,13.1,0,0,1-.16,1.42l-.52,4.12L90.56,37a4.91,4.91,0,0,1,.78-.08,14.85,14.85,0,1,1,0,29.69H28.66A14.82,14.82,0,0,1,24.8,37.48Z"/></g></svg>