<svg xmlns="http://www.w3.org/2000/svg" viewBox="0 0 120 120"><title>snowboarding</title><g id="Layer_1" data-name="Layer 1"><path d="M108.78,43.83,94.9,33.41a13.34,13.34,0,1,0-14.46-9.07c-.37-.14-.72-.33-1.09-.45l-9.81-3.17-4-8a9.89,9.89,0,0,0-17.7,8.84L53.1,32a13.1,13.1,0,0,0,2,2.91l-2.43,1.21a16.43,16.43,0,0,0-9.13,14.75v8.57l-13,4.35a9.79,9.79,0,0,0-1,18.27L19,78.21a9.61,9.61,0,0,1-5.42-5,3.3,3.3,0,1,0-6,2.8,16.09,16.09,0,0,0,9.12,8.36l75.15,27.36a16,16,0,0,0,12.38-.54,3.28,3.28,0,1,0-2.78-6,9.61,9.61,0,0,1-7.35.31L76.67,99.24a9.87,9.87,0,0,0,7.81-7.47l4.51-21a13.31,13.31,0,0,0-5-13.37l-6.41-4.61,6.33-2.93,13.06,9.81a9.77,9.77,0,0,0,5.93,2,9.89,9.89,0,0,0,5.93-17.8ZM93,13.84a6.59,6.59,0,1,1-6.59,6.59A6.6,6.6,0,0,1,93,13.84ZM67.28,95.76l-36-13.1a9,9,0,0,0,5.48-.14L54.3,76.69a13.17,13.17,0,0,0,8.77-10l5.71,4.05L65.2,87.56a8.75,8.75,0,0,0,2.08,8.2Zm38.21-42a3.3,3.3,0,0,1-4.62.66L84.66,42.22,64.45,51.53,80,62.62a6.61,6.61,0,0,1,2.55,6.69l-4.49,21a3.31,3.31,0,0,1-3.91,2.54,3.27,3.27,0,0,1-2.54-3.92l4.49-21-19.4-13.8V64.18a6.59,6.59,0,0,1-4.51,6.26c-18.95,6.33-17.82,6-18.56,6a3.29,3.29,0,0,1-1-6.41L50.14,64.2V50.87A9.83,9.83,0,0,1,55.6,42l14.62-7.32-7.64-2.55A6,6,0,0,1,59,29.06L53.78,18.59a3.3,3.3,0,0,1,5.92-2.94l5.23,10.46,12.38,4A25.82,25.82,0,0,1,84.79,34l20.08,15.06A3.36,3.36,0,0,1,105.49,53.72Z"/></g></svg>