<svg xmlns="http://www.w3.org/2000/svg" viewBox="0 0 120 120"><title>soccer</title><g id="Layer_1" data-name="Layer 1"><polygon points="60 42.62 42.68 55.17 49.32 75.45 70.74 75.45 77.32 55.17 60 42.62"/><path d="M60,8.91A51.09,51.09,0,1,0,111.09,60,51.09,51.09,0,0,0,60,8.91Zm13.83,93.32a44.84,44.84,0,0,1-27.66,0l6.64-4L44.75,81,25.84,78.67,24.13,86.2A44.05,44.05,0,0,1,15.59,60v-.06l5.79,5L35.29,52,31.7,33.26,24,34A44.49,44.49,0,0,1,46.39,17.71l-3,7.09L60,34,76.64,24.8l-3-7.09A44.47,44.47,0,0,1,96,34l-7.62-.69L84.71,52,98.62,65l5.79-5V60a44.05,44.05,0,0,1-8.54,26.2l-1.71-7.53L75.25,81,67.19,98.28Z"/></g></svg>