<svg xmlns="http://www.w3.org/2000/svg" viewBox="0 0 120 120"><defs><style>.cls-1{fill:#7d30cc;}</style></defs><title>softball</title><g id="Layer_1" data-name="Layer 1"><path class="cls-1" d="M60,8.91A51.09,51.09,0,1,0,111.09,60,51.14,51.14,0,0,0,60,8.91ZM30.23,93a47.74,47.74,0,0,0,8.51-12.17l-5.52-2.68a40.71,40.71,0,0,1-7.42,10.3c-17.63-21.18-9.33-45.63,0-56.86a42,42,0,0,1,7.42,10.26l5.52-2.7A47.31,47.31,0,0,0,30.25,27a44.26,44.26,0,0,1,59.54,0A47.07,47.07,0,0,0,81.3,39.13l5.52,2.68a41.17,41.17,0,0,1,7.42-10.3c16.09,19.3,11.24,43.34,0,56.84a40.71,40.71,0,0,1-7.42-10.28l-5.52,2.69A47,47,0,0,0,89.83,92.9c-18.54,16.79-44.15,14-59.6.08Zm11-18.25-5.83-1.9a41.46,41.46,0,0,0,0-25.68l5.83-1.9A47.61,47.61,0,0,1,41.19,74.73Zm43.47-1.9-5.83,1.9a47.61,47.61,0,0,1,0-29.48l5.83,1.9A41.61,41.61,0,0,0,84.66,72.83Z"/></g></svg>