<svg xmlns="http://www.w3.org/2000/svg" viewBox="0 0 120 120"><title>sports</title><g id="Layer_1" data-name="Layer 1"><path d="M113.14,13.53H6.86A6.65,6.65,0,0,0,.21,20.18V99.82a6.65,6.65,0,0,0,6.65,6.65H113.14a6.65,6.65,0,0,0,6.65-6.65V20.18A6.65,6.65,0,0,0,113.14,13.53Zm0,63H99.77V43.14h13.37ZM56.57,72.66a13.26,13.26,0,0,1,0-25.65ZM63.32,47a13.26,13.26,0,0,1,0,25.65ZM6.86,43.14H20.2V76.53H6.86Zm0,40.14H27V36.39H6.86V20.18H56.57V40.12a20,20,0,0,0,0,39.43V99.82H6.86ZM63.32,99.82V79.55a20,20,0,0,0,0-39.43V20.18h49.82V36.39H93V83.28h20.12V99.82Z"/></g></svg>