<svg xmlns="http://www.w3.org/2000/svg" viewBox="0 0 120 120"><title>squash</title><g id="Layer_1" data-name="Layer 1"><path d="M105.4,15.18c-11.69-11.69-34.11-8.29-50,7.57C45.58,32.6,40.54,45,40.92,55.73h-.05c0,7.69-4.06,15.56-6.52,19.83a3.44,3.44,0,0,0-1.47-.34,3.38,3.38,0,0,0-2.4,1L10.38,96.32a3.4,3.4,0,0,0,0,4.8L20,110.78a3.4,3.4,0,0,0,4.8,0L45,90.68a3.4,3.4,0,0,0,.18-4.58c4.31-2.47,12.08-6.43,19.68-6.43v0c.39,0,.78,0,1.18,0,10.49,0,22.33-5,31.83-14.53C113.69,49.28,117.09,26.87,105.4,15.18Zm-83,88.1-4.56-4.56,15-15,4.57,4.57ZM40,81l-.47-.47a70.51,70.51,0,0,0,5.52-11.14,22.21,22.21,0,0,0,6.08,6.09A69.88,69.88,0,0,0,40,81ZM92.87,60.2c-8.58,8.58-19.21,13-28.06,12.54v-.07l-.67,0A17.64,17.64,0,0,1,52.8,67.78a17.82,17.82,0,0,1-4.95-11.67c0-.13,0-.26,0-.38h0c-.44-8.84,4-19.46,12.55-28,8.17-8.17,18.22-12.58,26.81-12.58,5.2,0,9.87,1.63,13.26,5C109.41,29.09,106,47.06,92.87,60.2Z"/></g></svg>