<svg xmlns="http://www.w3.org/2000/svg" viewBox="0 0 120 120"><title>standings</title><g id="Layer_1" data-name="Layer 1"><path d="M118.49,53.32H86.55V21.75A1.25,1.25,0,0,0,85.3,20.5H34.7a1.25,1.25,0,0,0-1.25,1.25v18.3H1.51A1.25,1.25,0,0,0,.27,41.29v57A1.25,1.25,0,0,0,1.51,99.5h117a1.25,1.25,0,0,0,1.24-1.25V54.57A1.25,1.25,0,0,0,118.49,53.32Zm-85,39.54H6.9V46.68H33.45Zm46.46,0H40.09V27.14H79.91Zm33.19,0H86.55V60H113.1Z"/><path d="M55,54.14H65a1.25,1.25,0,0,0,1.25-1.25V51.73A1.25,1.25,0,0,0,65,50.49H62.14V35.41a1.25,1.25,0,0,0-1.25-1.25H59a1.25,1.25,0,0,0-.86.35l-4,3.8a1.27,1.27,0,0,0,0,1.77l.9,1a1.26,1.26,0,0,0,1.77,0l1.1-1V50.49H55a1.25,1.25,0,0,0-1.25,1.25v1.15A1.25,1.25,0,0,0,55,54.14Z"/></g></svg>