<svg xmlns="http://www.w3.org/2000/svg" viewBox="0 0 120 120"><defs><style>.cls-1{fill:#7d30cc;}</style></defs><title>star_outline</title><g id="Layer_1" data-name="Layer 1"><path class="cls-1" d="M109.79,42.47l-30.3-4.41L66,10.6a6.64,6.64,0,0,0-11.9,0L40.51,38.06l-30.3,4.41A6.64,6.64,0,0,0,6.54,53.8L28.46,75.16l-5.19,30.17a6.64,6.64,0,0,0,9.63,7L60,98.07l27.1,14.25a6.64,6.64,0,0,0,9.63-7L91.54,75.16,113.46,53.8a6.64,6.64,0,0,0-3.67-11.33ZM84.43,72.83l5.76,33.6L60,90.58,29.83,106.45l5.76-33.6L11.16,49l33.74-4.9L60,13.54,75.1,44.13,108.84,49,84.43,72.83Z"/></g></svg>