<svg xmlns="http://www.w3.org/2000/svg" viewBox="0 0 120 120"><defs><style>.cls-1{fill:#7d30cc;}</style></defs><title>subgroups</title><g id="Layer_1" data-name="Layer 1"><path class="cls-1" d="M110.73,79.8h-7l0-21.45A1.65,1.65,0,0,0,102,56.7H63.3V40.2H75.67a6.59,6.59,0,0,0,6.6-6.59V13.81a6.6,6.6,0,0,0-6.6-6.6H44.33a6.6,6.6,0,0,0-6.6,6.6v19.8a6.59,6.59,0,0,0,6.6,6.59H56.7V56.7H18a1.65,1.65,0,0,0-1.65,1.65l0,21.45h-7a6.59,6.59,0,0,0-6.59,6.59v19.8a6.6,6.6,0,0,0,6.59,6.6H29.89a6.6,6.6,0,0,0,6.6-6.6V86.39a6.59,6.59,0,0,0-6.6-6.59h-7V63.3H56.71V79.8h-7a6.6,6.6,0,0,0-6.6,6.59v19.8a6.61,6.61,0,0,0,6.6,6.6H70.31a6.61,6.61,0,0,0,6.6-6.6V86.39a6.6,6.6,0,0,0-6.6-6.59h-7V63.3H97.12V79.8h-7a6.59,6.59,0,0,0-6.6,6.59v19.8a6.6,6.6,0,0,0,6.6,6.6h20.62a6.6,6.6,0,0,0,6.59-6.6V86.39A6.59,6.59,0,0,0,110.73,79.8ZM29.89,86.39v19.8H9.27V86.39Zm40.42,0v19.8H49.69V86.39Zm-26-52.78V13.81H75.67v19.8Zm66.4,72.58H90.11V86.39h20.62Z"/></g></svg>