<?xml version="1.0" encoding="utf-8"?>
<!-- Generator: Adobe Illustrator 24.0.1, SVG Export Plug-In . SVG Version: 6.00 Build 0)  -->
<svg version="1.1" id="Layer_1" xmlns="http://www.w3.org/2000/svg" xmlns:xlink="http://www.w3.org/1999/xlink" x="0px" y="0px"
	 viewBox="0 0 120 120" style="enable-background:new 0 0 120 120;" xml:space="preserve">
<style type="text/css">
	.st0{fill:#7D30CC;}
</style>
<title>subgroups</title>
<g id="Layer_1_1_">
	<path class="st0" d="M110.7,79.8h-7V58.4c0-0.9-0.7-1.7-1.6-1.7c0,0-0.1,0-0.1,0H63.3V40.2h12.4c3.6,0,6.6-2.9,6.6-6.6c0,0,0,0,0,0
		V13.8c0-3.6-3-6.6-6.6-6.6H44.3c-3.6,0-6.6,3-6.6,6.6v19.8c0,3.6,3,6.6,6.6,6.6c0,0,0,0,0,0h12.4v16.5H18c-0.9,0-1.6,0.7-1.6,1.7
		l0,0v21.5h-7c-3.6,0-6.6,3-6.6,6.6v19.8c0,3.6,2.9,6.6,6.6,6.6h20.5c3.6,0,6.6-3,6.6-6.6V86.4c0-3.6-3-6.6-6.6-6.6c0,0,0,0,0,0h-7
		V63.3h33.8v16.5h-7c-3.6,0-6.6,2.9-6.6,6.6v19.8c0,3.6,3,6.6,6.6,6.6h20.6c3.6,0,6.6-3,6.6-6.6V86.4c0-3.6-3-6.6-6.6-6.6h-7V63.3
		h33.8v16.5h-7c-3.6,0-6.6,2.9-6.6,6.6c0,0,0,0,0,0v19.8c0,3.6,3,6.6,6.6,6.6h20.6c3.6,0,6.6-3,6.6-6.6V86.4
		C117.3,82.8,114.4,79.8,110.7,79.8C110.7,79.8,110.7,79.8,110.7,79.8z M29.9,86.4v19.8H9.3V86.4H29.9z M70.3,86.4v19.8H49.7V86.4
		H70.3z M44.3,33.6V13.8h31.4v19.8H44.3z M110.7,106.2H90.1V86.4h20.6L110.7,106.2z"/>
</g>
</svg>
