<svg xmlns="http://www.w3.org/2000/svg" viewBox="0 0 120 120"><title>subscription</title><g id="Layer_1" data-name="Layer 1"><path d="M60,8.76A51.24,51.24,0,1,0,111.24,60,51.24,51.24,0,0,0,60,8.76Zm0,95.87A44.63,44.63,0,1,1,104.63,60,44.68,44.68,0,0,1,60,104.63Zm8.33-45.72L53.45,54.73a5.73,5.73,0,0,1,1.63-11.26h9.3a10.58,10.58,0,0,1,6.32,2.09,1.65,1.65,0,0,0,2.15-.17L75.18,43A1.66,1.66,0,0,0,75,40.54a17,17,0,0,0-10.66-3.7h-1V28.58a1.67,1.67,0,0,0-1.66-1.66h-3.3a1.67,1.67,0,0,0-1.66,1.66v8.26H55.08a12.34,12.34,0,0,0-3.43,24.23l14.88,4.18A5.73,5.73,0,0,1,64.9,76.51H55.6a10.56,10.56,0,0,1-6.32-2.09,1.63,1.63,0,0,0-2.15.17L44.79,77A1.66,1.66,0,0,0,45,79.44a17,17,0,0,0,10.66,3.7h1.07V91.4a1.67,1.67,0,0,0,1.66,1.66h3.3a1.67,1.67,0,0,0,1.66-1.66V83.14h1.61a12.33,12.33,0,0,0,3.41-24.23Z"/></g></svg>