<svg xmlns="http://www.w3.org/2000/svg" viewBox="0 0 120 120"><title>sun</title><g id="Layer_1" data-name="Layer 1"><path d="M60,36.94A23,23,0,1,0,83,60a23,23,0,0,0-23-23ZM60,76.4A16.45,16.45,0,1,1,76.43,60,16.45,16.45,0,0,1,60,76.4ZM112.57,60a3.32,3.32,0,0,0-1.46-2.73l-17-11.4,4-20.1a3.3,3.3,0,0,0-.9-3,3.22,3.22,0,0,0-3-.9l-20.08,4-11.4-17a3.4,3.4,0,0,0-5.46,0l-11.4,17-20.08-4a3.22,3.22,0,0,0-3,.9,3.31,3.31,0,0,0-.9,3l4,20.12-17,11.4a3.28,3.28,0,0,0,0,5.46l17,11.39-4,20.11a3.29,3.29,0,0,0,.9,3,3.25,3.25,0,0,0,3,.91l20.08-4,11.4,17A3.28,3.28,0,0,0,60,112.56a3.33,3.33,0,0,0,2.73-1.45l11.4-17,20.08,4a3.17,3.17,0,0,0,3-.91,3.3,3.3,0,0,0,.9-3l-4-20.11,17-11.39A3.35,3.35,0,0,0,112.57,60Zm-24,9.87a3.29,3.29,0,0,0-1.39,3.37l3.45,17.43L73.24,87.18a3.19,3.19,0,0,0-3.36,1.4L60,103.36,50.12,88.6a3.27,3.27,0,0,0-2.73-1.46,3.36,3.36,0,0,0-.63.06L29.34,90.65l3.45-17.43a3.29,3.29,0,0,0-1.39-3.37L16.63,60l14.77-9.9a3.29,3.29,0,0,0,1.39-3.37L29.34,29.28l17.42,3.45a3.22,3.22,0,0,0,3.36-1.4L60,16.55l9.88,14.78a3.22,3.22,0,0,0,3.36,1.4l17.42-3.45L87.21,46.71a3.29,3.29,0,0,0,1.39,3.37L103.37,60,88.6,69.83Z"/></g></svg>