<svg xmlns="http://www.w3.org/2000/svg" viewBox="0 0 120 120"><title>surfing</title><g id="Layer_1" data-name="Layer 1"><path d="M115.36,81.46a3.3,3.3,0,0,0-3.3-3.3,2.48,2.48,0,0,0-.27,0l0,0-.25.08a2.92,2.92,0,0,0-.84.25L77.59,88.61A9.85,9.85,0,0,0,79.77,78L71.54,58.17A13.29,13.29,0,0,0,59.79,50l-7.89-.15,3.54-6,16.32.64a9.76,9.76,0,0,0,6-1.74,9.89,9.89,0,0,0-5.23-18l-17.35-.69a13.35,13.35,0,1,0-17,.76c-.39.09-.78.14-1.16.25l-9.87,3L19.29,23.7A9.89,9.89,0,0,0,9.75,41L20,46.67a13,13,0,0,0,3.27,1.27L22,50.32a16.41,16.41,0,0,0,.88,17.32l4.86,7-8.24,11a9.79,9.79,0,0,0,9.59,15.58L14.7,104.52s-3.27,1-2.45,4.16,4.11,2.23,4.11,2.23l6-1.64-.68,7.23a2,2,0,0,0,1.27,2,2,2,0,0,0,.72.14,2,2,0,0,0,1.6-.8l8.93-11.84L112.69,84.7l.17,0,.58-.15v0A3.29,3.29,0,0,0,115.36,81.46ZM42.48,9.07a6.59,6.59,0,1,1-1.68,9.17A6.6,6.6,0,0,1,42.48,9.07ZM30.83,100.75a8.94,8.94,0,0,0,4.42-3.23L46.37,82.76a13.19,13.19,0,0,0,1.57-13.17l7,.09,6.57,15.84a8.83,8.83,0,0,0,6.37,5.56Zm41.08-16A3.27,3.27,0,0,1,67.6,83L59.36,63.15l-23.81-.33,5.71,8.27a6.59,6.59,0,0,1-.15,7.71c-12,16-11.25,15.08-11.86,15.5a3.28,3.28,0,0,1-4.5-4.67l11.1-14.78-7.57-11a9.83,9.83,0,0,1-.53-10.37l7.88-14.33-7.74,2.24a6,6,0,0,1-4.7-.53L12.94,35.25a3.31,3.31,0,1,1,3.19-5.79L26.38,35.1l12.46-3.74a25.52,25.52,0,0,1,8.38-1l25.08,1a3.35,3.35,0,0,1,3.14,3.46A3.3,3.3,0,0,1,72,37.94l-20.25-.79L40.43,56.29l19.12.27a6.61,6.61,0,0,1,5.9,4.06l8.24,19.84A3.3,3.3,0,0,1,71.91,84.77Z"/></g></svg>