<svg xmlns="http://www.w3.org/2000/svg" viewBox="0 0 120 120"><title>swimming</title><g id="Layer_1" data-name="Layer 1"><path d="M36.51,73.54l.8.61a7,7,0,0,1,.75.6,8.25,8.25,0,0,0,4.06,1.56l.38,0L49.69,66.1a98.7,98.7,0,0,1,8-9.85L83.06,73.84l.36-.25A12.12,12.12,0,0,1,89,71.33l1.62-.21L62.2,51.46a101.32,101.32,0,0,1,11.74-9.85,7.42,7.42,0,0,1,5.88-1.18l16.56,3A3.26,3.26,0,1,0,97.54,37L81.08,34a13.91,13.91,0,0,0-10.94,2.27,108.23,108.23,0,0,0-25.8,26.06Z"/><path d="M111.48,80.5h-4c-4.28,0-7.37-1.44-8.83-2.79A8.3,8.3,0,0,0,93,75.22H90.34a8.3,8.3,0,0,0-5.67,2.49c-1.46,1.35-4.55,2.79-8.83,2.79S68.47,79.06,67,77.71a8.3,8.3,0,0,0-5.67-2.49H58.65A8.3,8.3,0,0,0,53,77.71c-1.46,1.35-4.55,2.79-8.83,2.79s-7.37-1.44-8.83-2.79a8.3,8.3,0,0,0-5.67-2.49H27a8.3,8.3,0,0,0-5.66,2.49c-1.46,1.35-4.55,2.79-8.83,2.79h-4a2,2,0,0,0-1.95,1.94v2.64a2,2,0,0,0,1.95,2h4A25.34,25.34,0,0,0,28.32,82,25.3,25.3,0,0,0,44.16,87,25.34,25.34,0,0,0,60,82,25.3,25.3,0,0,0,75.84,87,25.3,25.3,0,0,0,91.68,82,25.32,25.32,0,0,0,107.52,87h4a2,2,0,0,0,2-2V82.44A2,2,0,0,0,111.48,80.5Z"/><path d="M28.32,65.91A16.47,16.47,0,1,0,11.85,49.44,16.48,16.48,0,0,0,28.32,65.91ZM18.38,49.44a9.94,9.94,0,1,1,9.94,9.93A10,10,0,0,1,18.38,49.44Z"/></g></svg>