<svg xmlns="http://www.w3.org/2000/svg" viewBox="0 0 120 120"><defs><style>.cls-1{fill:#7d30cc;}</style></defs><title>swimming</title><g id="Layer_1" data-name="Layer 1"><path class="cls-1" d="M26,65.66a17,17,0,1,0-17-17A17,17,0,0,0,26,65.66Zm0-28.31A11.33,11.33,0,1,1,14.7,48.67,11.34,11.34,0,0,1,26,37.35Zm10.9,38a8.16,8.16,0,0,0,4,1.51l7.47-10.67a109.13,109.13,0,0,1,9-11.07L84.73,74A13.45,13.45,0,0,1,91,71.49L61.31,50.93a109.52,109.52,0,0,1,13.26-11.2,8.54,8.54,0,0,1,6.8-1.38l17.77,3.2a2.83,2.83,0,1,0,1-5.57L82.47,32.8a14.11,14.11,0,0,0-11.2,2.32A114.93,114.93,0,0,0,43.75,62.91l-8,11.47a15,15,0,0,1,1.2.94Zm78.29,7.33H111c-4.61,0-8.11-1.49-9.93-3.17A8.38,8.38,0,0,0,95.42,77H92.53a8.4,8.4,0,0,0-5.62,2.49c-1.82,1.68-5.31,3.17-9.92,3.17s-8.11-1.49-9.93-3.17A8.38,8.38,0,0,0,61.44,77H58.56a8.41,8.41,0,0,0-5.63,2.49c-1.81,1.68-5.31,3.17-9.92,3.17s-8.1-1.49-9.93-3.17A8.36,8.36,0,0,0,27.46,77H24.58A8.36,8.36,0,0,0,19,79.48c-1.82,1.68-5.32,3.17-9.93,3.17H4.79a1.42,1.42,0,0,0-1.42,1.42V86.9a1.42,1.42,0,0,0,1.42,1.42H9c6.84,0,12.87-2.16,17-5.64,4.12,3.48,10.16,5.64,17,5.64s12.87-2.16,17-5.64c4.12,3.48,10.15,5.64,17,5.64s12.87-2.16,17-5.64c4.12,3.48,10.15,5.64,17,5.64h4.24a1.42,1.42,0,0,0,1.42-1.42V84.07A1.42,1.42,0,0,0,115.21,82.65Z"/></g></svg>