<svg xmlns="http://www.w3.org/2000/svg" viewBox="0 0 120 120"><title>table_tennis</title><g id="Layer_1" data-name="Layer 1"><path d="M106.72,74.25a44.72,44.72,0,0,0-38.79-67c-21.79,0-31.52,13-45.18,26.68a26.16,26.16,0,0,0,0,36.87L26.92,75,9.69,90a7.12,7.12,0,0,0-.37,10.36l10.32,10.32A7.07,7.07,0,0,0,30,110.26L44.92,93c3.28,3.28,12.13,14.54,27.3,11.56a23,23,0,1,0,34.5-30.35ZM40.92,25.08A38.13,38.13,0,0,1,101.55,70a22.8,22.8,0,0,0-31.83,8.26l-41-41L40.92,25.08Zm3.67,58.28L24.32,106,14,95.66,36.58,75.35l-9.17-9.19a19.51,19.51,0,0,1-2.86-23.77L67.09,84.92a22.5,22.5,0,0,0,1.17,13.23c-10.65.31-14.52-5.62-23.67-14.79Zm45.07,22.78a16.48,16.48,0,1,1,16.48-16.48A16.5,16.5,0,0,1,89.66,106.14Z"/></g></svg>