<svg xmlns="http://www.w3.org/2000/svg" viewBox="0 0 120 120"><title>task</title><g id="Layer_1" data-name="Layer 1"><path d="M89.69,20.41H71.42a10,10,0,0,0,.13-1.65,11.55,11.55,0,1,0-23.1,0,10,10,0,0,0,.13,1.65H30.31a9.9,9.9,0,0,0-9.9,9.9v72.58a9.9,9.9,0,0,0,9.9,9.9H89.69a9.9,9.9,0,0,0,9.9-9.9V30.31A9.9,9.9,0,0,0,89.69,20.41ZM60,13.81a5,5,0,1,1-5,5A4.94,4.94,0,0,1,60,13.81Zm33,89.08a3.31,3.31,0,0,1-3.3,3.3H30.31a3.31,3.31,0,0,1-3.3-3.3V30.31a3.3,3.3,0,0,1,3.3-3.3H40.2v4.12a2.49,2.49,0,0,0,2.48,2.48H77.32a2.49,2.49,0,0,0,2.48-2.48V27h9.89a3.3,3.3,0,0,1,3.3,3.3Zm-49.49-28a4.95,4.95,0,1,0,5,5A4.94,4.94,0,0,0,43.5,74.85ZM78.15,76.5H55.05a1.65,1.65,0,0,0-1.65,1.65v3.3a1.65,1.65,0,0,0,1.65,1.64h23.1a1.66,1.66,0,0,0,1.65-1.64v-3.3A1.66,1.66,0,0,0,78.15,76.5ZM46.43,63,59.67,49.85a1.1,1.1,0,0,0,0-1.56l-2.6-2.62a1.12,1.12,0,0,0-1.57,0L45.69,55.4l-4.25-4.31a1.12,1.12,0,0,0-1.57,0l-2.61,2.6a1.1,1.1,0,0,0,0,1.57L44.91,63A1.06,1.06,0,0,0,46.43,63ZM78.15,56.7h-16l-6.66,6.6H78.15a1.66,1.66,0,0,0,1.65-1.65v-3.3A1.66,1.66,0,0,0,78.15,56.7Z"/></g></svg>