<svg xmlns="http://www.w3.org/2000/svg" viewBox="0 0 120 120"><defs><style>.cls-1{fill:#7d30cc;}</style></defs><title>tennis</title><g id="Layer_1" data-name="Layer 1"><path class="cls-1" d="M60,8.91A51.09,51.09,0,1,0,111.09,60,51.14,51.14,0,0,0,60,8.91Zm-2.58,6.72a13.48,13.48,0,0,0-1.91,6.67C55.51,30.81,51.7,40.35,46,46s-15.2,9.48-23.69,9.48a13.31,13.31,0,0,0-6.69,1.93A44.47,44.47,0,0,1,57.42,15.63ZM16,66.43a6.7,6.7,0,0,1,6.3-4.35c10.3,0,21.43-4.49,28.35-11.41S62.08,32.6,62.08,22.3A6.64,6.64,0,0,1,66.41,16,44.53,44.53,0,0,1,104,53.57a6.74,6.74,0,0,1-6.3,4.33c-10.3,0-21.43,4.49-28.35,11.41S57.9,87.38,57.9,97.68a6.68,6.68,0,0,1-4.35,6.3A44.53,44.53,0,0,1,16,66.43Zm46.55,37.94a13.42,13.42,0,0,0,1.94-6.69c0-8.51,3.81-18.05,9.48-23.71s15.2-9.48,23.69-9.48a13.42,13.42,0,0,0,6.67-1.91A44.47,44.47,0,0,1,62.57,104.37Z"/></g></svg>