<svg xmlns="http://www.w3.org/2000/svg" viewBox="0 0 120 120"><title>terms</title><g id="Layer_1" data-name="Layer 1"><path d="M116.26,35.25l-5.11-5.11a10.67,10.67,0,0,0-15.11,0L79.8,46.33V34.42a10,10,0,0,0-2.91-7l-17.3-17.3a9.87,9.87,0,0,0-7-2.91H10.51a9.94,9.94,0,0,0-9.9,9.92v85.76a9.91,9.91,0,0,0,9.9,9.9H69.9a9.91,9.91,0,0,0,9.9-9.9V86.28a32.29,32.29,0,0,0,3.75-3.08l32.71-32.85a10.67,10.67,0,0,0,0-15.1ZM53.41,13.93a3.28,3.28,0,0,1,1.52.87l17.3,17.29a3.36,3.36,0,0,1,.87,1.53H53.41Zm19.79,89a3.3,3.3,0,0,1-3.3,3.3H10.51a3.31,3.31,0,0,1-3.3-3.3V17.13a3.33,3.33,0,0,1,3.3-3.32h36.3V35.27a4.93,4.93,0,0,0,4.95,4.93H73.2V52.89l-10,10a33.41,33.41,0,0,0-9.79,23.51,2.29,2.29,0,0,1-1.93-1.3C49,80.13,41.94,78.8,37.87,82.13L35,73.55a5,5,0,0,0-9.4,0L21.85,84.82a2.29,2.29,0,0,1-2.18,1.57H17.11a3.3,3.3,0,0,0,0,6.6h2.56a8.89,8.89,0,0,0,8.45-6.09l2.19-6.57,3.46,10.41a3.31,3.31,0,0,0,6.09.43L41.44,88a2.31,2.31,0,0,1,4.17.07A8.84,8.84,0,0,0,53.4,93H60a33.4,33.4,0,0,0,13.2-2.8Zm5.67-24.34A26.63,26.63,0,0,1,60,86.39h0a26.61,26.61,0,0,1,7.85-18.87L92.71,42.8l10.88,10.89L78.87,78.55Zm32.72-32.86-4.37,4.37L96.34,39.17l4.37-4.37a4.09,4.09,0,0,1,5.77,0l5.12,5.11a4.09,4.09,0,0,1,0,5.78Z"/></g></svg>