<svg xmlns="http://www.w3.org/2000/svg" viewBox="0 0 120 120"><defs><style>.cls-1{fill:#7d30cc;}</style></defs><title>thunderstorm</title><g id="Layer_1" data-name="Layer 1"><path class="cls-1" d="M83.09,60H67.88L73,44.55a3.34,3.34,0,0,0-.45-3,3.26,3.26,0,0,0-2.68-1.36H46.81a3.33,3.33,0,0,0-3.26,2.7L37,79.2a3.28,3.28,0,0,0,.72,2.7,3.33,3.33,0,0,0,2.54,1.2H56.7v26.39a3.31,3.31,0,0,0,2.54,3.22,3.22,3.22,0,0,0,.76.08A3.27,3.27,0,0,0,63,111L86,64.79a3.33,3.33,0,0,0-3-4.8ZM63.3,95.49V79.78a3.32,3.32,0,0,0-3.3-3.3H44.17l5.4-29.68H65.34L60.19,62.24a3.28,3.28,0,0,0,3.13,4.33H77.77ZM92.92,30.36A18.17,18.17,0,0,0,74.84,13.81,17.82,17.82,0,0,0,64.7,16.94,24.66,24.66,0,0,0,20.42,32V32a21.39,21.39,0,0,0,8.24,41.15h2.68l1.2-6.59H28.66a14.8,14.8,0,0,1-3.85-29.11l2.74-.75-.41-3.54A8.69,8.69,0,0,1,27,32a18.07,18.07,0,0,1,34.06-8.49l2.19,4.08,3.13-3.4a11.52,11.52,0,0,1,20,7.81,11.53,11.53,0,0,1-.17,1.42l-.51,4.13,4.84-.5a5,5,0,0,1,.79-.08,14.81,14.81,0,0,1,1,29.58,9.65,9.65,0,0,1-.44,1.24l-2.72,5.44h2.13a21.44,21.44,0,0,0,1.58-42.82Z"/></g></svg>