<svg xmlns="http://www.w3.org/2000/svg" viewBox="0 0 120 120"><defs><style>.cls-1{fill:#7d30cc;}</style></defs><title>time</title><g id="Layer_1" data-name="Layer 1"><path class="cls-1" d="M60,8.8A51.2,51.2,0,1,0,111.2,60,51.2,51.2,0,0,0,60,8.8ZM104.59,60A44.59,44.59,0,1,1,60,15.41,44.59,44.59,0,0,1,104.59,60ZM73.85,78.23,57.09,66.05a2.5,2.5,0,0,1-1-2V31.1a2.48,2.48,0,0,1,2.47-2.48h2.9a2.48,2.48,0,0,1,2.47,2.48V61.3L78.48,71.89A2.48,2.48,0,0,1,79,75.36l-1.69,2.33a2.5,2.5,0,0,1-3.47.54Z"/></g></svg>