<svg xmlns="http://www.w3.org/2000/svg" viewBox="0 0 120 120"><title>trash</title><g id="Layer_1" data-name="Layer 1"><path d="M74.85,96.29h3.3a1.65,1.65,0,0,0,1.65-1.65V38.55a1.64,1.64,0,0,0-1.65-1.64h-3.3a1.64,1.64,0,0,0-1.65,1.64V94.64A1.65,1.65,0,0,0,74.85,96.29Zm-33,0h3.3a1.65,1.65,0,0,0,1.65-1.65V38.55a1.64,1.64,0,0,0-1.65-1.64h-3.3a1.64,1.64,0,0,0-1.65,1.64V94.64A1.65,1.65,0,0,0,41.85,96.29Zm62.69-75.88H83.09l-6.92-9.24a9.92,9.92,0,0,0-7.92-4H51.75a9.92,9.92,0,0,0-7.92,4l-6.92,9.24H15.46a1.65,1.65,0,0,0-1.65,1.65v3.3A1.65,1.65,0,0,0,15.46,27h4.95v75.88a9.9,9.9,0,0,0,9.9,9.9H89.69a9.9,9.9,0,0,0,9.9-9.9h0V27h5a1.65,1.65,0,0,0,1.65-1.65v-3.3A1.65,1.65,0,0,0,104.54,20.41ZM49.11,15.13a3.31,3.31,0,0,1,2.64-1.32h16.5a3.31,3.31,0,0,1,2.64,1.32l4,5.28H45.15ZM93,102.89a3.3,3.3,0,0,1-3.3,3.3H30.31a3.3,3.3,0,0,1-3.3-3.3V27H93Zm-34.64-6.6h3.3a1.65,1.65,0,0,0,1.65-1.65V38.55a1.64,1.64,0,0,0-1.65-1.64h-3.3a1.64,1.64,0,0,0-1.65,1.64V94.64A1.65,1.65,0,0,0,58.35,96.29Z"/></g></svg>