<svg xmlns="http://www.w3.org/2000/svg" viewBox="0 0 120 120"><defs><style>.cls-1{fill:#7d30cc;}</style></defs><title>twitter</title><g id="Layer_1" data-name="Layer 1"><path class="cls-1" d="M102.17,38.38c.06.94.06,1.88.06,2.83,0,28.76-21.89,61.9-61.9,61.9A61.44,61.44,0,0,1,6.92,93.34a45.51,45.51,0,0,0,5.26.27,43.58,43.58,0,0,0,27-9.29A21.82,21.82,0,0,1,18.84,69.23a27.79,27.79,0,0,0,4.11.33,22.62,22.62,0,0,0,5.73-.74A21.75,21.75,0,0,1,11.23,47.47V47.2A21.85,21.85,0,0,0,21.07,50a21.8,21.8,0,0,1-6.74-29.1A61.81,61.81,0,0,0,59.19,43.63a24.27,24.27,0,0,1-.54-5A21.78,21.78,0,0,1,96.31,23.76a42.77,42.77,0,0,0,13.8-5.25,21.7,21.7,0,0,1-9.56,12,43.72,43.72,0,0,0,12.53-3.37,46.81,46.81,0,0,1-10.91,11.25Z"/></g></svg>