<svg xmlns="http://www.w3.org/2000/svg" viewBox="0 0 120 120"><title>ultimate_frisbee</title><g id="Layer_1" data-name="Layer 1"><path d="M70.92,96.45A46,46,0,1,1,103.45,83h0A45.84,45.84,0,0,1,70.92,96.45Zm0-86A40,40,0,1,0,99.21,22.19,39.71,39.71,0,0,0,70.92,10.47Zm30.41,70.41h0Z"/><path d="M89.66,71.33a3,3,0,0,1-2.12-5.12A22.87,22.87,0,1,0,48.49,50a3,3,0,0,1-6,0A28.88,28.88,0,1,1,91.78,70.45,3,3,0,0,1,89.66,71.33Z"/><path d="M12.83,90.88a3,3,0,0,1-2.12-5.12l9.12-9.12a3,3,0,1,1,4.24,4.24L15,90A3,3,0,0,1,12.83,90.88Z"/><path d="M27.75,111.75a3,3,0,0,1-2.12-5.12L37.89,94.36a3,3,0,1,1,4.24,4.24L29.87,110.87A3,3,0,0,1,27.75,111.75Z"/><path d="M6.07,115.53A3,3,0,0,1,4,110.41L28.82,85.54a3,3,0,1,1,4.25,4.24L8.2,114.65A3,3,0,0,1,6.07,115.53Z"/></g></svg>