<svg xmlns="http://www.w3.org/2000/svg" viewBox="0 0 120 120"><title>universal</title><g id="Layer_1" data-name="Layer 1"><path d="M106.19,66.6h-33a6.59,6.59,0,0,0-6.6,6.6v33a6.6,6.6,0,0,0,6.6,6.6h33a6.61,6.61,0,0,0,6.6-6.6v-33A6.6,6.6,0,0,0,106.19,66.6Zm0,39.59h-33v-33h33ZM33.61,60A26.4,26.4,0,1,0,60,86.39,26.4,26.4,0,0,0,33.61,60Zm0,46.19A19.8,19.8,0,1,1,53.4,86.39,19.82,19.82,0,0,1,33.61,106.19Zm78.14-57.5L89.71,11a7.69,7.69,0,0,0-13.23,0l-22,37.71A7.54,7.54,0,0,0,61.05,60h44.09a7.54,7.54,0,0,0,6.61-11.31Zm-5.69,4.2a1,1,0,0,1-.92.51H61.05a1,1,0,0,1-.92-.51.8.8,0,0,1,0-.87L82.18,14.31a1.09,1.09,0,0,1,1.83,0l22,37.71a.8.8,0,0,1,0,.87Z"/></g></svg>