<svg xmlns="http://www.w3.org/2000/svg" viewBox="0 0 120 120"><title>user_privacy</title><g id="Layer_1" data-name="Layer 1"><path d="M115.74,63.11l-15.62-9.28a6.38,6.38,0,0,0-2.29-.43,6.46,6.46,0,0,0-2.29.43L79.93,63.11a5.58,5.58,0,0,0-3.65,5.14c0,23,6,38.93,19.26,44.11a6.38,6.38,0,0,0,2.29.43,6.46,6.46,0,0,0,2.29-.43c10.58-4.13,19.27-18.44,19.27-44.11A5.59,5.59,0,0,0,115.74,63.11ZM94.53,104.54C84.59,99,83.16,86.48,82.87,69.05l11.66-7.73ZM98,106.21l0,0H98A.14.14,0,0,0,98,106.21Zm3.18-1.57V61.32l11.66,7.73C112.48,88.6,109.15,100,101.13,104.64Zm-90.62,1.55a3.32,3.32,0,0,1-3.3-3.3V94.31A21.13,21.13,0,0,1,28.33,73.2c4,0,8.06,3.3,18.47,3.3s14.44-3.3,18.48-3.3c.53,0,5,.12,5.52.16-.14-1.67-.22-3.36-.22-5.11a12.15,12.15,0,0,1,.22-1.49c-.51,0-5-.16-5.52-.16-5.92,0-8.76,3.3-18.48,3.3s-12.53-3.3-18.47-3.3A27.72,27.72,0,0,0,.61,94.31v8.58a9.91,9.91,0,0,0,9.9,9.9H79.12a10.1,10.1,0,0,0,4-.83A53.25,53.25,0,0,1,77,106.19ZM46.8,60A26.4,26.4,0,1,0,20.41,33.61,26.4,26.4,0,0,0,46.8,60Zm0-46.19A19.8,19.8,0,1,1,27,33.61,19.83,19.83,0,0,1,46.8,13.81Z"/></g></svg>