<svg xmlns="http://www.w3.org/2000/svg" viewBox="0 0 120 120"><defs><style>.cls-1{fill:#7d30cc;}</style></defs><title>user_add</title><g id="Layer_1" data-name="Layer 1"><path class="cls-1" d="M40.09,60A23.23,23.23,0,1,0,16.86,36.77,23.22,23.22,0,0,0,40.09,60Zm0-39.82A16.59,16.59,0,1,1,23.5,36.77,16.61,16.61,0,0,1,40.09,20.18Zm16.61,44c-6.93,0-8.65,2.49-16.61,2.49s-9.69-2.49-16.61-2.49A22.87,22.87,0,0,0,4.33,73.88,23.76,23.76,0,0,0,.27,87.21V96.5a10,10,0,0,0,10,10H70a10,10,0,0,0,10-10V87.21a23.76,23.76,0,0,0-4.06-13.33A22.87,22.87,0,0,0,56.7,64.15ZM73.27,96.5A3.32,3.32,0,0,1,70,99.82H10.22A3.33,3.33,0,0,1,6.9,96.5V87.21a17.21,17.21,0,0,1,2.93-9.62,16.23,16.23,0,0,1,13.63-6.8c5.68,0,7.71,2.48,16.63,2.48S51,70.79,56.7,70.79a16.24,16.24,0,0,1,13.63,6.8,17.2,17.2,0,0,1,2.92,9.62V96.5Z"/><path class="cls-1" d="M118.07,46.72H99.82V28.47a1.66,1.66,0,0,0-1.66-1.66H94.84a1.67,1.67,0,0,0-1.66,1.66V46.72H74.93a1.67,1.67,0,0,0-1.66,1.66V51.7a1.67,1.67,0,0,0,1.66,1.66H93.18V71.61a1.67,1.67,0,0,0,1.66,1.66h3.32a1.66,1.66,0,0,0,1.66-1.66V53.36h18.25a1.66,1.66,0,0,0,1.66-1.66V48.38A1.66,1.66,0,0,0,118.07,46.72Z"/></g></svg>