<svg xmlns="http://www.w3.org/2000/svg" viewBox="0 0 120 120"><title>users_chat</title><g id="Layer_1" data-name="Layer 1"><path d="M50,60A23.23,23.23,0,1,0,26.78,36.77,23.22,23.22,0,0,0,50,60Zm0-39.82A16.59,16.59,0,1,1,33.42,36.77,16.61,16.61,0,0,1,50,20.18Zm16.61,44C59.7,64.15,58,66.64,50,66.64s-9.68-2.49-16.61-2.49a22.87,22.87,0,0,0-19.15,9.73,23.76,23.76,0,0,0-4.06,13.33V96.5a10,10,0,0,0,10,10H79.88a10,10,0,0,0,10-10V87.21a23.76,23.76,0,0,0-4.06-13.33,22.86,22.86,0,0,0-19.15-9.73ZM83.2,96.5a3.33,3.33,0,0,1-3.32,3.32H20.15a3.32,3.32,0,0,1-3.32-3.32V87.21a17.2,17.2,0,0,1,2.92-9.62,16.24,16.24,0,0,1,13.63-6.8c5.68,0,7.71,2.48,16.63,2.48s11-2.48,16.61-2.48a16.23,16.23,0,0,1,13.63,6.8,17.21,17.21,0,0,1,2.93,9.62V96.5Z"/><path d="M92.9,54.23a14.46,14.46,0,1,1,14.46-14.46A14.48,14.48,0,0,1,92.9,54.23Zm0-22.17a7.71,7.71,0,1,0,7.71,7.71A7.72,7.72,0,0,0,92.9,32.06Z"/><path d="M104.8,66.6a14.86,14.86,0,0,0-10.39-3.87H86.57a17.34,17.34,0,0,0-5,.74,20.18,20.18,0,0,1,7.75,6h5.32a8.32,8.32,0,0,1,5.56,2.1c1.87,1.79,2.82,4.72,2.82,8.7a3.38,3.38,0,1,0,6.75,0C109.81,74.31,108.12,69.71,104.8,66.6Z"/></g></svg>