<svg xmlns="http://www.w3.org/2000/svg" viewBox="0 0 120 120"><title>user_removed</title><g id="Layer_1" data-name="Layer 1"><path d="M118.75,101.9,5.38,12.77A1.65,1.65,0,0,0,3.07,13L1,15.6a1.66,1.66,0,0,0,.24,2.33l113.37,89.14a1.64,1.64,0,0,0,2.31-.24l2.06-2.58a1.68,1.68,0,0,0-.24-2.35ZM60,13.81a19.72,19.72,0,0,1,9.63,37l5.53,4.35A26.35,26.35,0,1,0,35.5,23.91L41,28.27A19.77,19.77,0,0,1,60,13.81Zm36.29,92.38H23.71a3.31,3.31,0,0,1-3.3-3.3V94.31A21.12,21.12,0,0,1,41.52,73.2a14.09,14.09,0,0,1,4.48.9,43.07,43.07,0,0,0,13.57,2.36L48.93,68.08a22.84,22.84,0,0,0-7.41-1.48A27.71,27.71,0,0,0,13.81,94.31v8.58a9.9,9.9,0,0,0,9.9,9.9H96.29a9.77,9.77,0,0,0,6.37-2.39L97.1,106a3,3,0,0,1-.81.17Z"/></g></svg>