<svg xmlns="http://www.w3.org/2000/svg" viewBox="0 0 120 120"><defs><style>.cls-1{fill:#7d30cc;}</style></defs><title>warning</title><g id="Layer_1" data-name="Layer 1"><path class="cls-1" d="M60,15.5A44.5,44.5,0,1,1,15.5,60,44.51,44.51,0,0,1,60,15.5m0-6.59A51.09,51.09,0,1,0,111.09,60,51.1,51.1,0,0,0,60,8.91ZM57.63,33.63h4.74a2.48,2.48,0,0,1,2.47,2.58L63.39,70.82a2.46,2.46,0,0,1-2.47,2.36H59.08a2.46,2.46,0,0,1-2.47-2.36L55.16,36.21a2.48,2.48,0,0,1,2.47-2.58ZM60,77.3a5.77,5.77,0,1,0,5.77,5.77A5.77,5.77,0,0,0,60,77.3Z"/></g></svg>