<svg xmlns="http://www.w3.org/2000/svg" viewBox="0 0 120 120"><defs><style>.cls-1{fill:#231f20;}</style></defs><title>weightlifting</title><g id="Layer_1" data-name="Layer 1"><path class="cls-1" d="M112.19,57.32h-4v-16a8,8,0,0,0-8-8H94.79a8.42,8.42,0,0,0-2.67.48V30.56a8,8,0,0,0-8-8H78.73a8,8,0,0,0-8,8V57.32H49.29V30.56a8,8,0,0,0-8-8H35.91a8,8,0,0,0-8,8v3.16a7.9,7.9,0,0,0-2.67-.48H19.85a8,8,0,0,0-8,8v16h-4a1.35,1.35,0,0,0-1.34,1.34v2.68a1.35,1.35,0,0,0,1.34,1.34h4V78.73a8,8,0,0,0,8,8h5.36a8.42,8.42,0,0,0,2.67-.48v3.16a8,8,0,0,0,8,8h5.36a8,8,0,0,0,8-8V62.68H70.71V89.44a8,8,0,0,0,8,8h5.36a8,8,0,0,0,8-8V86.28a7.9,7.9,0,0,0,2.67.48h5.36a8,8,0,0,0,8-8V62.68h4a1.35,1.35,0,0,0,1.34-1.34V58.66A1.35,1.35,0,0,0,112.19,57.32Zm-87,24.09H19.85a2.68,2.68,0,0,1-2.67-2.68V41.27a2.68,2.68,0,0,1,2.67-2.68h5.36a2.68,2.68,0,0,1,2.67,2.68V78.73A2.68,2.68,0,0,1,25.21,81.41Zm18.73,8a2.68,2.68,0,0,1-2.67,2.68H35.91a2.68,2.68,0,0,1-2.67-2.68V30.56a2.68,2.68,0,0,1,2.67-2.68h5.36a2.68,2.68,0,0,1,2.67,2.68Zm42.82,0a2.68,2.68,0,0,1-2.67,2.68H78.73a2.68,2.68,0,0,1-2.67-2.68V30.56a2.68,2.68,0,0,1,2.67-2.68h5.36a2.68,2.68,0,0,1,2.67,2.68Zm16.06-10.71a2.68,2.68,0,0,1-2.67,2.68H94.79a2.68,2.68,0,0,1-2.67-2.68V41.27a2.68,2.68,0,0,1,2.67-2.68h5.36a2.68,2.68,0,0,1,2.67,2.68Z"/></g></svg>