<svg xmlns="http://www.w3.org/2000/svg" viewBox="0 0 120 120"><title>whatsapp</title><g id="Layer_1" data-name="Layer 1"><path d="M92.54,27A46.06,46.06,0,0,0,20.07,82.61l-6.53,23.85L38,100.05a45.92,45.92,0,0,0,22,5.6h0c25.36,0,46.48-20.66,46.48-46A46.24,46.24,0,0,0,92.54,27ZM60,97.89a38.15,38.15,0,0,1-19.5-5.33l-1.39-.83-14.47,3.8L28.47,81.4,27.56,80A38.35,38.35,0,1,1,98.68,59.61C98.68,80.72,81.07,97.89,60,97.89ZM81,69.23c-1.14-.58-6.8-3.36-7.86-3.73s-1.83-.58-2.59.58-3,3.73-3.65,4.52-1.35.87-2.49.29c-6.77-3.38-11.2-6-15.66-13.69-1.19-2,1.18-1.89,3.38-6.28a2.16,2.16,0,0,0-.11-2c-.29-.58-2.59-6.24-3.54-8.54s-1.89-1.93-2.6-2-1.43,0-2.19,0a4.25,4.25,0,0,0-3.07,1.43,12.91,12.91,0,0,0-4,9.6c0,5.66,4.13,11.14,4.69,11.91s8.11,12.38,19.66,17.38c7.3,3.15,10.17,3.42,13.82,2.88,2.22-.33,6.8-2.78,7.75-5.48s1-5,.67-5.47S82.11,69.79,81,69.23Z"/></g></svg>