<svg xmlns="http://www.w3.org/2000/svg" viewBox="0 0 120 120"><title>wind</title><g id="Layer_1" data-name="Layer 1"><path d="M8.56,53.37H79.9A19.92,19.92,0,1,0,60.06,31.7a1.64,1.64,0,0,0,1.66,1.74h3.36a1.68,1.68,0,0,0,1.63-1.54A13.29,13.29,0,1,1,79.9,46.73H8.56A1.67,1.67,0,0,0,6.9,48.39v3.32A1.67,1.67,0,0,0,8.56,53.37ZM39.26,60H8.56A1.66,1.66,0,0,0,6.9,61.66V65a1.67,1.67,0,0,0,1.66,1.66H39.48c6.93,0,13.13,5.06,13.8,12a13.28,13.28,0,0,1-26.4,2.88,1.68,1.68,0,0,0-1.64-1.54H21.92a1.65,1.65,0,0,0-1.66,1.75A19.91,19.91,0,0,0,60,79.33C59.66,68.4,50.14,60,39.26,60Zm49.62,0H57.46a26.1,26.1,0,0,1,5.48,6.63H89.11c8.67,0,16.41,6.31,17.26,14.93a16.59,16.59,0,0,1-32.46,6.22,1.67,1.67,0,0,0-1.6-1.24H69a1.65,1.65,0,0,0-1.63,2,23.18,23.18,0,0,0,45.74-6C112.69,69.81,101.6,60,88.88,60Z"/></g></svg>