<svg xmlns="http://www.w3.org/2000/svg" viewBox="0 0 120 120"><defs><style>.cls-1{fill:#7d30cc;}</style></defs><title>wrestling</title><g id="Layer_1" data-name="Layer 1"><path class="cls-1" d="M96.47,108.9c-8.19-37.16-.13-66,0-66.29A3,3,0,0,0,95.1,39.2C86.66,34.11,87,22.8,87,22.69a.49.49,0,0,0,0-.12V10.46a3,3,0,0,0-3-3H74.61a3,3,0,0,0-3,3V22.59c0,3-.82,11.74-4.93,15.89a7.79,7.79,0,0,1-5.78,2.34H59.1a7.75,7.75,0,0,1-5.77-2.34c-4.1-4.12-4.95-12.87-4.94-15.91V10.46a3,3,0,0,0-3-3H35a3,3,0,0,0-2.2,1A3,3,0,0,0,32,10.71l1,12c0,.81,0,11.55-8.14,16.47a3,3,0,0,0-1.33,3.4c.09.29,8.15,29.14,0,66.3a3,3,0,0,0,2.93,3.64H51.65a3,3,0,0,0,2.77-1.85L60,97.22l5.58,13.47a3,3,0,0,0,2.77,1.85H93.54a3,3,0,0,0,2.93-3.64ZM29.88,43.07a20.94,20.94,0,0,0,4.2-4.28c2.64,8.68,8.4,33.52,1.47,67.75h-5.4C36.36,75,31.61,50.3,29.88,43.07ZM62.77,88.24a3,3,0,0,0-5.54,0l-7.59,18.3h-9c8.63-43.74-2.59-71.84-3.09-73.05a2.63,2.63,0,0,0-.35-.58A29.11,29.11,0,0,0,39,22.44a.49.49,0,0,0,0-.12l-.73-8.86h4.1v9.09c0,.54,0,13.4,6.68,20.15a13.62,13.62,0,0,0,10,4.12h1.8a13.62,13.62,0,0,0,10-4.12c6.71-6.75,6.68-19.61,6.68-20.13V13.46H81v9.06a29.32,29.32,0,0,0,1.81,10.4,2.69,2.69,0,0,0-.34.57c-.5,1.21-11.72,29.31-3.09,73.05h-9Zm27.08,18.3h-5.4c-6.93-34.22-1.17-59.06,1.47-67.75a20.94,20.94,0,0,0,4.2,4.28C88.39,50.3,83.64,75,89.85,106.54Z"/></g></svg>